{
.appVersion = "895";
DisplayStrings = (
"\U00B7/bullet :/ellipsis \U00A1;/quotedblleft/quotedblright"
);
copyright = "Copyright (c) 2011-2015, Julieta Ulanovsky (julieta.ulanovsky@gmail.com)";
customParameters = (
{
name = fsType;
value = (
);
},
{
name = license;
value = "This Font Software is licensed under the SIL Open Font License, Version 1.1. This license is available with a FAQ at: http://scripts.sil.org/OFL";
},
{
name = licenseURL;
value = "http://scripts.sil.org/OFL";
},
{
name = "Use Typo Metrics";
value = 1;
},
{
name = "Disable Last Change";
value = 1;
},
{
name = vendorID;
value = ULA;
}
);
date = "2016-11-08 20:51:18 +0000";
designer = "Julieta Ulanovsky";
designerURL = "http://www.zkysky.com.ar/";
familyName = Montserrat;
featurePrefixes = (
{
automatic = 1;
code = "languagesystem DFLT dflt;\012languagesystem latn dflt;\012languagesystem latn NLD;\012languagesystem latn CAT;\012languagesystem latn ROM;\012languagesystem latn MOL;\012languagesystem latn KAZ;\012languagesystem latn TAT;\012languagesystem latn TRK;\012languagesystem latn CRT;\012languagesystem latn AZE;\012";
name = Languagesystems;
}
);
features = (
{
automatic = 1;
code = "feature ccmp;\012feature locl;\012feature subs;\012feature sups;\012feature numr;\012feature dnom;\012feature frac;\012feature ordn;\012feature lnum;\012feature pnum;\012feature tnum;\012feature onum;\012feature case;\012feature salt;\012feature ss01;\012";
name = aalt;
},
{
automatic = 1;

glyphs = (
{
color = 1;
glyphname = A;
layers = (
{
anchors = (
{
name = bottom;
position = "{292, 0}";
},
{
name = ogonek;
position = "{624, 0}";
},
{
name = top;
position = "{407, 699}";
}
);
background = {
paths = (
{
closed = 1;
nodes = (
"-41 0 LINE",
"-17 0 LINE",
"402 676 LINE",
"602 0 LINE",
"625 0 LINE",
"417 699 LINE",
"395 699 LINE"
);
},
{
closed = 1;
nodes = (
"112 213 LINE",
"546 213 LINE",
"549 233 LINE",
"115 233 LINE"
);
}
);
};
layerId = UUID0;
paths = (
{
closed = 1;
nodes = (
"394 699 LINE",
"-42 0 LINE",
"-18 0 LINE",
"401 676 LINE",
"601 0 LINE",
"624 0 LINE",
"416 699 LINE"
);
},
{
closed = 1;
nodes = (
"112 233 LINE",
"109 213 LINE",
"543 213 LINE",
"546 233 LINE"
);
}
);
width = 686;
},
{
anchors = (
{
name = bottom;
position = "{332, 0}";
},
{
name = ogonek;
position = "{691, 0}";
},
{
name = top;
position = "{453, 701}";
}
);
background = {
paths = (
{
closed = 1;
nodes = (
"-67 0 LINE",
"171 0 LINE",
"341 470 LINE",
"505 0 LINE",
"752 0 LINE",
"467 701 LINE",
"229 701 LINE"
);
},
{
closed = 1;
nodes = (
"133 99 LINE SMOOTH",
"535 99 LINE",
"535 265 LINE",
"133 265 LINE"
);
}
);
};
layerId = "5DA6E103-6A94-47F2-987D-4952DB8EA68E";
paths = (
{
closed = 1;
nodes = (
"347 701 LINE",
"-65 0 LINE",
"171 0 LINE",
"421 470 LINE",
"505 0 LINE",
"754 0 LINE",
"585 701 LINE"
);
},
{
closed = 1;
nodes = (
"175 265 LINE",
"148 99 LINE SMOOTH",
"556 99 LINE",
"583 265 LINE"
);
}
);
width = 799;
},
{
anchors = (
{
name = bottom;
position = "{332, 0}";
},
{
name = ogonek;
position = "{684, 0}";
},
{
name = top;
position = "{431, 700}";
}
);
layerId = "1C84A7F3-C40A-4DC1-B8B4-102D183C348F";
paths = (
{
closed = 1;
nodes = (
"372 700 LINE",
"-52 0 LINE",
"70 0 LINE",
"409 581 LINE",
"558 0 LINE",
"684 0 LINE",
"493 700 LINE"
);
},
{
closed = 1;
nodes = (
"146 262 LINE",
"129 162 LINE",
"547 162 LINE",
"565 262 LINE"
);
}
);
width = 738;
}
);
leftKerningGroup = A;
rightKerningGroup = A;
unicode = 0041;
},
{
color = 1;
glyphname = A.ss01;
layers = (
{
anchors = (
{
name = bottom;
position = "{352, 0}";
},
{
name = ogonek;
position = "{612, 0}";
},
{
name = top;
position = "{475, 699}";
}
);
layerId = UUID0;
paths = (
{
closed = 1;
nodes = (
"300 699 OFFCURVE",
"177 594 OFFCURVE",
"141 415 CURVE SMOOTH",
"58 0 LINE",
"78 0 LINE",
"125 234 LINE",
"114 225 LINE",
"646 225 LINE",
"639 234 LINE",
"592 0 LINE",
"612 0 LINE",
"695 415 LINE SMOOTH",
"731 594 OFFCURVE",
"650 699 OFFCURVE",
"475 699 CURVE SMOOTH"
);
},
{
closed = 1;
nodes = (
"633 679 OFFCURVE",
"708 581 OFFCURVE",
"675 415 CURVE SMOOTH",
"639 236 LINE",
"650 245 LINE",
"118 245 LINE",
"125 236 LINE",
"161 415 LINE SMOOTH",
"194 581 OFFCURVE",
"309 679 OFFCURVE",
"471 679 CURVE SMOOTH"
);
}
);
width = 774;
},
{
anchors = (
{
name = bottom;
position = "{342, 0}";
},
{
name = ogonek;
position = "{618, 0}";
},
{
name = top;
position = "{466, 701}";
}
);
layerId = "5DA6E103-6A94-47F2-987D-4952DB8EA68E";
paths = (
{
closed = 1;
nodes = (
"260 710 OFFCURVE",
"103 588 OFFCURVE",
"66 402 CURVE SMOOTH",
"-14 0 LINE",
"218 0 LINE",
"268 248 LINE",
"147 149 LINE",
"564 149 LINE",
"483 248 LINE",
"433 0 LINE",
"665 0 LINE",
"745 402 LINE SMOOTH",
"782 588 OFFCURVE",
"673 710 OFFCURVE",
"465 710 CURVE SMOOTH"
);
},
{
closed = 1;
nodes = (
"493 517 OFFCURVE",
"527 471 OFFCURVE",
"513 402 CURVE SMOOTH",
"477 216 LINE",
"597 315 LINE",
"180 315 LINE",
"262 216 LINE",
"298 402 LINE SMOOTH",
"312 471 OFFCURVE",
"363 517 OFFCURVE",
"428 517 CURVE SMOOTH"
);
}
);
width = 760;
},
{
anchors = (
{
name = bottom;
position = "{332, 0}";
},
{
name = ogonek;
position = "{637, 0}";
},
{
name = top;
position = "{471, 700}";
}
);
layerId = "1C84A7F3-C40A-4DC1-B8B4-102D183C348F";
paths = (
{
closed = 1;
nodes = (
"282 704 OFFCURVE",
"143 591 OFFCURVE",
"107 409 CURVE SMOOTH",
"25 0 LINE",
"143 0 LINE",
"191 241 LINE",
"129 190 LINE",
"609 190 LINE",
"567 241 LINE",
"519 0 LINE",
"637 0 LINE",
"719 409 LINE SMOOTH",
"755 591 OFFCURVE",
"661 704 OFFCURVE",
"471 704 CURVE SMOOTH"
);
},
{
closed = 1;
nodes = (
"569 604 OFFCURVE",
"624 530 OFFCURVE",
"601 409 CURVE SMOOTH",
"568 239 LINE",
"630 290 LINE",
"149 290 LINE",
"191 239 LINE",
"225 409 LINE SMOOTH",
"249 530 OFFCURVE",
"335 604 OFFCURVE",
"452 604 CURVE SMOOTH"
);
}
);
width = 767;
}
);
leftKerningGroup = A.ss01;
leftMetricsKey = U;
rightKerningGroup = A.ss01;
rightMetricsKey = U;
},
{
color = 1;
glyphname = Aogonek;
layers = (
{
background = {
paths = (
{
closed = 1;
nodes = (
"393 699 LINE",
"-42 0 LINE",
"-18 0 LINE",
"114 213 LINE",
"538 213 LINE",
"601 0 LINE",
"602 0 LINE",
"540 -70 OFFCURVE",
"519 -107 OFFCURVE",
"520 -144 CURVE SMOOTH",
"521 -177 OFFCURVE",
"543 -199 OFFCURVE",
"574 -199 CURVE SMOOTH",
"598 -199 OFFCURVE",
"629 -184 OFFCURVE",
"655 -159 CURVE",
"643 -145 LINE",
"620 -167 OFFCURVE",
"597 -179 OFFCURVE",
"577 -179 CURVE SMOOTH",
"555 -179 OFFCURVE",
"541 -165 OFFCURVE",
"540 -142 CURVE SMOOTH",
"539 -106 OFFCURVE",
"556 -77 OFFCURVE",
"623 0 CURVE",
"624 0 LINE",
"415 699 LINE"
);
},
{
closed = 1;
nodes = (
"532 233 LINE",
"126 233 LINE",
"400 676 LINE"
);
}
);
};
components = (
{
name = A;
},
{
name = ogonek;
transform = "{1, 0, 0, 1, 497, 0}";
}
);
layerId = UUID0;
width = 686;
},
{
background = {
paths = (
{
closed = 1;
nodes = (
"346 701 LINE",
"-65 0 LINE",
"171 0 LINE",
"223 99 LINE",
"486 99 LINE",
"505 0 LINE",
"581 0 LINE",
"545 -43 OFFCURVE",
"515 -87 OFFCURVE",
"517 -134 CURVE SMOOTH",
"519 -188 OFFCURVE",
"563 -204 OFFCURVE",
"600 -204 CURVE SMOOTH",
"649 -204 OFFCURVE",
"696 -179 OFFCURVE",
"733 -128 CURVE",
"688 -64 LINE",
"674 -83 OFFCURVE",
"659 -94 OFFCURVE",
"646 -94 CURVE SMOOTH",
"639 -94 OFFCURVE",
"635 -90 OFFCURVE",
"634 -82 CURVE SMOOTH",
"634 -67 OFFCURVE",
"656 -36 OFFCURVE",
"686 0 CURVE",
"754 0 LINE",
"584 701 LINE"
);
},
{
closed = 1;
nodes = (
"456 265 LINE",
"310 265 LINE",
"418 470 LINE"
);
}
);
};
components = (
{
name = A;
},
{
name = ogonek;
transform = "{1, 0, 0, 1, 444, 0}";
}
);
layerId = "5DA6E103-6A94-47F2-987D-4952DB8EA68E";
width = 799;
},
{
background = {
paths = (
{
closed = 1;
nodes = (
"372 700 LINE",
"-52 0 LINE",
"71 0 LINE",
"165 162 LINE",
"517 162 LINE",
"559 0 LINE",
"593 0 LINE",
"544 -57 OFFCURVE",
"517 -98 OFFCURVE",
"519 -139 CURVE SMOOTH",
"520 -182 OFFCURVE",
"553 -201 OFFCURVE",
"587 -201 CURVE SMOOTH",
"624 -201 OFFCURVE",
"663 -180 OFFCURVE",
"691 -145 CURVE",
"664 -108 LINE",
"646 -127 OFFCURVE",
"628 -140 OFFCURVE",
"610 -140 CURVE SMOOTH",
"594 -140 OFFCURVE",
"585 -131 OFFCURVE",
"584 -115 CURVE SMOOTH",
"584 -90 OFFCURVE",
"604 -56 OFFCURVE",
"652 0 CURVE",
"685 0 LINE",
"494 700 LINE"
);
},
{
closed = 1;
nodes = (
"492 262 LINE",
"224 262 LINE",
"411 581 LINE"
);
}
);
};
components = (
{
name = A;
},
{
name = ogonek;
transform = "{1, 0, 0, 1, 491, 0}";
}
);
layerId = "1C84A7F3-C40A-4DC1-B8B4-102D183C348F";
width = 738;
}
);
leftKerningGroup = A;
rightKerningGroup = A;
unicode = 0104;
},
{
color = 1;
glyphname = Aogonek.ss01;
layers = (
{
background = {
paths = (
{
closed = 1;
nodes = (
"300 699 OFFCURVE",
"177 594 OFFCURVE",
"141 415 CURVE SMOOTH",
"58 0 LINE",
"78 0 LINE",
"123 225 LINE",
"637 225 LINE",
"592 0 LINE",
"593 0 LINE",
"526 -74 OFFCURVE",
"503 -108 OFFCURVE",
"503 -144 CURVE SMOOTH",
"503 -177 OFFCURVE",
"524 -199 OFFCURVE",
"555 -199 CURVE SMOOTH",
"582 -199 OFFCURVE",
"614 -181 OFFCURVE",
"637 -159 CURVE",
"626 -145 LINE",
"604 -165 OFFCURVE",
"581 -179 OFFCURVE",
"559 -179 CURVE SMOOTH",
"538 -179 OFFCURVE",
"523 -166 OFFCURVE",
"523 -142 CURVE SMOOTH",
"523 -102 OFFCURVE",
"546 -69 OFFCURVE",
"611 0 CURVE",
"612 0 LINE",
"695 415 LINE SMOOTH",
"731 594 OFFCURVE",
"650 699 OFFCURVE",
"475 699 CURVE SMOOTH"
);
},
{
closed = 1;
nodes = (
"633 679 OFFCURVE",
"708 581 OFFCURVE",
"675 415 CURVE SMOOTH",
"641 245 LINE",
"127 245 LINE",
"161 415 LINE SMOOTH",
"194 581 OFFCURVE",
"309 679 OFFCURVE",
"471 679 CURVE SMOOTH"
);
}
);
};
components = (
{
name = A.ss01;
},
{
name = ogonek;
transform = "{1, 0, 0, 1, 485, 0}";
}
);
layerId = UUID0;
width = 774;
},
{
background = {
paths = (
{
closed = 1;
nodes = (
"260 710 OFFCURVE",
"103 588 OFFCURVE",
"66 402 CURVE SMOOTH",
"-14 0 LINE",
"218 0 LINE",
"248 149 LINE",
"463 149 LINE",
"433 0 LINE",
"496 0 LINE",
"459 -43 OFFCURVE",
"427 -87 OFFCURVE",
"427 -134 CURVE SMOOTH",
"427 -188 OFFCURVE",
"471 -204 OFFCURVE",
"508 -204 CURVE SMOOTH",
"557 -204 OFFCURVE",
"605 -179 OFFCURVE",
"643 -128 CURVE",
"601 -64 LINE",
"586 -83 OFFCURVE",
"571 -94 OFFCURVE",
"558 -94 CURVE SMOOTH",
"551 -94 OFFCURVE",
"547 -90 OFFCURVE",
"547 -82 CURVE SMOOTH",
"547 -67 OFFCURVE",
"570 -36 OFFCURVE",
"601 0 CURVE",
"665 0 LINE",
"745 402 LINE SMOOTH",
"782 588 OFFCURVE",
"673 710 OFFCURVE",
"465 710 CURVE SMOOTH"
);
},
{
closed = 1;
nodes = (
"493 517 OFFCURVE",
"527 471 OFFCURVE",
"513 402 CURVE SMOOTH",
"496 315 LINE",
"281 315 LINE",
"298 402 LINE SMOOTH",
"312 471 OFFCURVE",
"363 517 OFFCURVE",
"428 517 CURVE SMOOTH"
);
}
);
};
components = (
{
name = A.ss01;
},
{
name = ogonek;
transform = "{1, 0, 0, 1, 371, 0}";
}
);
layerId = "5DA6E103-6A94-47F2-987D-4952DB8EA68E";
width = 760;
},
{
background = {
paths = (
{
closed = 1;
nodes = (
"282 704 OFFCURVE",
"143 591 OFFCURVE",
"107 409 CURVE SMOOTH",
"25 0 LINE",
"143 0 LINE",
"181 190 LINE",
"557 190 LINE",
"519 0 LINE",
"554 0 LINE",
"503 -57 OFFCURVE",
"476 -98 OFFCURVE",
"476 -139 CURVE SMOOTH",
"476 -182 OFFCURVE",
"507 -201 OFFCURVE",
"541 -201 CURVE SMOOTH",
"578 -201 OFFCURVE",
"618 -180 OFFCURVE",
"647 -145 CURVE",
"622 -108 LINE",
"603 -127 OFFCURVE",
"584 -140 OFFCURVE",
"566 -140 CURVE SMOOTH",
"551 -140 OFFCURVE",
"542 -131 OFFCURVE",
"542 -114 CURVE SMOOTH",
"542 -90 OFFCURVE",
"563 -56 OFFCURVE",
"613 0 CURVE",
"637 0 LINE",
"719 409 LINE SMOOTH",
"755 591 OFFCURVE",
"661 704 OFFCURVE",
"471 704 CURVE SMOOTH"
);
},
{
closed = 1;
nodes = (
"569 604 OFFCURVE",
"624 530 OFFCURVE",
"601 409 CURVE SMOOTH",
"578 290 LINE",
"201 290 LINE",
"225 409 LINE SMOOTH",
"249 530 OFFCURVE",
"335 604 OFFCURVE",
"452 604 CURVE SMOOTH"
);
}
);
};
components = (
{
name = A.ss01;
},
{
name = ogonek;
transform = "{1, 0, 0, 1, 444, 0}";
}
);
layerId = "1C84A7F3-C40A-4DC1-B8B4-102D183C348F";
width = 767;
}
);
leftKerningGroup = Aogonek.ss01;
rightKerningGroup = Aogonek.ss01;
},
{
color = 0;
glyphname = Aring;
layers = (
{
background = {
paths = (
{
closed = 1;
nodes = (
"345 896 OFFCURVE",
"294 845 OFFCURVE",
"294 787 CURVE SMOOTH",
"294 729 OFFCURVE",
"345 679 OFFCURVE",
"406 679 CURVE SMOOTH",
"467 679 OFFCURVE",
"519 729 OFFCURVE",
"519 787 CURVE SMOOTH",
"519 845 OFFCURVE",
"467 896 OFFCURVE",
"406 896 CURVE SMOOTH"
);
},
{
closed = 1;
nodes = (
"456 876 OFFCURVE",
"499 835 OFFCURVE",
"499 787 CURVE SMOOTH",
"499 739 OFFCURVE",
"456 699 OFFCURVE",
"406 699 CURVE SMOOTH",
"356 699 OFFCURVE",
"314 739 OFFCURVE",
"314 787 CURVE SMOOTH",
"314 835 OFFCURVE",
"356 876 OFFCURVE",
"406 876 CURVE SMOOTH"
);
}
);
};
components = (
{
name = A;
},
{
name = ring;
transform = "{1, 0, 0, 1, 176, 182}";
}
);
layerId = UUID0;
width = 686;
},
{
background = {
paths = (
{
closed = 1;
nodes = (
"391 895 OFFCURVE",
"332 836 OFFCURVE",
"332 761 CURVE SMOOTH",
"332 686 OFFCURVE",
"391 627 OFFCURVE",
"466 627 CURVE SMOOTH",
"541 627 OFFCURVE",
"600 686 OFFCURVE",
"600 761 CURVE SMOOTH",
"600 836 OFFCURVE",
"541 895 OFFCURVE",
"466 895 CURVE SMOOTH"
);
},
{
closed = 1;
nodes = (
"490 803 OFFCURVE",
"508 785 OFFCURVE",
"508 761 CURVE SMOOTH",
"508 737 OFFCURVE",
"490 719 OFFCURVE",
"466 719 CURVE SMOOTH",
"442 719 OFFCURVE",
"424 737 OFFCURVE",
"424 761 CURVE SMOOTH",
"424 785 OFFCURVE",
"442 803 OFFCURVE",
"466 803 CURVE SMOOTH"
);
}
);
};
components = (
{
name = A;
},
{
name = ring;
transform = "{1.092, 0, 0, 1.092, 199, 104}";
}
);
guideLines = (
{
position = "{469, 895}";
}
);
layerId = "5DA6E103-6A94-47F2-987D-4952DB8EA68E";
width = 799;
},
{
background = {
paths = (
{
closed = 1;
nodes = (
"365 888 OFFCURVE",
"310 833 OFFCURVE",
"310 767 CURVE SMOOTH",
"310 701 OFFCURVE",
"365 647 OFFCURVE",
"432 647 CURVE SMOOTH",
"500 647 OFFCURVE",
"555 701 OFFCURVE",
"555 767 CURVE SMOOTH",
"555 833 OFFCURVE",
"500 888 OFFCURVE",
"432 888 CURVE SMOOTH"
);
},
{
closed = 1;
nodes = (
"470 834 OFFCURVE",
"502 804 OFFCURVE",
"502 767 CURVE SMOOTH",
"502 730 OFFCURVE",
"470 700 OFFCURVE",
"432 700 CURVE SMOOTH",
"394 700 OFFCURVE",
"363 730 OFFCURVE",
"363 767 CURVE SMOOTH",
"363 804 OFFCURVE",
"394 834 OFFCURVE",
"432 834 CURVE SMOOTH"
);
}
);
};
components = (
{
name = A;
},
{
name = ring;
transform = "{1, 0, 0, 1, 209, 169}";
}
);
layerId = "1C84A7F3-C40A-4DC1-B8B4-102D183C348F";
width = 738;
}
);
leftKerningGroup = A;
leftMetricsKey = A;
rightKerningGroup = A;
rightMetricsKey = A;
unicode = 00C5;
},
{
color = 1;
glyphname = AE;
layers = (
{
anchors = (
{
name = bottom;
position = "{613, 0}";
},
{
name = ogonek;
position = "{873, 10}";
},
{
name = top;
position = "{686, 699}";
}
);
layerId = UUID0;
paths = (
{
closed = 1;
nodes = (
"519 699 LINE",
"-42 0 LINE",
"-18 0 LINE",
"526 679 LINE",
"814 679 LINE",
"824 699 LINE"
);
},
{
closed = 1;
nodes = (
"154 243 LINE",
"149 223 LINE",
"479 223 LINE",
"484 243 LINE"
);
},
{
closed = 1;
nodes = (
"559 699 LINE",
"419 0 LINE",
"870 0 LINE",
"874 20 LINE",
"443 20 LINE",
"509 350 LINE",
"880 350 LINE",
"884 370 LINE",
"513 370 LINE",
"575 679 LINE",
"992 679 LINE",
"996 699 LINE"
);
}
);
width = 987;
},
{
anchors = (
{
name = bottom;
position = "{756, 0}";
},
{
name = ogonek;
position = "{1051, 10}";
},
{
name = top;
position = "{746, 701}";
}
);
layerId = "5DA6E103-6A94-47F2-987D-4952DB8EA68E";
paths = (
{
closed = 1;
nodes = (
"465 701 LINE",
"-65 0 LINE",
"178 0 LINE",
"543 525 LINE",
"837 525 LINE",
"864 701 LINE"
);
},
{
closed = 1;
nodes = (
"231 288 LINE",
"192 122 LINE",
"595 122 LINE",
"634 288 LINE"
);
},
{
closed = 1;
nodes = (
"595 701 LINE",
"455 0 LINE",
"1057 0 LINE",
"1092 176 LINE",
"722 176 LINE",
"740 263 LINE",
"1068 263 LINE",
"1103 439 LINE",
"775 439 LINE",
"792 525 LINE",
"1153 525 LINE",
"1188 701 LINE"
);
}
);
width = 1150;
},
{
anchors = (
{
name = bottom;
position = "{674, 0}";
},
{
name = ogonek;
position = "{945, 10}";
},
{
name = top;
position = "{713, 700}";
}
);
layerId = "1C84A7F3-C40A-4DC1-B8B4-102D183C348F";
paths = (
{
closed = 1;
nodes = (
"494 700 LINE",
"-52 0 LINE",
"73 0 LINE",
"535 608 LINE",
"823 608 LINE",
"841 700 LINE"
);
},
{
closed = 1;
nodes = (
"188 264 LINE",
"168 176 LINE",
"531 176 LINE",
"552 264 LINE"
);
},
{
closed = 1;
nodes = (
"575 700 LINE",
"435 0 LINE",
"946 0 LINE",
"966 101 LINE",
"572 101 LINE",
"612 302 LINE",
"955 302 LINE",
"975 402 LINE",
"632 402 LINE",
"672 599 LINE",
"1054 599 LINE",
"1074 700 LINE"
);
}
);
width = 1051;
}
);
leftKerningGroup = A;
leftMetricsKey = A;
rightKerningGroup = E;
rightMetricsKey = E;
unicode = 00C6;
},
{
color = 1;
glyphname = B;
layers = (
{
layerId = UUID0;
paths = (
{
closed = 1;
nodes = (
"216 699 LINE",
"76 0 LINE",
"357 0 LINE SMOOTH",
"539 0 OFFCURVE",
"649 84 OFFCURVE",
"649 220 CURVE SMOOTH",
"649 299 OFFCURVE",
"598 353 OFFCURVE",
"505 364 CURVE",
"613 382 OFFCURVE",
"679 457 OFFCURVE",
"679 559 CURVE SMOOTH",
"679 647 OFFCURVE",
"614 699 OFFCURVE",
"497 699 CURVE SMOOTH"
);
},
{
closed = 1;
nodes = (
"558 353 OFFCURVE",
"629 303 OFFCURVE",
"629 216 CURVE SMOOTH",
"629 95 OFFCURVE",
"529 20 OFFCURVE",
"361 20 CURVE SMOOTH",
"100 20 LINE",
"167 353 LINE",
"428 353 LINE SMOOTH"
);
},
{
closed = 1;
nodes = (
"600 679 OFFCURVE",
"659 633 OFFCURVE",
"659 554 CURVE SMOOTH",
"659 442 OFFCURVE",
"573 372 OFFCURVE",
"431 372 CURVE SMOOTH",
"170 372 LINE",
"232 679 LINE",
"493 679 LINE SMOOTH"
);
}
);
width = 733;
},
{
layerId = "5DA6E103-6A94-47F2-987D-4952DB8EA68E";
paths = (
{
closed = 1;
nodes = (
"135 701 LINE",
"-5 0 LINE",
"367 0 LINE SMOOTH",
"557 0 OFFCURVE",
"692 91 OFFCURVE",
"692 229 CURVE SMOOTH",
"692 300 OFFCURVE",
"653 358 OFFCURVE",
"585 374 CURVE",
"673 399 OFFCURVE",
"736 469 OFFCURVE",
"736 548 CURVE SMOOTH",
"736 640 OFFCURVE",
"643 701 OFFCURVE",
"490 701 CURVE SMOOTH"
);
},
{
closed = 1;
nodes = (
"431 277 OFFCURVE",
"454 260 OFFCURVE",
"454 234 CURVE SMOOTH",
"454 197 OFFCURVE",
"419 170 OFFCURVE",
"371 170 CURVE SMOOTH",
"260 170 LINE",
"281 277 LINE",
"392 277 LINE SMOOTH"
);
},
{
closed = 1;
nodes = (
"471 531 OFFCURVE",
"487 516 OFFCURVE",
"487 491 CURVE SMOOTH",
"487 456 OFFCURVE",
"460 431 OFFCURVE",
"423 431 CURVE SMOOTH",
"312 431 LINE",
"332 531 LINE",
"443 531 LINE SMOOTH"
);
}
);
width = 725;
},
{
layerId = "1C84A7F3-C40A-4DC1-B8B4-102D183C348F";
paths = (
{
closed = 1;
nodes = (
"179 700 LINE",
"39 0 LINE",
"350 0 LINE SMOOTH",
"529 0 OFFCURVE",
"648 87 OFFCURVE",
"648 226 CURVE SMOOTH",
"648 301 OFFCURVE",
"605 355 OFFCURVE",
"528 369 CURVE",
"623 390 OFFCURVE",
"686 463 OFFCURVE",
"686 554 CURVE SMOOTH",
"686 645 OFFCURVE",
"612 700 OFFCURVE",
"483 700 CURVE SMOOTH"
);
},
{
closed = 1;
nodes = (
"481 308 OFFCURVE",
"527 276 OFFCURVE",
"527 222 CURVE SMOOTH",
"527 146 OFFCURVE",
"462 101 OFFCURVE",
"357 101 CURVE SMOOTH",
"177 101 LINE",
"218 308 LINE",
"399 308 LINE SMOOTH"
);
},
{
closed = 1;
nodes = (
"523 599 OFFCURVE",
"560 572 OFFCURVE",
"560 523 CURVE SMOOTH",
"560 453 OFFCURVE",
"505 409 OFFCURVE",
"419 409 CURVE SMOOTH",
"238 409 LINE",
"276 599 LINE",
"457 599 LINE SMOOTH"
);
}
);
width = 708;
}
);
leftKerningGroup = H;
rightKerningGroup = B;
unicode = 0042;
},
{
color = 1;
glyphname = C;
layers = (
{
anchors = (
{
name = bottom;
position = "{348, 0}";
},
{
name = top;
position = "{437, 699}";
}
);
layerId = UUID0;
paths = (
{
closed = 1;
nodes = (
"266 699 OFFCURVE",
"89 542 OFFCURVE",
"70 351 CURVE SMOOTH",
"51 158 OFFCURVE",
"197 0 OFFCURVE",
"395 0 CURVE SMOOTH",
"486 0 OFFCURVE",
"574 35 OFFCURVE",
"644 91 CURVE",
"631 104 LINE",
"566 51 OFFCURVE",
"483 19 OFFCURVE",
"395 19 CURVE SMOOTH",
"209 19 OFFCURVE",
"71 168 OFFCURVE",
"89 349 CURVE SMOOTH",
"107 532 OFFCURVE",
"274 680 OFFCURVE",
"462 680 CURVE SMOOTH",
"548 680 OFFCURVE",
"625 649 OFFCURVE",
"680 596 CURVE",
"694 609 LINE",
"636 665 OFFCURVE",
"555 699 OFFCURVE",
"462 699 CURVE SMOOTH"
);
}
);
width = 732;
},
{
anchors = (
{
name = bottom;
position = "{352, 0}";
},
{
name = top;
position = "{448, 701}";
}
);
layerId = "5DA6E103-6A94-47F2-987D-4952DB8EA68E";
paths = (
{
closed = 1;
nodes = (
"215 708 OFFCURVE",
"32 543 OFFCURVE",
"32 319 CURVE SMOOTH",
"32 128 OFFCURVE",
"168 -10 OFFCURVE",
"369 -10 CURVE SMOOTH",
"477 -10 OFFCURVE",
"602 45 OFFCURVE",
"688 130 CURVE",
"568 273 LINE",
"517 224 OFFCURVE",
"451 193 OFFCURVE",
"401 193 CURVE SMOOTH",
"324 193 OFFCURVE",
"271 254 OFFCURVE",
"271 338 CURVE SMOOTH",
"271 440 OFFCURVE",
"343 515 OFFCURVE",
"433 515 CURVE SMOOTH",
"487 515 OFFCURVE",
"546 478 OFFCURVE",
"583 421 CURVE",
"733 580 LINE",
"668 658 OFFCURVE",
"556 708 OFFCURVE",
"449 708 CURVE SMOOTH"
);
}
);
width = 714;
},
{
anchors = (
{
name = bottom;
position = "{368, 0}";
},
{
name = top;
position = "{426, 700}";
}
);
layerId = "1C84A7F3-C40A-4DC1-B8B4-102D183C348F";
paths = (
{
closed = 1;
nodes = (
"237 703 OFFCURVE",
"52 534 OFFCURVE",
"52 321 CURVE SMOOTH",
"52 137 OFFCURVE",
"190 -5 OFFCURVE",
"383 -5 CURVE SMOOTH",
"482 -5 OFFCURVE",
"587 40 OFFCURVE",
"665 109 CURVE",
"602 182 LINE",
"544 131 OFFCURVE",
"469 99 OFFCURVE",
"399 99 CURVE SMOOTH",
"268 99 OFFCURVE",
"173 201 OFFCURVE",
"173 330 CURVE SMOOTH",
"173 482 OFFCURVE",
"300 604 OFFCURVE",
"449 604 CURVE SMOOTH",
"520 604 OFFCURVE",
"589 570 OFFCURVE",
"635 515 CURVE",
"712 596 LINE",
"651 662 OFFCURVE",
"556 703 OFFCURVE",
"457 703 CURVE SMOOTH"
);
}
);
width = 724;
}
);
leftKerningGroup = O;
rightKerningGroup = C;
unicode = 0043;
},
{
color = 1;
glyphname = D;
layers = (
{
anchors = (
{
name = bottom;
position = "{344, 0}";
},
{
name = center;
position = "{224, 350}";
},
{
name = top;
position = "{474, 699}";
}
);
background = {
paths = (
{
closed = 1;
nodes = (
"181 699 LINE",
"112 0 LINE",
"387 0 LINE SMOOTH",
"584 0 OFFCURVE",
"761 157 OFFCURVE",
"779 348 CURVE SMOOTH",
"799 542 OFFCURVE",
"653 699 OFFCURVE",
"456 699 CURVE SMOOTH"
);
},
{
closed = 1;
nodes = (
"640 679 OFFCURVE",
"778 531 OFFCURVE",
"760 350 CURVE SMOOTH",
"742 168 OFFCURVE",
"575 20 OFFCURVE",
"389 20 CURVE SMOOTH",
"134 20 LINE",
"199 679 LINE",
"454 679 LINE SMOOTH"
);
}
);
};
layerId = UUID0;
paths = (
{
closed = 1;
nodes = (
"216 699 LINE",
"77 0 LINE",
"369 0 LINE SMOOTH",
"566 0 OFFCURVE",
"750 157 OFFCURVE",
"779 348 CURVE SMOOTH",
"809 542 OFFCURVE",
"671 699 OFFCURVE",
"474 699 CURVE SMOOTH"
);
},
{
closed = 1;
nodes = (
"657 679 OFFCURVE",
"787 531 OFFCURVE",
"760 350 CURVE SMOOTH",
"732 168 OFFCURVE",
"558 20 OFFCURVE",
"372 20 CURVE SMOOTH",
"101 20 LINE",
"232 679 LINE",
"471 679 LINE SMOOTH"
);
}
);
width = 812;
},
{
anchors = (
{
name = bottom;
position = "{296, 0}";
},
{
name = center;
position = "{231, 351}";
},
{
name = top;
position = "{426, 701}";
}
);
background = {
paths = (
{
closed = 1;
nodes = (
"100 701 LINE",
"31 0 LINE",
"335 0 LINE SMOOTH",
"589 0 OFFCURVE",
"762 153 OFFCURVE",
"762 386 CURVE SMOOTH",
"762 578 OFFCURVE",
"629 701 OFFCURVE",
"413 701 CURVE SMOOTH"
);
},
{
closed = 1;
nodes = (
"473 521 OFFCURVE",
"524 461 OFFCURVE",
"524 370 CURVE SMOOTH",
"524 256 OFFCURVE",
"460 180 OFFCURVE",
"368 180 CURVE SMOOTH",
"281 180 LINE",
"315 521 LINE",
"391 521 LINE SMOOTH"
);
}
);
};
layerId = "5DA6E103-6A94-47F2-987D-4952DB8EA68E";
paths = (
{
closed = 1;
nodes = (
"135 701 LINE",
"-4 0 LINE",
"317 0 LINE SMOOTH",
"570 0 OFFCURVE",
"752 153 OFFCURVE",
"764 386 CURVE SMOOTH",
"774 578 OFFCURVE",
"647 701 OFFCURVE",
"432 701 CURVE SMOOTH"
);
},
{
closed = 1;
nodes = (
"482 521 OFFCURVE",
"530 461 OFFCURVE",
"525 370 CURVE SMOOTH",
"519 256 OFFCURVE",
"451 180 OFFCURVE",
"359 180 CURVE SMOOTH",
"264 180 LINE",
"331 521 LINE",
"399 521 LINE SMOOTH"
);
}
);
width = 761;
},
{
anchors = (
{
name = bottom;
position = "{316, 0}";
},
{
name = center;
position = "{231, 350}";
},
{
name = top;
position = "{436, 700}";
}
);
background = {
paths = (
{
closed = 1;
nodes = (
"144 700 LINE",
"75 0 LINE",
"359 0 LINE SMOOTH",
"585 0 OFFCURVE",
"761 164 OFFCURVE",
"761 382 CURVE SMOOTH",
"761 566 OFFCURVE",
"628 700 OFFCURVE",
"432 700 CURVE SMOOTH"
);
},
{
closed = 1;
nodes = (
"548 599 OFFCURVE",
"641 505 OFFCURVE",
"641 372 CURVE SMOOTH",
"641 215 OFFCURVE",
"520 101 OFFCURVE",
"375 101 CURVE SMOOTH",
"203 101 LINE",
"252 599 LINE",
"420 599 LINE SMOOTH"
);
}
);
};
layerId = "1C84A7F3-C40A-4DC1-B8B4-102D183C348F";
paths = (
{
closed = 1;
nodes = (
"179 700 LINE",
"40 0 LINE",
"340 0 LINE SMOOTH",
"566 0 OFFCURVE",
"751 164 OFFCURVE",
"762 382 CURVE SMOOTH",
"772 566 OFFCURVE",
"646 700 OFFCURVE",
"450 700 CURVE SMOOTH"
);
},
{
closed = 1;
nodes = (
"561 599 OFFCURVE",
"649 505 OFFCURVE",
"642 372 CURVE SMOOTH",
"634 215 OFFCURVE",
"507 101 OFFCURVE",
"362 101 CURVE SMOOTH",
"178 101 LINE",
"277 599 LINE",
"433 599 LINE SMOOTH"
);
}
);
width = 777;
}
);
leftKerningGroup = H;
rightKerningGroup = O;
unicode = 0044;
},
{
color = 0;
glyphname = Eth;
layers = (
{
background = {
paths = (
{
closed = 1;
nodes = (
"21 360 LINE",
"17 340 LINE",
"427 340 LINE",
"431 360 LINE"
);
}
);
};
components = (
{
name = Dcroat;
}
);
layerId = UUID0;
width = 812;
},
{
background = {
components = (
{
name = D;
},
{
name = strokelongcomb;
transform = "{1, 0, 0, 1, -35, -82}";
}
);
};
components = (
{
name = Dcroat;
}
);
layerId = "5DA6E103-6A94-47F2-987D-4952DB8EA68E";
width = 761;
},
{
background = {
components = (
{
name = D;
transform = "{1, 0, 0, 1, 37, 0}";
}
);
paths = (
{
closed = 1;
nodes = (
"24 383 LINE",
"11 317 LINE",
"438 317 LINE",
"451 383 LINE"
);
}
);
};
components = (
{
name = Dcroat;
}
);
layerId = "1C84A7F3-C40A-4DC1-B8B4-102D183C348F";
width = 777;
}
);
leftKerningGroup = H;
rightKerningGroup = O;
rightMetricsKey = D;
unicode = 00D0;
},
{
color = 10;
glyphname = Dcroat;
layers = (
{
components = (
{
name = D;
}
);
layerId = UUID0;
paths = (
{
closed = 1;
nodes = (
"71 360 LINE",
"67 340 LINE",
"427 340 LINE",
"431 360 LINE"
);
}
);
width = 812;
},
{
components = (
{
name = D;
}
);
layerId = "5DA6E103-6A94-47F2-987D-4952DB8EA68E";
paths = (
{
closed = 1;
nodes = (
"7 400 LINE",
"-12 302 LINE",
"405 302 LINE",
"424 399 LINE"
);
}
);
width = 761;
},
{
anchors = (
{
name = _center;
position = "{231, 350}";
}
);
components = (
{
name = D;
}
);
layerId = "1C84A7F3-C40A-4DC1-B8B4-102D183C348F";
paths = (
{
closed = 1;
nodes = (
"43 383 LINE",
"30 317 LINE",
"397 317 LINE",
"410 383 LINE"
);
}
);
width = 777;
}
);
leftKerningGroup = H;
rightKerningGroup = O;
unicode = 0110;
},
{
color = 1;
glyphname = E;
layers = (
{
anchors = (
{
name = bottom;
position = "{330, 0}";
},
{
name = ogonek;
position = "{527, 0}";
},
{
name = top;
position = "{440, 699}";
},
{
name = topleft;
position = "{108, 699}";
}
);
layerId = UUID0;
paths = (
{
closed = 1;
nodes = (
"527 0 LINE",
"531 20 LINE",
"100 20 LINE",
"166 350 LINE",
"537 350 LINE",
"541 370 LINE",
"170 370 LINE",
"232 679 LINE",
"649 679 LINE",
"653 699 LINE",
"216 699 LINE",
"76 0 LINE"
);
}
);
width = 644;
},
{
anchors = (
{
name = bottom;
position = "{310, 0}";
},
{
name = ogonek;
position = "{597, 0}";
},
{
name = top;
position = "{432, 701}";
},
{
name = topleft;
position = "{105, 701}";
}
);
layerId = "5DA6E103-6A94-47F2-987D-4952DB8EA68E";
paths = (
{
closed = 1;
nodes = (
"597 0 LINE",
"632 176 LINE",
"262 176 LINE",
"280 263 LINE",
"608 263 LINE",
"643 439 LINE",
"315 439 LINE",
"332 525 LINE",
"693 525 LINE",
"728 701 LINE",
"135 701 LINE",
"-5 0 LINE"
);
}
);
width = 690;
},
{
anchors = (
{
name = bottom;
position = "{315, 0}";
},
{
name = ogonek;
position = "{551, 0}";
},
{
name = top;
position = "{445, 700}";
},
{
name = topleft;
position = "{107, 700}";
}
);
layerId = "1C84A7F3-C40A-4DC1-B8B4-102D183C348F";
paths = (
{
closed = 1;
nodes = (
"551 0 LINE",
"571 101 LINE",
"177 101 LINE",
"217 302 LINE",
"559 302 LINE",
"580 402 LINE",
"237 402 LINE",
"276 599 LINE",
"658 599 LINE",
"678 700 LINE",
"179 700 LINE",
"39 0 LINE"
);
}
);
width = 656;
}
);
leftKerningGroup = H;
rightKerningGroup = E;
unicode = 0045;
},
{
color = 1;
glyphname = E.ss01;
layers = (
{
anchors = (
{
name = bottom;
position = "{248, 0}";
},
{
name = ogonek;
position = "{467, 0}";
},
{
name = top;
position = "{378, 699}";
},
{
name = topleft;
position = "{108, 699}";
}
);
layerId = UUID0;
paths = (
{
closed = 1;
nodes = (
"260 699 OFFCURVE",
"142 615 OFFCURVE",
"142 506 CURVE SMOOTH",
"142 439 OFFCURVE",
"193 381 OFFCURVE",
"272 370 CURVE",
"148 357 OFFCURVE",
"44 268 OFFCURVE",
"44 163 CURVE SMOOTH",
"44 69 OFFCURVE",
"131 0 OFFCURVE",
"262 0 CURVE SMOOTH",
"329 0 OFFCURVE",
"419 21 OFFCURVE",
"472 49 CURVE",
"466 67 LINE",
"410 40 OFFCURVE",
"326 20 OFFCURVE",
"266 20 CURVE SMOOTH",
"145 20 OFFCURVE",
"64 81 OFFCURVE",
"64 166 CURVE SMOOTH",
"64 276 OFFCURVE",
"188 360 OFFCURVE",
"338 360 CURVE SMOOTH",
"447 360 LINE",
"451 380 LINE",
"342 380 LINE SMOOTH",
"234 380 OFFCURVE",
"162 433 OFFCURVE",
"162 508 CURVE SMOOTH",
"162 604 OFFCURVE",
"269 679 OFFCURVE",
"400 679 CURVE SMOOTH",
"454 679 OFFCURVE",
"517 665 OFFCURVE",
"550 646 CURVE",
"563 664 LINE",
"527 684 OFFCURVE",
"460 699 OFFCURVE",
"404 699 CURVE SMOOTH"
);
}
);
width = 539;
},
{
anchors = (
{
name = bottom;
position = "{283, 0}";
},
{
name = ogonek;
position = "{579, 0}";
},
{
name = top;
position = "{423, 701}";
},
{
name = topleft;
position = "{105, 701}";
}
);
layerId = "5DA6E103-6A94-47F2-987D-4952DB8EA68E";
paths = (
{
closed = 1;
nodes = (
"248 711 OFFCURVE",
"112 624 OFFCURVE",
"112 490 CURVE SMOOTH",
"112 440 OFFCURVE",
"132 391 OFFCURVE",
"168 369 CURVE",
"75 335 OFFCURVE",
"7 252 OFFCURVE",
"7 165 CURVE SMOOTH",
"7 58 OFFCURVE",
"111 -10 OFFCURVE",
"269 -10 CURVE SMOOTH",
"382 -10 OFFCURVE",
"508 23 OFFCURVE",
"585 67 CURVE",
"532 234 LINE",
"495 211 OFFCURVE",
"407 176 OFFCURVE",
"340 176 CURVE SMOOTH",
"292 176 OFFCURVE",
"257 195 OFFCURVE",
"257 224 CURVE SMOOTH",
"257 252 OFFCURVE",
"286 271 OFFCURVE",
"326 271 CURVE SMOOTH",
"508 271 LINE",
"541 438 LINE",
"359 438 LINE SMOOTH",
"338 438 OFFCURVE",
"325 453 OFFCURVE",
"325 470 CURVE SMOOTH",
"325 506 OFFCURVE",
"370 525 OFFCURVE",
"428 525 CURVE SMOOTH",
"475 525 OFFCURVE",
"525 511 OFFCURVE",
"573 487 CURVE",
"680 656 LINE",
"629 688 OFFCURVE",
"529 711 OFFCURVE",
"435 711 CURVE SMOOTH"
);
}
);
width = 636;
},
{
anchors = (
{
name = bottom;
position = "{260, 0}";
},
{
name = ogonek;
position = "{506, 0}";
},
{
name = top;
position = "{400, 700}";
},
{
name = topleft;
position = "{107, 700}";
}
);
layerId = "1C84A7F3-C40A-4DC1-B8B4-102D183C348F";
paths = (
{
closed = 1;
nodes = (
"255 705 OFFCURVE",
"129 618 OFFCURVE",
"129 500 CURVE SMOOTH",
"129 438 OFFCURVE",
"166 386 OFFCURVE",
"224 370 CURVE",
"111 346 OFFCURVE",
"27 258 OFFCURVE",
"27 164 CURVE SMOOTH",
"27 64 OFFCURVE",
"122 -5 OFFCURVE",
"264 -5 CURVE SMOOTH",
"354 -5 OFFCURVE",
"460 22 OFFCURVE",
"525 57 CURVE",
"496 144 LINE",
"448 119 OFFCURVE",
"358 94 OFFCURVE",
"289 94 CURVE SMOOTH",
"209 94 OFFCURVE",
"152 129 OFFCURVE",
"152 186 CURVE SMOOTH",
"152 258 OFFCURVE",
"232 314 OFFCURVE",
"332 314 CURVE SMOOTH",
"474 314 LINE",
"494 414 LINE",
"352 414 LINE SMOOTH",
"282 414 OFFCURVE",
"239 451 OFFCURVE",
"239 501 CURVE SMOOTH",
"239 570 OFFCURVE",
"313 606 OFFCURVE",
"404 606 CURVE SMOOTH",
"456 606 OFFCURVE",
"518 594 OFFCURVE",
"561 573 CURVE",
"617 660 LINE",
"573 687 OFFCURVE",
"488 705 OFFCURVE",
"418 705 CURVE SMOOTH"
);
}
);
width = 585;
}
);
leftKerningGroup = E.ss01;
leftMetricsKey = eight;
rightKerningGroup = E.ss01;
},
{
color = 1;
glyphname = Eogonek;
layers = (
{
background = {
paths = (
{
closed = 1;
nodes = (
"216 699 LINE",
"76 0 LINE",
"450 0 LINE",
"382 -75 OFFCURVE",
"362 -110 OFFCURVE",
"362 -144 CURVE SMOOTH",
"362 -177 OFFCURVE",
"383 -199 OFFCURVE",
"414 -199 CURVE SMOOTH",
"441 -199 OFFCURVE",
"473 -181 OFFCURVE",
"496 -159 CURVE",
"485 -145 LINE",
"463 -165 OFFCURVE",
"440 -179 OFFCURVE",
"418 -179 CURVE SMOOTH",
"397 -179 OFFCURVE",
"382 -166 OFFCURVE",
"382 -142 CURVE SMOOTH",
"382 -100 OFFCURVE",
"409 -66 OFFCURVE",
"470 0 CURVE",
"527 0 LINE",
"531 20 LINE",
"100 20 LINE",
"166 350 LINE",
"537 350 LINE",
"541 370 LINE",
"170 370 LINE",
"232 679 LINE",
"649 679 LINE",
"653 699 LINE"
);
}
);
};
components = (
{
name = E;
},
{
name = ogonek;
transform = "{1, 0, 0, 1, 400, 0}";
}
);
layerId = UUID0;
width = 644;
},
{
background = {
paths = (
{
closed = 1;
nodes = (
"135 701 LINE",
"-5 0 LINE",
"416 0 LINE",
"379 -43 OFFCURVE",
"347 -87 OFFCURVE",
"347 -134 CURVE SMOOTH",
"347 -188 OFFCURVE",
"391 -204 OFFCURVE",
"428 -204 CURVE SMOOTH",
"477 -204 OFFCURVE",
"525 -179 OFFCURVE",
"563 -128 CURVE",
"521 -64 LINE",
"506 -83 OFFCURVE",
"491 -94 OFFCURVE",
"478 -94 CURVE SMOOTH",
"471 -94 OFFCURVE",
"467 -90 OFFCURVE",
"467 -82 CURVE SMOOTH",
"467 -67 OFFCURVE",
"490 -36 OFFCURVE",
"521 0 CURVE",
"597 0 LINE",
"632 176 LINE",
"262 176 LINE",
"280 263 LINE",
"608 263 LINE",
"643 439 LINE",
"315 439 LINE",
"332 525 LINE",
"693 525 LINE",
"728 701 LINE"
);
}
);
};
components = (
{
name = E;
},
{
name = ogonek;
transform = "{1, 0, 0, 1, 350, 0}";
}
);
layerId = "5DA6E103-6A94-47F2-987D-4952DB8EA68E";
width = 690;
},
{
background = {
paths = (
{
closed = 1;
nodes = (
"179 700 LINE",
"39 0 LINE",
"435 0 LINE",
"381 -60 OFFCURVE",
"356 -99 OFFCURVE",
"356 -139 CURVE SMOOTH",
"356 -182 OFFCURVE",
"387 -201 OFFCURVE",
"421 -201 CURVE SMOOTH",
"458 -201 OFFCURVE",
"497 -180 OFFCURVE",
"528 -145 CURVE",
"502 -108 LINE",
"483 -127 OFFCURVE",
"464 -140 OFFCURVE",
"446 -140 CURVE SMOOTH",
"432 -140 OFFCURVE",
"422 -130 OFFCURVE",
"422 -114 CURVE SMOOTH",
"422 -91 OFFCURVE",
"440 -59 OFFCURVE",
"494 0 CURVE",
"560 0 LINE",
"578 92 LINE",
"175 92 LINE",
"219 310 LINE",
"570 310 LINE",
"588 402 LINE",
"237 402 LINE",
"278 608 LINE",
"669 608 LINE",
"688 700 LINE"
);
}
);
};
components = (
{
name = E;
},
{
name = ogonek;
transform = "{1, 0, 0, 1, 358, 0}";
}
);
layerId = "1C84A7F3-C40A-4DC1-B8B4-102D183C348F";
width = 656;
}
);
leftKerningGroup = H;
rightKerningGroup = E;
unicode = 0118;
},
{
color = 1;
glyphname = Eogonek.ss01;
layers = (
{
background = {
paths = (
{
closed = 1;
nodes = (
"260 699 OFFCURVE",
"142 615 OFFCURVE",
"142 506 CURVE SMOOTH",
"142 439 OFFCURVE",
"193 381 OFFCURVE",
"272 370 CURVE",
"148 357 OFFCURVE",
"44 268 OFFCURVE",
"44 163 CURVE SMOOTH",
"44 69 OFFCURVE",
"131 0 OFFCURVE",
"262 0 CURVE SMOOTH",
"329 0 OFFCURVE",
"419 21 OFFCURVE",
"472 49 CURVE",
"466 67 LINE",
"410 40 OFFCURVE",
"326 20 OFFCURVE",
"266 20 CURVE SMOOTH",
"145 20 OFFCURVE",
"64 81 OFFCURVE",
"64 166 CURVE SMOOTH",
"64 276 OFFCURVE",
"188 360 OFFCURVE",
"338 360 CURVE SMOOTH",
"447 360 LINE",
"451 380 LINE",
"342 380 LINE SMOOTH",
"234 380 OFFCURVE",
"162 433 OFFCURVE",
"162 508 CURVE SMOOTH",
"162 604 OFFCURVE",
"269 679 OFFCURVE",
"400 679 CURVE SMOOTH",
"454 679 OFFCURVE",
"517 665 OFFCURVE",
"550 646 CURVE",
"563 664 LINE",
"527 684 OFFCURVE",
"460 699 OFFCURVE",
"404 699 CURVE SMOOTH"
);
},
{
closed = 1;
nodes = (
"381 28 LINE",
"293 -62 OFFCURVE",
"268 -104 OFFCURVE",
"268 -144 CURVE SMOOTH",
"268 -177 OFFCURVE",
"289 -199 OFFCURVE",
"320 -199 CURVE SMOOTH",
"347 -199 OFFCURVE",
"378 -181 OFFCURVE",
"402 -159 CURVE",
"390 -145 LINE",
"368 -165 OFFCURVE",
"346 -179 OFFCURVE",
"324 -179 CURVE SMOOTH",
"302 -179 OFFCURVE",
"288 -166 OFFCURVE",
"288 -142 CURVE SMOOTH",
"288 -112 OFFCURVE",
"293 -79 OFFCURVE",
"407 32 CURVE"
);
}
);
};
components = (
{
name = E.ss01;
},
{
name = ogonekcomb.cueve;
transform = "{1, 0, 0, 1, 328, 0}";
}
);
layerId = UUID0;
width = 539;
},
{
background = {
paths = (
{
closed = 1;
nodes = (
"248 711 OFFCURVE",
"112 624 OFFCURVE",
"112 490 CURVE SMOOTH",
"112 440 OFFCURVE",
"132 391 OFFCURVE",
"168 369 CURVE",
"75 335 OFFCURVE",
"7 252 OFFCURVE",
"7 165 CURVE SMOOTH",
"7 58 OFFCURVE",
"111 -10 OFFCURVE",
"269 -10 CURVE SMOOTH",
"382 -10 OFFCURVE",
"508 23 OFFCURVE",
"585 67 CURVE",
"532 234 LINE",
"495 211 OFFCURVE",
"407 176 OFFCURVE",
"340 176 CURVE SMOOTH",
"292 176 OFFCURVE",
"257 195 OFFCURVE",
"257 224 CURVE SMOOTH",
"257 252 OFFCURVE",
"286 271 OFFCURVE",
"326 271 CURVE SMOOTH",
"508 271 LINE",
"541 438 LINE",
"359 438 LINE SMOOTH",
"338 438 OFFCURVE",
"325 453 OFFCURVE",
"325 470 CURVE SMOOTH",
"325 506 OFFCURVE",
"370 525 OFFCURVE",
"428 525 CURVE SMOOTH",
"475 525 OFFCURVE",
"525 511 OFFCURVE",
"573 487 CURVE",
"680 656 LINE",
"629 688 OFFCURVE",
"529 711 OFFCURVE",
"435 711 CURVE SMOOTH"
);
},
{
closed = 1;
nodes = (
"367 24 LINE",
"321 -24 OFFCURVE",
"276 -78 OFFCURVE",
"276 -134 CURVE SMOOTH",
"276 -188 OFFCURVE",
"320 -204 OFFCURVE",
"357 -204 CURVE SMOOTH",
"406 -204 OFFCURVE",
"454 -179 OFFCURVE",
"492 -128 CURVE",
"450 -64 LINE",
"435 -83 OFFCURVE",
"420 -94 OFFCURVE",
"407 -94 CURVE SMOOTH",
"400 -94 OFFCURVE",
"396 -90 OFFCURVE",
"396 -82 CURVE SMOOTH",
"396 -63 OFFCURVE",
"429 -22 OFFCURVE",
"472 24 CURVE"
);
}
);
};
components = (
{
name = E.ss01;
},
{
name = ogonekcomb.cueve;
transform = "{1, 0, 0, 1, 332, 0}";
}
);
layerId = "5DA6E103-6A94-47F2-987D-4952DB8EA68E";
width = 636;
},
{
background = {
paths = (
{
closed = 1;
nodes = (
"255 705 OFFCURVE",
"129 618 OFFCURVE",
"129 500 CURVE SMOOTH",
"129 438 OFFCURVE",
"166 386 OFFCURVE",
"224 370 CURVE",
"111 346 OFFCURVE",
"27 258 OFFCURVE",
"27 164 CURVE SMOOTH",
"27 64 OFFCURVE",
"122 -5 OFFCURVE",
"264 -5 CURVE SMOOTH",
"354 -5 OFFCURVE",
"460 22 OFFCURVE",
"525 57 CURVE",
"496 144 LINE",
"448 119 OFFCURVE",
"358 94 OFFCURVE",
"289 94 CURVE SMOOTH",
"209 94 OFFCURVE",
"152 129 OFFCURVE",
"152 186 CURVE SMOOTH",
"152 258 OFFCURVE",
"232 314 OFFCURVE",
"332 314 CURVE SMOOTH",
"474 314 LINE",
"494 414 LINE",
"352 414 LINE SMOOTH",
"282 414 OFFCURVE",
"239 451 OFFCURVE",
"239 501 CURVE SMOOTH",
"239 570 OFFCURVE",
"313 606 OFFCURVE",
"404 606 CURVE SMOOTH",
"456 606 OFFCURVE",
"518 594 OFFCURVE",
"561 573 CURVE",
"617 660 LINE",
"573 687 OFFCURVE",
"488 705 OFFCURVE",
"418 705 CURVE SMOOTH"
);
},
{
closed = 1;
nodes = (
"363 13 LINE",
"304 -50 OFFCURVE",
"273 -95 OFFCURVE",
"273 -139 CURVE SMOOTH",
"273 -182 OFFCURVE",
"304 -201 OFFCURVE",
"338 -201 CURVE SMOOTH",
"374 -201 OFFCURVE",
"414 -180 OFFCURVE",
"444 -145 CURVE",
"419 -108 LINE",
"400 -127 OFFCURVE",
"380 -140 OFFCURVE",
"362 -140 CURVE SMOOTH",
"348 -140 OFFCURVE",
"338 -130 OFFCURVE",
"338 -114 CURVE SMOOTH",
"338 -83 OFFCURVE",
"372 -37 OFFCURVE",
"447 40 CURVE"
);
}
);
};
components = (
{
name = E.ss01;
},
{
name = ogonekcomb.cueve;
transform = "{1, 0, 0, 1, 315, 0}";
}
);
layerId = "1C84A7F3-C40A-4DC1-B8B4-102D183C348F";
width = 585;
}
);
leftKerningGroup = Eogonek.ss01;
rightKerningGroup = Eogonek.ss01;
},
{
color = 1;
glyphname = F;
layers = (
{
layerId = UUID0;
paths = (
{
closed = 1;
nodes = (
"216 699 LINE",
"76 0 LINE",
"96 0 LINE",
"161 323 LINE",
"502 323 LINE",
"506 343 LINE",
"165 343 LINE",
"232 679 LINE",
"619 679 LINE",
"623 699 LINE"
);
}
);
width = 545;
},
{
layerId = "5DA6E103-6A94-47F2-987D-4952DB8EA68E";
paths = (
{
closed = 1;
nodes = (
"135 701 LINE",
"-5 0 LINE",
"227 0 LINE",
"273 228 LINE",
"584 228 LINE",
"619 404 LINE",
"308 404 LINE",
"332 525 LINE",
"664 525 LINE",
"699 701 LINE"
);
}
);
width = 631;
},
{
layerId = "1C84A7F3-C40A-4DC1-B8B4-102D183C348F";
paths = (
{
closed = 1;
nodes = (
"179 700 LINE",
"39 0 LINE",
"157 0 LINE",
"215 291 LINE",
"533 291 LINE",
"553 391 LINE",
"235 391 LINE",
"276 599 LINE",
"627 599 LINE",
"648 700 LINE"
);
}
);
width = 574;
}
);
leftKerningGroup = H;
rightKerningGroup = F;
unicode = 0046;
},
{
color = 1;
glyphname = F.ss01;
layers = (
{
layerId = UUID0;
paths = (
{
closed = 1;
nodes = (
"77 0 LINE",
"177 501 LINE",
"198 608 OFFCURVE",
"282 679 OFFCURVE",
"387 679 CURVE",
"440 679 OFFCURVE",
"501 663 OFFCURVE",
"543 639 CURVE",
"555 659 LINE",
"508 683 OFFCURVE",
"448 699 OFFCURVE",
"387 699 CURVE",
"272 699 OFFCURVE",
"182 623 OFFCURVE",
"159 503 CURVE",
"58 0 LINE"
);
},
{
closed = 1;
nodes = (
"141 342 LINE",
"137 322 LINE",
"435 322 LINE",
"439 342 LINE"
);
}
);
width = 490;
},
{
layerId = "5DA6E103-6A94-47F2-987D-4952DB8EA68E";
paths = (
{
closed = 1;
nodes = (
"218 0 LINE",
"306 440 LINE SMOOTH",
"314 482 OFFCURVE",
"357 518 OFFCURVE",
"405 518 CURVE SMOOTH",
"454 518 OFFCURVE",
"528 501 OFFCURVE",
"584 476 CURVE",
"662 659 LINE",
"603 688 OFFCURVE",
"501 711 OFFCURVE",
"395 711 CURVE SMOOTH",
"230 711 OFFCURVE",
"109 619 OFFCURVE",
"78 463 CURVE SMOOTH",
"-15 0 LINE"
);
},
{
closed = 1;
nodes = (
"111 405 LINE",
"76 229 LINE SMOOTH",
"515 229 LINE",
"550 405 LINE"
);
}
);
width = 575;
},
{
layerId = "1C84A7F3-C40A-4DC1-B8B4-102D183C348F";
paths = (
{
closed = 1;
nodes = (
"143 0 LINE",
"237 473 LINE",
"252 550 OFFCURVE",
"316 605 OFFCURVE",
"395 605 CURVE",
"446 605 OFFCURVE",
"514 589 OFFCURVE",
"562 564 CURVE",
"605 659 LINE",
"553 685 OFFCURVE",
"473 705 OFFCURVE",
"391 705 CURVE",
"253 705 OFFCURVE",
"149 621 OFFCURVE",
"122 484 CURVE",
"25 0 LINE"
);
},
{
closed = 1;
nodes = (
"129 375 LINE",
"109 275 LINE",
"471 275 LINE",
"491 375 LINE"
);
}
);
width = 529;
}
);
leftKerningGroup = F.ss01;
leftMetricsKey = U;
rightKerningGroup = F.ss01;
},
{
color = 1;
glyphname = G;
layers = (
{
anchors = (
{
name = bottom;
position = "{365, 0}";
},
{
name = top;
position = "{434, 699}";
}
);
layerId = UUID0;
paths = (
{
closed = 1;
nodes = (
"266 699 OFFCURVE",
"89 542 OFFCURVE",
"70 351 CURVE SMOOTH",
"51 158 OFFCURVE",
"197 0 OFFCURVE",
"395 0 CURVE SMOOTH",
"486 0 OFFCURVE",
"562 35 OFFCURVE",
"632 91 CURVE",
"620 104 LINE",
"555 51 OFFCURVE",
"483 19 OFFCURVE",
"395 19 CURVE SMOOTH",
"209 19 OFFCURVE",
"71 168 OFFCURVE",
"89 349 CURVE SMOOTH",
"107 532 OFFCURVE",
"274 680 OFFCURVE",
"462 680 CURVE SMOOTH",
"548 680 OFFCURVE",
"625 649 OFFCURVE",
"680 596 CURVE",
"694 609 LINE",
"636 665 OFFCURVE",
"555 699 OFFCURVE",
"462 699 CURVE SMOOTH"
);
},
{
closed = 1;
nodes = (
"661 343 LINE",
"612 91 LINE",
"632 91 LINE",
"681 343 LINE"
);
}
);
width = 775;
},
{
anchors = (
{
name = bottom;
position = "{380, 0}";
},
{
name = top;
position = "{450, 701}";
}
);
layerId = "5DA6E103-6A94-47F2-987D-4952DB8EA68E";
paths = (
{
closed = 1;
nodes = (
"221 708 OFFCURVE",
"32 542 OFFCURVE",
"32 318 CURVE SMOOTH",
"32 128 OFFCURVE",
"172 -10 OFFCURVE",
"378 -10 CURVE SMOOTH",
"478 -10 OFFCURVE",
"597 28 OFFCURVE",
"680 80 CURVE",
"581 243 LINE",
"527 208 OFFCURVE",
"454 183 OFFCURVE",
"413 183 CURVE SMOOTH",
"329 183 OFFCURVE",
"271 246 OFFCURVE",
"271 334 CURVE SMOOTH",
"271 437 OFFCURVE",
"348 515 OFFCURVE",
"444 515 CURVE SMOOTH",
"502 515 OFFCURVE",
"567 486 OFFCURVE",
"610 441 CURVE",
"757 600 LINE",
"688 666 OFFCURVE",
"573 708 OFFCURVE",
"464 708 CURVE SMOOTH"
);
},
{
closed = 1;
nodes = (
"538 369 LINE",
"481 80 LINE",
"680 80 LINE",
"737 369 LINE"
);
}
);
width = 744;
},
{
anchors = (
{
name = bottom;
position = "{372, 0}";
},
{
name = top;
position = "{441, 700}";
}
);
background = {
paths = (
{
closed = 1;
nodes = (
"239 703 OFFCURVE",
"52 534 OFFCURVE",
"52 321 CURVE SMOOTH",
"52 137 OFFCURVE",
"192 -5 OFFCURVE",
"387 -5 CURVE SMOOTH",
"483 -5 OFFCURVE",
"591 32 OFFCURVE",
"668 86 CURVE",
"608 168 LINE",
"547 123 OFFCURVE",
"470 95 OFFCURVE",
"405 95 CURVE SMOOTH",
"270 95 OFFCURVE",
"172 197 OFFCURVE",
"172 328 CURVE SMOOTH",
"172 481 OFFCURVE",
"302 604 OFFCURVE",
"454 604 CURVE SMOOTH",
"527 604 OFFCURVE",
"599 574 OFFCURVE",
"648 524 CURVE",
"723 605 LINE",
"660 665 OFFCURVE",
"564 703 OFFCURVE",
"464 703 CURVE SMOOTH"
);
},
{
closed = 1;
nodes = (
"590 342 LINE",
"565 86 LINE",
"668 86 LINE",
"693 342 LINE"
);
}
);
};
layerId = "1C84A7F3-C40A-4DC1-B8B4-102D183C348F";
paths = (
{
closed = 1;
nodes = (
"239 703 OFFCURVE",
"52 534 OFFCURVE",
"52 321 CURVE SMOOTH",
"52 137 OFFCURVE",
"192 -5 OFFCURVE",
"387 -5 CURVE SMOOTH",
"483 -5 OFFCURVE",
"578 32 OFFCURVE",
"655 86 CURVE",
"603 168 LINE",
"542 123 OFFCURVE",
"470 95 OFFCURVE",
"405 95 CURVE SMOOTH",
"270 95 OFFCURVE",
"172 197 OFFCURVE",
"172 328 CURVE SMOOTH",
"172 481 OFFCURVE",
"302 604 OFFCURVE",
"454 604 CURVE SMOOTH",
"527 604 OFFCURVE",
"599 574 OFFCURVE",
"648 524 CURVE",
"723 605 LINE",
"660 665 OFFCURVE",
"564 703 OFFCURVE",
"464 703 CURVE SMOOTH"
);
},
{
closed = 1;
nodes = (
"603 342 LINE",
"552 86 LINE",
"655 86 LINE",
"706 342 LINE"
);
}
);
width = 762;
}
);
leftKerningGroup = O;
rightKerningGroup = G;
unicode = 0047;
},
{
color = 1;
glyphname = G.ss01;
layers = (
{
anchors = (
{
name = bottom;
position = "{367, 0}";
},
{
name = top;
position = "{436, 699}";
}
);
background = {
paths = (
{
closed = 1;
nodes = (
"232 699 OFFCURVE",
"70 542 OFFCURVE",
"70 350 CURVE SMOOTH",
"70 158 OFFCURVE",
"232 0 OFFCURVE",
"429 0 CURVE SMOOTH",
"521 0 OFFCURVE",
"606 39 OFFCURVE",
"670 101 CURVE",
"656 114 LINE",
"596 55 OFFCURVE",
"516 19 OFFCURVE",
"429 19 CURVE SMOOTH",
"242 19 OFFCURVE",
"89 168 OFFCURVE",
"89 350 CURVE SMOOTH",
"89 532 OFFCURVE",
"242 680 OFFCURVE",
"429 680 CURVE SMOOTH",
"516 680 OFFCURVE",
"596 649 OFFCURVE",
"656 596 CURVE",
"669 609 LINE",
"605 665 OFFCURVE",
"521 699 OFFCURVE",
"429 699 CURVE SMOOTH"
);
},
{
closed = 1;
nodes = (
"650 343 LINE",
"650 87 LINE",
"650 83 LINE",
"650 0 LINE",
"670 0 LINE",
"670 343 LINE"
);
}
);
};
layerId = UUID0;
paths = (
{
closed = 1;
nodes = (
"256 699 OFFCURVE",
"70 528 OFFCURVE",
"70 323 CURVE SMOOTH",
"70 145 OFFCURVE",
"211 0 OFFCURVE",
"397 0 CURVE SMOOTH",
"488 0 OFFCURVE",
"570 39 OFFCURVE",
"640 101 CURVE",
"628 114 LINE",
"563 55 OFFCURVE",
"485 19 OFFCURVE",
"397 19 CURVE SMOOTH",
"222 19 OFFCURVE",
"89 155 OFFCURVE",
"89 323 CURVE SMOOTH",
"89 518 OFFCURVE",
"266 680 OFFCURVE",
"464 680 CURVE SMOOTH",
"551 680 OFFCURVE",
"628 649 OFFCURVE",
"682 596 CURVE",
"696 609 LINE",
"638 665 OFFCURVE",
"557 699 OFFCURVE",
"464 699 CURVE SMOOTH"
);
},
{
closed = 1;
nodes = (
"668 343 LINE",
"617 87 LINE",
"616 83 LINE",
"600 0 LINE",
"620 0 LINE",
"688 343 LINE"
);
}
);
width = 782;
},
{
anchors = (
{
name = bottom;
position = "{355, 0}";
},
{
name = top;
position = "{425, 701}";
}
);
background = {
paths = (
{
closed = 1;
nodes = (
"237 708 OFFCURVE",
"48 542 OFFCURVE",
"48 318 CURVE SMOOTH",
"48 128 OFFCURVE",
"188 -10 OFFCURVE",
"394 -10 CURVE SMOOTH",
"494 -10 OFFCURVE",
"613 28 OFFCURVE",
"696 80 CURVE",
"597 243 LINE",
"543 208 OFFCURVE",
"470 183 OFFCURVE",
"429 183 CURVE SMOOTH",
"345 183 OFFCURVE",
"287 246 OFFCURVE",
"287 334 CURVE SMOOTH",
"287 437 OFFCURVE",
"364 515 OFFCURVE",
"460 515 CURVE SMOOTH",
"518 515 OFFCURVE",
"583 486 OFFCURVE",
"626 441 CURVE",
"773 600 LINE",
"704 666 OFFCURVE",
"589 708 OFFCURVE",
"480 708 CURVE SMOOTH"
);
},
{
closed = 1;
nodes = (
"554 369 LINE",
"497 80 LINE",
"696 80 LINE",
"753 369 LINE"
);
}
);
};
layerId = "5DA6E103-6A94-47F2-987D-4952DB8EA68E";
paths = (
{
closed = 1;
nodes = (
"219 708 OFFCURVE",
"31 542 OFFCURVE",
"31 316 CURVE SMOOTH",
"31 127 OFFCURVE",
"160 -10 OFFCURVE",
"351 -10 CURVE SMOOTH",
"459 -10 OFFCURVE",
"569 62 OFFCURVE",
"640 160 CURVE",
"555 283 LINE",
"525 225 OFFCURVE",
"459 183 OFFCURVE",
"398 183 CURVE SMOOTH",
"321 183 OFFCURVE",
"270 245 OFFCURVE",
"270 332 CURVE SMOOTH",
"270 437 OFFCURVE",
"347 515 OFFCURVE",
"443 515 CURVE SMOOTH",
"501 515 OFFCURVE",
"567 486 OFFCURVE",
"609 441 CURVE",
"756 600 LINE",
"686 666 OFFCURVE",
"569 708 OFFCURVE",
"459 708 CURVE SMOOTH"
);
},
{
closed = 1;
nodes = (
"541 369 LINE",
"493 123 LINE",
"518 98 LINE",
"498 0 LINE",
"667 0 LINE",
"740 369 LINE"
);
}
);
width = 747;
},
{
anchors = (
{
name = bottom;
position = "{361, 0}";
},
{
name = top;
position = "{430, 700}";
}
);
layerId = "1C84A7F3-C40A-4DC1-B8B4-102D183C348F";
paths = (
{
closed = 1;
nodes = (
"239 703 OFFCURVE",
"52 534 OFFCURVE",
"52 320 CURVE SMOOTH",
"52 137 OFFCURVE",
"187 -5 OFFCURVE",
"376 -5 CURVE SMOOTH",
"475 -5 OFFCURVE",
"574 50 OFFCURVE",
"640 128 CURVE",
"595 192 LINE",
"548 133 OFFCURVE",
"473 95 OFFCURVE",
"398 95 CURVE SMOOTH",
"267 95 OFFCURVE",
"172 196 OFFCURVE",
"172 328 CURVE SMOOTH",
"172 481 OFFCURVE",
"303 604 OFFCURVE",
"454 604 CURVE SMOOTH",
"528 604 OFFCURVE",
"599 574 OFFCURVE",
"648 524 CURVE",
"724 605 LINE",
"660 665 OFFCURVE",
"563 703 OFFCURVE",
"463 703 CURVE SMOOTH"
);
},
{
closed = 1;
nodes = (
"609 355 LINE",
"559 104 LINE",
"570 90 LINE",
"553 0 LINE",
"642 0 LINE",
"712 355 LINE"
);
}
);
width = 766;
}
);
leftKerningGroup = O;
leftMetricsKey = O;
rightKerningGroup = G;
},
{
color = 1;
glyphname = H;
layers = (
{
anchors = (
{
name = bottom;
position = "{348, 0}";
},
{
name = center;
position = "{418, 350}";
},
{
name = top;
position = "{488, 699}";
},
{
name = topleft;
position = "{108, 699}";
}
);
layerId = UUID0;
paths = (
{
closed = 1;
nodes = (
"739 699 LINE",
"672 363 LINE",
"169 363 LINE",
"236 699 LINE",
"216 699 LINE",
"76 0 LINE",
"96 0 LINE",
"165 343 LINE",
"668 343 LINE",
"599 0 LINE",
"619 0 LINE",
"759 699 LINE"
);
}
);
width = 799;
},
{
anchors = (
{
name = bottom;
position = "{336, 0}";
},
{
name = center;
position = "{406, 351}";
},
{
name = top;
position = "{476, 701}";
},
{
name = topleft;
position = "{105, 701}";
}
);
layerId = "5DA6E103-6A94-47F2-987D-4952DB8EA68E";
paths = (
{
closed = 1;
nodes = (
"584 701 LINE",
"530 429 LINE",
"313 429 LINE",
"367 701 LINE",
"135 701 LINE",
"-5 0 LINE",
"227 0 LINE",
"278 253 LINE",
"495 253 LINE",
"444 0 LINE",
"676 0 LINE",
"816 701 LINE"
);
}
);
width = 781;
},
{
anchors = (
{
name = bottom;
position = "{343, 0}";
},
{
name = center;
position = "{413, 350}";
},
{
name = top;
position = "{483, 700}";
},
{
name = topleft;
position = "{107, 700}";
}
);
layerId = "1C84A7F3-C40A-4DC1-B8B4-102D183C348F";
paths = (
{
closed = 1;
nodes = (
"668 700 LINE",
"606 393 LINE",
"235 393 LINE",
"297 700 LINE",
"179 700 LINE",
"39 0 LINE",
"157 0 LINE",
"215 293 LINE",
"586 293 LINE",
"528 0 LINE",
"646 0 LINE",
"786 700 LINE"
);
}
);
width = 791;
}
);
leftKerningGroup = H;
rightKerningGroup = H;
unicode = 0048;
},
{
color = 0;
glyphname = Hbar;
layers = (
{
background = {
components = (
{
name = H;
transform = "{1, 0, 0, 1, 10, 0}";
}
);
paths = (
{
closed = 1;
nodes = (
"116 547 LINE",
"112 527 LINE",
"815 527 LINE",
"819 547 LINE"
);
}
);
};
components = (
{
name = H;
transform = "{1, 0, 0, 1, 10, 0}";
}
);
layerId = UUID0;
paths = (
{
closed = 1;
nodes = (
"116 547 LINE",
"112 527 LINE",
"815 527 LINE",
"819 547 LINE"
);
}
);
width = 819;
},
{
background = {
paths = (
{
closed = 1;
nodes = (
"91 630 LINE",
"67 509 LINE",
"908 509 LINE",
"932 630 LINE"
);
}
);
};
components = (
{
name = H;
transform = "{1, 0, 0, 1, 50, 0}";
}
);
layerId = "5DA6E103-6A94-47F2-987D-4952DB8EA68E";
paths = (
{
closed = 1;
nodes = (
"87 611 LINE",
"68 513 LINE",
"909 513 LINE",
"928 610 LINE"
);
}
);
width = 881;
},
{
components = (
{
name = H;
transform = "{1, 0, 0, 1, 30, 0}";
}
);
layerId = "1C84A7F3-C40A-4DC1-B8B4-102D183C348F";
paths = (
{
closed = 1;
nodes = (
"96 590 LINE",
"83 524 LINE",
"870 524 LINE",
"883 590 LINE"
);
}
);
width = 851;
}
);
leftKerningGroup = H;
rightKerningGroup = H;
unicode = 0126;
},
{
color = 1;
glyphname = I;
layers = (
{
anchors = (
{
name = bottom;
position = "{86, 0}";
},
{
name = ogonek;
position = "{95, 0}";
},
{
name = top;
position = "{226, 699}";
}
);
layerId = UUID0;
paths = (
{
closed = 1;
nodes = (
"215 699 LINE",
"75 0 LINE",
"95 0 LINE",
"235 699 LINE"
);
}
);
width = 276;
},
{
anchors = (
{
name = bottom;
position = "{110, 0}";
},
{
name = ogonek;
position = "{182, 0}";
},
{
name = top;
position = "{246, 701}";
}
);
layerId = "5DA6E103-6A94-47F2-987D-4952DB8EA68E";
paths = (
{
closed = 1;
nodes = (
"135 701 LINE",
"-5 0 LINE",
"227 0 LINE",
"367 701 LINE"
);
}
);
width = 332;
},
{
anchors = (
{
name = bottom;
position = "{98, 0}";
},
{
name = ogonek;
position = "{157, 0}";
},
{
name = top;
position = "{238, 700}";
}
);
layerId = "1C84A7F3-C40A-4DC1-B8B4-102D183C348F";
paths = (
{
closed = 1;
nodes = (
"179 700 LINE",
"39 0 LINE",
"157 0 LINE",
"297 700 LINE"
);
}
);
width = 302;
}
);
leftKerningGroup = H;
rightKerningGroup = H;
unicode = 0049;
},
{
color = 1;
glyphname = I.ss01;
layers = (
{
anchors = (
{
name = bottom;
position = "{172, 0}";
},
{
name = ogonek;
position = "{182, 0}";
},
{
name = top;
position = "{312, 699}";
}
);
layerId = UUID0;
paths = (
{
closed = 1;
nodes = (
"144 679 LINE",
"472 679 LINE",
"476 699 LINE",
"148 699 LINE"
);
},
{
closed = 1;
nodes = (
"8 0 LINE",
"336 0 LINE",
"340 20 LINE",
"12 20 LINE"
);
},
{
closed = 1;
nodes = (
"302 699 LINE",
"162 0 LINE",
"182 0 LINE",
"322 699 LINE"
);
}
);
width = 448;
},
{
anchors = (
{
name = bottom;
position = "{212, 0}";
},
{
name = ogonek;
position = "{279, 0}";
},
{
name = top;
position = "{348, 701}";
}
);
layerId = "5DA6E103-6A94-47F2-987D-4952DB8EA68E";
paths = (
{
closed = 1;
nodes = (
"91 525 LINE",
"535 525 LINE",
"570 701 LINE",
"126 701 LINE"
);
},
{
closed = 1;
nodes = (
"-14 0 LINE",
"430 0 LINE",
"465 176 LINE",
"21 176 LINE"
);
},
{
closed = 1;
nodes = (
"232 701 LINE",
"92 0 LINE",
"324 0 LINE",
"464 701 LINE"
);
}
);
width = 525;
},
{
anchors = (
{
name = bottom;
position = "{193, 0}";
},
{
name = ogonek;
position = "{248, 0}";
},
{
name = top;
position = "{329, 700}";
}
);
layerId = "1C84A7F3-C40A-4DC1-B8B4-102D183C348F";
paths = (
{
closed = 1;
nodes = (
"118 599 LINE",
"500 599 LINE",
"520 700 LINE",
"138 700 LINE"
);
},
{
closed = 1;
nodes = (
"-2 0 LINE",
"380 0 LINE",
"400 101 LINE",
"18 101 LINE"
);
},
{
closed = 1;
nodes = (
"270 700 LINE",
"130 0 LINE",
"248 0 LINE",
"388 700 LINE"
);
}
);
width = 484;
}
);
leftKerningGroup = I.ss01;
rightKerningGroup = I.ss01;
},
{
color = 1;
glyphname = Iogonek;
layers = (
{
background = {
paths = (
{
closed = 1;
nodes = (
"112 -145 LINE",
"90 -165 OFFCURVE",
"67 -179 OFFCURVE",
"45 -179 CURVE SMOOTH",
"24 -179 OFFCURVE",
"9 -166 OFFCURVE",
"9 -142 CURVE SMOOTH",
"9 -100 OFFCURVE",
"35 -66 OFFCURVE",
"96 0 CURVE",
"97 0 LINE",
"237 699 LINE",
"217 699 LINE",
"78 4 LINE",
"79 4 LINE",
"12 -69 OFFCURVE",
"-11 -110 OFFCURVE",
"-11 -144 CURVE SMOOTH",
"-11 -177 OFFCURVE",
"10 -199 OFFCURVE",
"41 -199 CURVE SMOOTH",
"68 -199 OFFCURVE",
"100 -181 OFFCURVE",
"123 -159 CURVE"
);
}
);
};
components = (
{
name = I;
},
{
name = ogonek;
transform = "{1, 0, 0, 1, -32, 0}";
}
);
layerId = UUID0;
width = 276;
},
{
background = {
paths = (
{
closed = 1;
nodes = (
"176 -64 LINE",
"161 -83 OFFCURVE",
"146 -94 OFFCURVE",
"133 -94 CURVE SMOOTH",
"126 -94 OFFCURVE",
"122 -90 OFFCURVE",
"122 -82 CURVE SMOOTH",
"122 -67 OFFCURVE",
"145 -36 OFFCURVE",
"176 0 CURVE",
"227 0 LINE",
"367 701 LINE",
"135 701 LINE",
"-5 0 LINE",
"71 0 LINE",
"34 -43 OFFCURVE",
"2 -87 OFFCURVE",
"2 -134 CURVE SMOOTH",
"2 -188 OFFCURVE",
"46 -204 OFFCURVE",
"83 -204 CURVE SMOOTH",
"132 -204 OFFCURVE",
"180 -179 OFFCURVE",
"218 -128 CURVE"
);
}
);
};
components = (
{
name = I;
},
{
name = ogonek;
transform = "{1, 0, 0, 1, -65, 0}";
}
);
layerId = "5DA6E103-6A94-47F2-987D-4952DB8EA68E";
width = 332;
},
{
background = {
paths = (
{
closed = 1;
nodes = (
"142 -108 LINE",
"123 -127 OFFCURVE",
"105 -140 OFFCURVE",
"86 -140 CURVE SMOOTH",
"71 -140 OFFCURVE",
"62 -131 OFFCURVE",
"62 -115 CURVE SMOOTH",
"62 -90 OFFCURVE",
"84 -56 OFFCURVE",
"134 0 CURVE",
"158 0 LINE",
"298 700 LINE",
"180 700 LINE",
"40 0 LINE",
"75 0 LINE",
"24 -57 OFFCURVE",
"-4 -98 OFFCURVE",
"-4 -139 CURVE SMOOTH",
"-4 -182 OFFCURVE",
"27 -201 OFFCURVE",
"62 -201 CURVE SMOOTH",
"99 -201 OFFCURVE",
"138 -180 OFFCURVE",
"168 -145 CURVE"
);
}
);
};
components = (
{
name = I;
},
{
name = ogonek;
transform = "{1, 0, 0, 1, -36, 0}";
}
);
layerId = "1C84A7F3-C40A-4DC1-B8B4-102D183C348F";
width = 302;
}
);
leftKerningGroup = H;
rightKerningGroup = H;
unicode = 012E;
},
{
color = 1;
glyphname = J;
layers = (
{
anchors = (
{
name = top;
position = "{292, 699}";
}
);
layerId = UUID0;
paths = (
{
closed = 1;
nodes = (
"155 699 LINE",
"151 679 LINE",
"413 679 LINE",
"317 197 LINE",
"294 82 OFFCURVE",
"227 20 OFFCURVE",
"129 20 CURVE",
"66 20 OFFCURVE",
"17 52 OFFCURVE",
"-12 112 CURVE",
"-29 98 LINE",
"2 35 OFFCURVE",
"57 0 OFFCURVE",
"125 0 CURVE",
"236 0 OFFCURVE",
"311 70 OFFCURVE",
"337 197 CURVE",
"437 699 LINE"
);
}
);
width = 459;
},
{
anchors = (
{
name = top;
position = "{377, 701}";
}
);
layerId = "5DA6E103-6A94-47F2-987D-4952DB8EA68E";
paths = (
{
closed = 1;
nodes = (
"144 701 LINE",
"107 518 LINE",
"345 518 LINE",
"290 242 LINE SMOOTH",
"282 202 OFFCURVE",
"257 183 OFFCURVE",
"225 183 CURVE SMOOTH",
"190 183 OFFCURVE",
"139 207 OFFCURVE",
"95 262 CURVE",
"-40 112 LINE",
"15 34 OFFCURVE",
"96 -10 OFFCURVE",
"209 -10 CURVE SMOOTH",
"370 -10 OFFCURVE",
"491 80 OFFCURVE",
"522 237 CURVE SMOOTH",
"615 701 LINE"
);
}
);
width = 570;
},
{
anchors = (
{
name = top;
position = "{325, 700}";
}
);
layerId = "1C84A7F3-C40A-4DC1-B8B4-102D183C348F";
paths = (
{
closed = 1;
nodes = (
"148 700 LINE",
"128 599 LINE",
"370 599 LINE",
"294 218 LINE",
"279 144 OFFCURVE",
"234 104 OFFCURVE",
"171 104 CURVE",
"123 104 OFFCURVE",
"73 131 OFFCURVE",
"37 181 CURVE",
"-36 95 LINE",
"3 32 OFFCURVE",
"66 -5 OFFCURVE",
"150 -5 CURVE",
"285 -5 OFFCURVE",
"384 75 OFFCURVE",
"412 215 CURVE",
"509 700 LINE"
);
}
);
width = 499;
}
);
leftKerningGroup = J;
rightKerningGroup = U;
unicode = 004A;
},
{
color = 1;
glyphname = J.ss01;
layers = (
{
anchors = (
{
name = top;
position = "{317, 699}";
}
);
layerId = UUID0;
paths = (
{
closed = 1;
nodes = (
"155 699 LINE",
"151 679 LINE",
"413 679 LINE",
"297 98 LINE",
"274 -17 OFFCURVE",
"206 -80 OFFCURVE",
"107 -80 CURVE",
"45 -80 OFFCURVE",
"-4 -49 OFFCURVE",
"-33 11 CURVE",
"-49 -1 LINE",
"-18 -64 OFFCURVE",
"38 -100 OFFCURVE",
"107 -100 CURVE",
"217 -100 OFFCURVE",
"290 -31 OFFCURVE",
"315 96 CURVE",
"436 699 LINE"
);
}
);
width = 458;
},
{
anchors = (
{
name = top;
position = "{368, 701}";
}
);
layerId = "5DA6E103-6A94-47F2-987D-4952DB8EA68E";
paths = (
{
closed = 1;
nodes = (
"141 701 LINE",
"105 518 LINE",
"344 518 LINE",
"270 151 LINE SMOOTH",
"262 111 OFFCURVE",
"228 83 OFFCURVE",
"190 83 CURVE SMOOTH",
"161 83 OFFCURVE",
"110 101 OFFCURVE",
"66 156 CURVE",
"-59 18 LINE",
"-1 -60 OFFCURVE",
"80 -110 OFFCURVE",
"199 -110 CURVE SMOOTH",
"354 -110 OFFCURVE",
"466 -29 OFFCURVE",
"498 128 CURVE SMOOTH",
"612 701 LINE"
);
}
);
width = 567;
},
{
anchors = (
{
name = top;
position = "{341, 700}";
}
);
layerId = "1C84A7F3-C40A-4DC1-B8B4-102D183C348F";
paths = (
{
closed = 1;
nodes = (
"147 700 LINE",
"127 599 LINE",
"369 599 LINE",
"274 123 LINE",
"259 49 OFFCURVE",
"210 4 OFFCURVE",
"143 4 CURVE",
"99 4 OFFCURVE",
"50 28 OFFCURVE",
"14 78 CURVE",
"-55 -2 LINE",
"-15 -65 OFFCURVE",
"48 -105 OFFCURVE",
"135 -105 CURVE",
"267 -105 OFFCURVE",
"362 -30 OFFCURVE",
"390 110 CURVE",
"508 700 LINE"
);
}
);
width = 498;
}
);
leftKerningGroup = J.ss01;
leftMetricsKey = J;
rightKerningGroup = J.ss01;
rightMetricsKey = J;
},
{
color = 1;
glyphname = K;
layers = (
{
anchors = (
{
name = bottom;
position = "{283, 0}";
},
{
name = top;
position = "{423, 699}";
}
);
background = {
paths = (
{
closed = 1;
nodes = (
"678 699 LINE",
"140 220 LINE",
"236 699 LINE",
"216 699 LINE",
"76 0 LINE",
"96 0 LINE",
"134 191 LINE",
"706 699 LINE"
);
},
{
closed = 1;
nodes = (
"331 376 LINE",
"561 0 LINE",
"588 0 LINE",
"347 394 LINE"
);
}
);
};
layerId = UUID0;
paths = (
{
closed = 1;
nodes = (
"676 699 LINE",
"141 222 LINE",
"236 699 LINE",
"216 699 LINE",
"76 0 LINE",
"96 0 LINE",
"133 188 LINE",
"706 699 LINE"
);
},
{
closed = 1;
nodes = (
"334 376 LINE",
"564 0 LINE",
"588 0 LINE",
"347 394 LINE"
);
}
);
width = 670;
},
{
anchors = (
{
name = bottom;
position = "{318, 0}";
},
{
name = top;
position = "{458, 701}";
}
);
background = {
paths = (
{
closed = 1;
nodes = (
"576 701 LINE",
"319 458 LINE",
"367 701 LINE",
"135 701 LINE",
"-5 0 LINE",
"227 0 LINE",
"260 165 LINE",
"843 701 LINE"
);
},
{
closed = 1;
nodes = (
"334 262 LINE",
"441 0 LINE",
"718 0 LINE",
"526 444 LINE"
);
}
);
};
layerId = "5DA6E103-6A94-47F2-987D-4952DB8EA68E";
paths = (
{
closed = 1;
nodes = (
"571 701 LINE",
"319 458 LINE",
"367 701 LINE",
"135 701 LINE",
"-5 0 LINE",
"227 0 LINE",
"257 148 LINE",
"847 701 LINE"
);
},
{
closed = 1;
nodes = (
"338 262 LINE",
"445 0 LINE",
"714 0 LINE",
"522 444 LINE"
);
}
);
width = 769;
},
{
anchors = (
{
name = bottom;
position = "{300, 0}";
},
{
name = top;
position = "{439, 700}";
}
);
background = {
paths = (
{
closed = 1;
nodes = (
"631 700 LINE",
"223 330 LINE",
"297 700 LINE",
"179 700 LINE",
"39 0 LINE",
"157 0 LINE",
"193 179 LINE",
"769 700 LINE"
);
},
{
closed = 1;
nodes = (
"333 323 LINE",
"506 0 LINE",
"648 0 LINE",
"430 417 LINE"
);
}
);
};
layerId = "1C84A7F3-C40A-4DC1-B8B4-102D183C348F";
paths = (
{
closed = 1;
nodes = (
"626 700 LINE",
"223 330 LINE",
"297 700 LINE",
"179 700 LINE",
"39 0 LINE",
"157 0 LINE",
"188 161 LINE",
"775 700 LINE"
);
},
{
closed = 1;
nodes = (
"336 323 LINE",
"509 0 LINE",
"648 0 LINE",
"430 417 LINE"
);
}
);
width = 718;
}
);
leftKerningGroup = H;
rightKerningGroup = X;
unicode = 004B;
},
{
color = 1;
glyphname = L;
layers = (
{
anchors = (
{
name = bottom;
position = "{246, 0}";
},
{
name = center;
position = "{382, 390}";
},
{
name = top;
position = "{236, 699}";
},
{
name = topright;
position = "{415, 699}";
}
);
layerId = UUID0;
paths = (
{
closed = 1;
nodes = (
"216 699 LINE",
"76 0 LINE",
"409 0 LINE",
"413 20 LINE",
"100 20 LINE",
"236 699 LINE"
);
}
);
width = 491;
},
{
anchors = (
{
name = bottom;
position = "{257, 0}";
},
{
name = center;
position = "{477, 400}";
},
{
name = top;
position = "{244, 701}";
},
{
name = topright;
position = "{465, 699}";
}
);
layerId = "5DA6E103-6A94-47F2-987D-4952DB8EA68E";
paths = (
{
closed = 1;
nodes = (
"135 701 LINE",
"-5 0 LINE",
"519 0 LINE",
"558 193 LINE",
"266 193 LINE",
"367 701 LINE"
);
}
);
width = 584;
},
{
anchors = (
{
name = bottom;
position = "{257, 0}";
},
{
name = center;
position = "{418, 390}";
},
{
name = top;
position = "{240, 700}";
},
{
name = topright;
position = "{405, 699}";
}
);
layerId = "1C84A7F3-C40A-4DC1-B8B4-102D183C348F";
paths = (
{
closed = 1;
nodes = (
"179 700 LINE",
"39 0 LINE",
"460 0 LINE",
"480 101 LINE",
"177 101 LINE",
"297 700 LINE"
);
}
);
width = 534;
}
);
leftKerningGroup = H;
rightKerningGroup = L;
unicode = 004C;
},
{
color = 0;
glyphname = Lslash;
layers = (
{
components = (
{
name = L;
transform = "{1, 0, 0, 1, 16, 0}";
}
);
layerId = UUID0;
paths = (
{
closed = 1;
nodes = (
"51 293 LINE",
"319 437 LINE",
"323 460 LINE",
"55 316 LINE"
);
}
);
width = 507;
},
{
background = {
components = (
{
name = L;
transform = "{1, 0, 0, 1, 40, 0}";
}
);
paths = (
{
closed = 1;
nodes = (
"-2 412 LINE",
"36 278 LINE",
"500 412 LINE",
"462 547 LINE"
);
}
);
};
components = (
{
name = L;
transform = "{1, 0, 0, 1, 40, 0}";
}
);
layerId = "5DA6E103-6A94-47F2-987D-4952DB8EA68E";
paths = (
{
closed = 1;
nodes = (
"-13 214 LINE",
"455 430 LINE",
"478 548 LINE",
"10 332 LINE"
);
}
);
width = 624;
},
{
background = {
paths = (
{
closed = 1;
nodes = (
"36 423 LINE",
"56 351 LINE",
"436 460 LINE",
"416 533 LINE"
);
}
);
};
components = (
{
name = L;
transform = "{1, 0, 0, 1, 27, 0}";
}
);
layerId = "1C84A7F3-C40A-4DC1-B8B4-102D183C348F";
paths = (
{
closed = 1;
nodes = (
"20 252 LINE",
"381 429 LINE",
"396 506 LINE",
"35 328 LINE"
);
}
);
width = 561;
}
);
leftKerningGroup = H;
rightKerningGroup = L;
rightMetricsKey = L;
unicode = 0141;
},
{
color = 1;
glyphname = M;
layers = (
{
anchors = (
{
name = bottom;
position = "{410, 0}";
},
{
name = top;
position = "{545, 699}";
}
);
layerId = UUID0;
paths = (
{
closed = 1;
nodes = (
"837 699 LINE",
"427 120 LINE SMOOTH",
"249 699 LINE",
"216 699 LINE",
"76 0 LINE",
"96 0 LINE",
"232 680 LINE",
"419 77 LINE",
"421 77 LINE",
"849 680 LINE",
"714 0 LINE",
"734 0 LINE",
"874 699 LINE"
);
}
);
width = 914;
},
{
anchors = (
{
name = bottom;
position = "{399, 0}";
},
{
name = top;
position = "{533, 701}";
}
);
layerId = "5DA6E103-6A94-47F2-987D-4952DB8EA68E";
paths = (
{
closed = 1;
nodes = (
"680 701 LINE",
"452 335 LINE",
"374 701 LINE",
"135 701 LINE",
"-5 0 LINE",
"197 0 LINE",
"276 384 LINE",
"333 68 LINE",
"485 68 LINE",
"668 384 LINE",
"589 0 LINE",
"791 0 LINE",
"931 701 LINE"
);
}
);
width = 896;
},
{
anchors = (
{
name = bottom;
position = "{420, 0}";
},
{
name = top;
position = "{550, 700}";
}
);
layerId = "1C84A7F3-C40A-4DC1-B8B4-102D183C348F";
paths = (
{
closed = 1;
nodes = (
"776 700 LINE",
"451 228 LINE SMOOTH",
"315 700 LINE",
"179 700 LINE",
"39 0 LINE",
"150 0 LINE",
"258 533 LINE",
"387 73 LINE",
"464 73 LINE",
"777 533 LINE",
"670 0 LINE",
"779 0 LINE",
"919 700 LINE"
);
}
);
width = 925;
}
);
leftKerningGroup = H;
rightKerningGroup = H;
unicode = 004D;
},
{
color = 1;
glyphname = M.ss01;
layers = (
{
anchors = (
{
name = bottom;
position = "{562, 0}";
},
{
name = top;
position = "{702, 699}";
}
);
layerId = UUID0;
paths = (
{
closed = 1;
nodes = (
"846 699 OFFCURVE",
"731 619 OFFCURVE",
"676 508 CURVE",
"674 621 OFFCURVE",
"603 699 OFFCURVE",
"490 699 CURVE SMOOTH",
"370 699 OFFCURVE",
"261 629 OFFCURVE",
"202 529 CURVE",
"236 699 LINE",
"216 699 LINE",
"76 0 LINE",
"96 0 LINE",
"186 449 LINE",
"223 580 OFFCURVE",
"346 679 OFFCURVE",
"486 679 CURVE SMOOTH",
"607 679 OFFCURVE",
"676 580 OFFCURVE",
"649 445 CURVE SMOOTH",
"560 0 LINE",
"580 0 LINE",
"665 425 LINE SMOOTH",
"694 568 OFFCURVE",
"823 679 OFFCURVE",
"971 679 CURVE SMOOTH",
"1092 679 OFFCURVE",
"1161 580 OFFCURVE",
"1134 445 CURVE SMOOTH",
"1045 0 LINE",
"1065 0 LINE",
"1154 445 LINE SMOOTH",
"1183 592 OFFCURVE",
"1108 699 OFFCURVE",
"975 699 CURVE SMOOTH"
);
}
);
width = 1227;
},
{
anchors = (
{
name = bottom;
position = "{525, 0}";
},
{
name = top;
position = "{665, 701}";
}
);
layerId = "5DA6E103-6A94-47F2-987D-4952DB8EA68E";
paths = (
{
closed = 1;
nodes = (
"882 701 OFFCURVE",
"796 647 OFFCURVE",
"739 556 CURVE",
"724 647 OFFCURVE",
"661 701 OFFCURVE",
"562 701 CURVE SMOOTH",
"477 701 OFFCURVE",
"401 661 OFFCURVE",
"345 591 CURVE",
"367 701 LINE",
"135 701 LINE",
"-5 0 LINE",
"227 0 LINE",
"303 380 LINE SMOOTH",
"317 448 OFFCURVE",
"365 493 OFFCURVE",
"423 493 CURVE SMOOTH",
"479 493 OFFCURVE",
"501 452 OFFCURVE",
"488 387 CURVE SMOOTH",
"411 0 LINE",
"646 0 LINE",
"722 380 LINE SMOOTH",
"736 448 OFFCURVE",
"784 493 OFFCURVE",
"842 493 CURVE SMOOTH",
"898 493 OFFCURVE",
"920 452 OFFCURVE",
"907 387 CURVE SMOOTH",
"830 0 LINE",
"1065 0 LINE",
"1154 443 LINE SMOOTH",
"1185 600 OFFCURVE",
"1116 701 OFFCURVE",
"981 701 CURVE SMOOTH"
);
}
);
width = 1160;
},
{
anchors = (
{
name = bottom;
position = "{545, 0}";
},
{
name = top;
position = "{685, 700}";
}
);
layerId = "1C84A7F3-C40A-4DC1-B8B4-102D183C348F";
paths = (
{
closed = 1;
nodes = (
"862 700 OFFCURVE",
"764 643 OFFCURVE",
"702 554 CURVE",
"686 644 OFFCURVE",
"619 700 OFFCURVE",
"520 700 CURVE SMOOTH",
"423 700 OFFCURVE",
"336 657 OFFCURVE",
"274 588 CURVE",
"297 700 LINE",
"179 700 LINE",
"39 0 LINE",
"157 0 LINE",
"235 389 LINE SMOOTH",
"257 503 OFFCURVE",
"354 593 OFFCURVE",
"456 593 CURVE SMOOTH",
"547 593 OFFCURVE",
"597 521 OFFCURVE",
"576 418 CURVE SMOOTH",
"492 0 LINE",
"611 0 LINE",
"686 376 LINE SMOOTH",
"710 495 OFFCURVE",
"805 593 OFFCURVE",
"911 593 CURVE SMOOTH",
"1002 593 OFFCURVE",
"1051 521 OFFCURVE",
"1030 418 CURVE SMOOTH",
"946 0 LINE",
"1065 0 LINE",
"1154 444 LINE SMOOTH",
"1184 596 OFFCURVE",
"1108 700 OFFCURVE",
"974 700 CURVE SMOOTH"
);
}
);
width = 1195;
}
);
leftKerningGroup = M.ss01;
leftMetricsKey = H;
rightKerningGroup = M.ss01;
rightMetricsKey = U;
},
{
color = 1;
glyphname = N;
layers = (
{
anchors = (
{
name = bottom;
position = "{348, 0}";
},
{
name = top;
position = "{488, 699}";
}
);
layerId = UUID0;
paths = (
{
closed = 1;
nodes = (
"739 699 LINE",
"603 20 LINE",
"246 699 LINE",
"216 699 LINE",
"76 0 LINE",
"96 0 LINE",
"232 679 LINE",
"589 0 LINE",
"619 0 LINE",
"759 699 LINE"
);
}
);
width = 799;
},
{
anchors = (
{
name = bottom;
position = "{336, 0}";
},
{
name = top;
position = "{476, 701}";
}
);
layerId = "5DA6E103-6A94-47F2-987D-4952DB8EA68E";
paths = (
{
closed = 1;
nodes = (
"606 701 LINE",
"534 341 LINE",
"329 701 LINE",
"135 701 LINE",
"-5 0 LINE",
"206 0 LINE",
"278 358 LINE",
"482 0 LINE",
"676 0 LINE",
"816 701 LINE"
);
}
);
width = 781;
},
{
anchors = (
{
name = bottom;
position = "{343, 0}";
},
{
name = top;
position = "{483, 700}";
}
);
layerId = "1C84A7F3-C40A-4DC1-B8B4-102D183C348F";
paths = (
{
closed = 1;
nodes = (
"670 700 LINE",
"567 187 LINE",
"295 700 LINE",
"179 700 LINE",
"39 0 LINE",
"157 0 LINE",
"259 512 LINE",
"530 0 LINE",
"646 0 LINE",
"786 700 LINE"
);
}
);
width = 792;
}
);
leftKerningGroup = H;
rightKerningGroup = H;
unicode = 004E;
},
{
color = 1;
glyphname = N.ss01;
layers = (
{
anchors = (
{
name = bottom;
position = "{374, 0}";
},
{
name = ogonek;
position = "{156, 10}";
},
{
name = top;
position = "{484, 699}";
}
);
layerId = UUID0;
paths = (
{
closed = 1;
nodes = (
"384 699 OFFCURVE",
"263 627 OFFCURVE",
"201 524 CURVE",
"236 699 LINE",
"216 699 LINE",
"76 0 LINE",
"96 0 LINE",
"185 447 LINE",
"224 579 OFFCURVE",
"359 679 OFFCURVE",
"516 679 CURVE SMOOTH",
"649 679 OFFCURVE",
"726 580 OFFCURVE",
"699 445 CURVE SMOOTH",
"610 0 LINE",
"630 0 LINE",
"719 445 LINE SMOOTH",
"748 592 OFFCURVE",
"665 699 OFFCURVE",
"520 699 CURVE SMOOTH"
);
}
);
width = 792;
},
{
anchors = (
{
name = bottom;
position = "{326, 0}";
},
{
name = ogonek;
position = "{246, 10}";
},
{
name = top;
position = "{486, 701}";
}
);
layerId = "5DA6E103-6A94-47F2-987D-4952DB8EA68E";
paths = (
{
closed = 1;
nodes = (
"482 701 OFFCURVE",
"403 660 OFFCURVE",
"344 588 CURVE",
"367 701 LINE",
"135 701 LINE",
"-5 0 LINE",
"227 0 LINE",
"303 380 LINE SMOOTH",
"317 449 OFFCURVE",
"369 493 OFFCURVE",
"437 493 CURVE SMOOTH",
"494 493 OFFCURVE",
"521 451 OFFCURVE",
"508 387 CURVE SMOOTH",
"431 0 LINE",
"666 0 LINE",
"755 443 LINE SMOOTH",
"786 600 OFFCURVE",
"714 701 OFFCURVE",
"571 701 CURVE SMOOTH"
);
}
);
width = 761;
},
{
anchors = (
{
name = bottom;
position = "{334, 0}";
},
{
name = ogonek;
position = "{198, 10}";
},
{
name = top;
position = "{472, 700}";
}
);
layerId = "1C84A7F3-C40A-4DC1-B8B4-102D183C348F";
paths = (
{
closed = 1;
nodes = (
"431 700 OFFCURVE",
"339 656 OFFCURVE",
"274 585 CURVE",
"297 700 LINE",
"179 700 LINE",
"39 0 LINE",
"157 0 LINE",
"235 389 LINE",
"263 502 OFFCURVE",
"361 593 OFFCURVE",
"472 593 CURVE SMOOTH",
"570 593 OFFCURVE",
"625 521 OFFCURVE",
"604 418 CURVE SMOOTH",
"520 0 LINE",
"639 0 LINE",
"728 444 LINE SMOOTH",
"758 596 OFFCURVE",
"677 700 OFFCURVE",
"535 700 CURVE SMOOTH"
);
}
);
width = 769;
}
);
leftKerningGroup = N.ss01;
leftMetricsKey = H;
rightKerningGroup = N.ss01;
rightMetricsKey = U;
},
{
color = 1;
glyphname = Eng;
layers = (
{
anchors = (
{
name = bottom;
position = "{348, 0}";
},
{
name = top;
position = "{488, 699}";
}
);
layerId = UUID0;
paths = (
{
closed = 1;
nodes = (
"576 -114 OFFCURVE",
"510 -176 OFFCURVE",
"412 -176 CURVE SMOOTH",
"349 -176 OFFCURVE",
"299 -144 OFFCURVE",
"270 -84 CURVE",
"253 -98 LINE",
"285 -161 OFFCURVE",
"340 -196 OFFCURVE",
"408 -196 CURVE SMOOTH",
"519 -196 OFFCURVE",
"594 -126 OFFCURVE",
"619 0 CURVE",
"600 3 LINE"
);
},
{
closed = 1;
nodes = (
"739 699 LINE",
"603 20 LINE",
"246 699 LINE",
"216 699 LINE",
"76 0 LINE",
"96 0 LINE",
"232 679 LINE",
"589 0 LINE",
"619 0 LINE",
"759 699 LINE"
);
}
);
width = 799;
},
{
anchors = (
{
name = bottom;
position = "{343, 0}";
},
{
name = top;
position = "{483, 700}";
}
);
layerId = "1C84A7F3-C40A-4DC1-B8B4-102D183C348F";
paths = (
{
closed = 1;
nodes = (
"516 -54 OFFCURVE",
"468 -94 OFFCURVE",
"407 -94 CURVE SMOOTH",
"365 -94 OFFCURVE",
"317 -75 OFFCURVE",
"281 -37 CURVE",
"207 -123 LINE",
"246 -174 OFFCURVE",
"307 -203 OFFCURVE",
"387 -203 CURVE SMOOTH",
"520 -203 OFFCURVE",
"621 -123 OFFCURVE",
"646 1 CURVE",
"531 20 LINE"
);
},
{
closed = 1;
nodes = (
"670 700 LINE",
"567 187 LINE",
"295 700 LINE",
"179 700 LINE",
"39 0 LINE",
"157 0 LINE",
"259 512 LINE",
"530 0 LINE",
"646 0 LINE",
"786 700 LINE"
);
}
);
width = 792;
},
{
anchors = (
{
name = bottom;
position = "{336, 0}";
},
{
name = top;
position = "{476, 701}";
}
);
layerId = "5DA6E103-6A94-47F2-987D-4952DB8EA68E";
paths = (
{
closed = 1;
nodes = (
"468 -11 OFFCURVE",
"446 -32 OFFCURVE",
"406 -32 CURVE SMOOTH",
"383 -32 OFFCURVE",
"352 -25 OFFCURVE",
"316 -10 CURVE",
"206 -185 LINE",
"251 -211 OFFCURVE",
"303 -225 OFFCURVE",
"367 -225 CURVE SMOOTH",
"520 -225 OFFCURVE",
"638 -143 OFFCURVE",
"676 0 CURVE",
"477 33 LINE"
);
},
{
closed = 1;
nodes = (
"606 701 LINE",
"534 341 LINE",
"329 701 LINE",
"135 701 LINE",
"-5 0 LINE",
"206 0 LINE",
"278 358 LINE",
"482 0 LINE",
"676 0 LINE",
"816 701 LINE"
);
}
);
width = 781;
}
);
leftKerningGroup = H;
rightKerningGroup = H;
unicode = 014A;
},
{
color = 1;
glyphname = Eng.ss01;
layers = (
{
anchors = (
{
name = bottom;
position = "{344, 0}";
},
{
name = ogonek;
position = "{156, 10}";
},
{
name = top;
position = "{484, 699}";
}
);
layerId = UUID0;
paths = (
{
closed = 1;
nodes = (
"384 699 OFFCURVE",
"263 627 OFFCURVE",
"201 524 CURVE",
"236 699 LINE",
"216 699 LINE",
"76 0 LINE",
"96 0 LINE",
"185 447 LINE",
"224 579 OFFCURVE",
"359 679 OFFCURVE",
"516 679 CURVE SMOOTH",
"649 679 OFFCURVE",
"726 580 OFFCURVE",
"699 445 CURVE SMOOTH",
"611 3 LINE SMOOTH",
"588 -114 OFFCURVE",
"521 -176 OFFCURVE",
"423 -176 CURVE SMOOTH",
"360 -176 OFFCURVE",
"310 -144 OFFCURVE",
"281 -84 CURVE",
"264 -98 LINE",
"296 -161 OFFCURVE",
"351 -196 OFFCURVE",
"419 -196 CURVE SMOOTH",
"530 -196 OFFCURVE",
"605 -126 OFFCURVE",
"630 0 CURVE SMOOTH",
"719 445 LINE SMOOTH",
"748 592 OFFCURVE",
"665 699 OFFCURVE",
"520 699 CURVE SMOOTH"
);
}
);
width = 792;
},
{
anchors = (
{
name = bottom;
position = "{332, 0}";
},
{
name = ogonek;
position = "{198, 10}";
},
{
name = top;
position = "{472, 700}";
}
);
layerId = "1C84A7F3-C40A-4DC1-B8B4-102D183C348F";
paths = (
{
closed = 1;
nodes = (
"431 700 OFFCURVE",
"339 656 OFFCURVE",
"274 585 CURVE",
"297 700 LINE",
"179 700 LINE",
"39 0 LINE",
"157 0 LINE",
"235 389 LINE",
"263 502 OFFCURVE",
"361 593 OFFCURVE",
"472 593 CURVE SMOOTH",
"570 593 OFFCURVE",
"625 521 OFFCURVE",
"604 418 CURVE SMOOTH",
"522 15 LINE SMOOTH",
"507 -56 OFFCURVE",
"460 -94 OFFCURVE",
"400 -94 CURVE SMOOTH",
"358 -94 OFFCURVE",
"310 -75 OFFCURVE",
"274 -37 CURVE",
"200 -123 LINE",
"239 -174 OFFCURVE",
"300 -203 OFFCURVE",
"380 -203 CURVE SMOOTH",
"513 -203 OFFCURVE",
"614 -124 OFFCURVE",
"639 0 CURVE SMOOTH",
"728 444 LINE SMOOTH",
"758 596 OFFCURVE",
"677 700 OFFCURVE",
"535 700 CURVE SMOOTH"
);
}
);
width = 770;
},
{
anchors = (
{
name = bottom;
position = "{326, 0}";
},
{
name = ogonek;
position = "{246, 10}";
},
{
name = top;
position = "{486, 701}";
}
);
layerId = "5DA6E103-6A94-47F2-987D-4952DB8EA68E";
paths = (
{
closed = 1;
nodes = (
"482 701 OFFCURVE",
"403 660 OFFCURVE",
"344 588 CURVE",
"367 701 LINE",
"135 701 LINE",
"-5 0 LINE",
"227 0 LINE",
"303 380 LINE SMOOTH",
"317 449 OFFCURVE",
"369 493 OFFCURVE",
"437 493 CURVE SMOOTH",
"494 493 OFFCURVE",
"521 451 OFFCURVE",
"508 387 CURVE SMOOTH",
"433 12 LINE SMOOTH",
"427 -17 OFFCURVE",
"410 -32 OFFCURVE",
"381 -32 CURVE SMOOTH",
"360 -32 OFFCURVE",
"333 -25 OFFCURVE",
"302 -10 CURVE",
"196 -185 LINE",
"241 -211 OFFCURVE",
"293 -225 OFFCURVE",
"357 -225 CURVE SMOOTH",
"510 -225 OFFCURVE",
"628 -143 OFFCURVE",
"666 0 CURVE",
"755 443 LINE SMOOTH",
"786 600 OFFCURVE",
"714 701 OFFCURVE",
"571 701 CURVE SMOOTH"
);
}
);
width = 761;
}
);
leftKerningGroup = H;
rightKerningGroup = H;
},
{
color = 1;
glyphname = O;
layers = (
{
anchors = (
{
name = bottom;
position = "{389, 0}";
},
{
name = center;
position = "{429, 350}";
},
{
name = ogonek;
position = "{576, 0}";
},
{
name = top;
position = "{499, 699}";
},
{
name = topleft;
position = "{108, 699}";
},
{
name = topright;
position = "{633, 699}";
}
);
background = {
paths = (
{
closed = 1;
nodes = (
"263 699 OFFCURVE",
"87 542 OFFCURVE",
"70 350 CURVE SMOOTH",
"53 158 OFFCURVE",
"201 0 OFFCURVE",
"398 0 CURVE SMOOTH",
"595 0 OFFCURVE",
"771 158 OFFCURVE",
"788 350 CURVE SMOOTH",
"805 542 OFFCURVE",
"657 699 OFFCURVE",
"460 699 CURVE SMOOTH"
);
},
{
closed = 1;
nodes = (
"644 679 OFFCURVE",
"784 531 OFFCURVE",
"768 350 CURVE SMOOTH",
"752 169 OFFCURVE",
"586 20 OFFCURVE",
"400 20 CURVE SMOOTH",
"214 20 OFFCURVE",
"74 169 OFFCURVE",
"90 350 CURVE SMOOTH",
"106 531 OFFCURVE",
"272 679 OFFCURVE",
"458 679 CURVE SMOOTH"
);
}
);
};
layerId = UUID0;
paths = (
{
closed = 1;
nodes = (
"266 699 OFFCURVE",
"89 542 OFFCURVE",
"70 351 CURVE SMOOTH",
"51 158 OFFCURVE",
"197 0 OFFCURVE",
"395 0 CURVE SMOOTH",
"591 0 OFFCURVE",
"769 158 OFFCURVE",
"788 349 CURVE SMOOTH",
"807 542 OFFCURVE",
"660 699 OFFCURVE",
"462 699 CURVE SMOOTH"
);
},
{
closed = 1;
nodes = (
"647 679 OFFCURVE",
"786 531 OFFCURVE",
"768 351 CURVE SMOOTH",
"750 169 OFFCURVE",
"582 20 OFFCURVE",
"395 20 CURVE SMOOTH",
"210 20 OFFCURVE",
"72 169 OFFCURVE",
"90 349 CURVE SMOOTH",
"108 531 OFFCURVE",
"275 679 OFFCURVE",
"462 679 CURVE SMOOTH"
);
}
);
width = 822;
},
{
anchors = (
{
name = bottom;
position = "{389, 0}";
},
{
name = center;
position = "{419, 351}";
},
{
name = ogonek;
position = "{634, 0}";
},
{
name = top;
position = "{489, 701}";
},
{
name = topleft;
position = "{105, 701}";
},
{
name = topright;
position = "{610, 701}";
}
);
layerId = "5DA6E103-6A94-47F2-987D-4952DB8EA68E";
paths = (
{
closed = 1;
nodes = (
"217 708 OFFCURVE",
"32 544 OFFCURVE",
"32 319 CURVE SMOOTH",
"32 128 OFFCURVE",
"174 -10 OFFCURVE",
"383 -10 CURVE SMOOTH",
"621 -10 OFFCURVE",
"806 158 OFFCURVE",
"806 382 CURVE SMOOTH",
"806 572 OFFCURVE",
"663 708 OFFCURVE",
"454 708 CURVE SMOOTH"
);
},
{
closed = 1;
nodes = (
"512 515 OFFCURVE",
"567 453 OFFCURVE",
"567 367 CURVE SMOOTH",
"567 262 OFFCURVE",
"491 183 OFFCURVE",
"405 183 CURVE SMOOTH",
"331 183 OFFCURVE",
"271 247 OFFCURVE",
"271 334 CURVE SMOOTH",
"271 438 OFFCURVE",
"352 515 OFFCURVE",
"438 515 CURVE SMOOTH"
);
}
);
width = 807;
},
{
anchors = (
{
name = bottom;
position = "{395, 0}";
},
{
name = center;
position = "{425, 350}";
},
{
name = ogonek;
position = "{594, 0}";
},
{
name = top;
position = "{495, 700}";
},
{
name = topleft;
position = "{107, 700}";
},
{
name = topright;
position = "{622, 700}";
}
);
layerId = "1C84A7F3-C40A-4DC1-B8B4-102D183C348F";
paths = (
{
closed = 1;
nodes = (
"238 703 OFFCURVE",
"52 535 OFFCURVE",
"52 321 CURVE SMOOTH",
"52 137 OFFCURVE",
"193 -5 OFFCURVE",
"390 -5 CURVE SMOOTH",
"611 -5 OFFCURVE",
"798 166 OFFCURVE",
"798 379 CURVE SMOOTH",
"798 563 OFFCURVE",
"656 703 OFFCURVE",
"460 703 CURVE SMOOTH"
);
},
{
closed = 1;
nodes = (
"579 603 OFFCURVE",
"676 502 OFFCURVE",
"676 371 CURVE SMOOTH",
"676 219 OFFCURVE",
"546 95 OFFCURVE",
"401 95 CURVE SMOOTH",
"272 95 OFFCURVE",
"172 198 OFFCURVE",
"172 329 CURVE SMOOTH",
"172 481 OFFCURVE",
"304 603 OFFCURVE",
"451 603 CURVE SMOOTH"
);
}
);
width = 816;
}
);
leftKerningGroup = O;
rightKerningGroup = O;
unicode = 004F;
},
{
color = 0;
glyphname = Oslash;
layers = (
{
anchors = (
{
name = top;
position = "{479, 699}";
}
);
background = {
paths = (
{
closed = 1;
nodes = (
"718 755 LINE",
"129 -55 LINE",
"152 -55 LINE",
"741 755 LINE"
);
}
);
};
components = (
{
name = O;
}
);
guideLines = (
{
angle = 180;
position = "{650, 755}";
}
);
layerId = UUID0;
paths = (
{
closed = 1;
nodes = (
"718 755 LINE",
"129 -55 LINE",
"152 -55 LINE",
"741 755 LINE"
);
}
);
width = 822;
},
{
anchors = (
{
name = top;
position = "{492, 701}";
}
);
background = {
paths = (
{
closed = 1;
nodes = (
"677 755 LINE",
"52 -55 LINE",
"177 -55 LINE",
"802 755 LINE"
);
}
);
};
components = (
{
name = O;
}
);
layerId = "5DA6E103-6A94-47F2-987D-4952DB8EA68E";
paths = (
{
closed = 1;
nodes = (
"54 -55 LINE",
"181 -55 LINE",
"796 755 LINE",
"669 755 LINE"
);
}
);
width = 807;
},
{
anchors = (
{
name = top;
position = "{487, 700}";
}
);
background = {
anchors = (
{
name = top;
position = "{487, 700}";
}
);
components = (
{
name = O;
}
);
paths = (
{
closed = 1;
nodes = (
"696 755 LINE",
"92 -55 LINE",
"162 -55 LINE",
"766 755 LINE"
);
}
);
};
components = (
{
name = O;
}
);
layerId = "1C84A7F3-C40A-4DC1-B8B4-102D183C348F";
paths = (
{
closed = 1;
nodes = (
"50 -55 LINE",
"149 -55 LINE",
"760 755 LINE",
"660 755 LINE"
);
}
);
width = 816;
}
);
leftKerningGroup = O;
leftMetricsKey = O;
rightKerningGroup = O;
rightMetricsKey = O;
unicode = 00D8;
},
{
color = 1;
glyphname = OE;
layers = (
{
anchors = (
{
name = bottom;
position = "{718, 0}";
},
{
name = ogonek;
position = "{978, 10}";
},
{
name = top;
position = "{636, 699}";
}
);
background = {
paths = (
{
closed = 1;
nodes = (
"464 699 LINE",
"267 699 OFFCURVE",
"90 543 OFFCURVE",
"71 352 CURVE SMOOTH",
"52 159 OFFCURVE",
"199 0 OFFCURVE",
"396 0 CURVE",
"580 0 LINE",
"582 17 LINE",
"395 19 LINE",
"208 19 OFFCURVE",
"71 167 OFFCURVE",
"90 348 CURVE SMOOTH",
"108 531 OFFCURVE",
"277 680 OFFCURVE",
"464 680 CURVE",
"716 680 LINE",
"722 699 LINE"
);
},
{
closed = 1;
nodes = (
"664 699 LINE",
"524 0 LINE",
"975 0 LINE",
"979 20 LINE",
"548 20 LINE",
"614 350 LINE",
"985 350 LINE",
"989 370 LINE",
"618 370 LINE",
"680 679 LINE",
"1097 679 LINE",
"1101 699 LINE"
);
}
);
};
layerId = UUID0;
paths = (
{
closed = 1;
nodes = (
"464 699 LINE",
"253 699 OFFCURVE",
"69 522 OFFCURVE",
"69 319 CURVE SMOOTH",
"69 140 OFFCURVE",
"212 0 OFFCURVE",
"396 0 CURVE",
"580 0 LINE",
"582 17 LINE",
"395 19 LINE",
"221 19 OFFCURVE",
"88 148 OFFCURVE",
"88 315 CURVE SMOOTH",
"88 510 OFFCURVE",
"263 680 OFFCURVE",
"464 680 CURVE",
"716 680 LINE",
"722 699 LINE"
);
},
{
closed = 1;
nodes = (
"664 699 LINE",
"524 0 LINE",
"975 0 LINE",
"979 20 LINE",
"548 20 LINE",
"614 350 LINE",
"985 350 LINE",
"989 370 LINE",
"618 370 LINE",
"680 679 LINE",
"1097 679 LINE",
"1101 699 LINE"
);
}
);
width = 1092;
},
{
anchors = (
{
name = bottom;
position = "{739, 0}";
},
{
name = ogonek;
position = "{1034, 10}";
},
{
name = top;
position = "{649, 701}";
}
);
background = {
paths = (
{
closed = 1;
nodes = (
"456 701 LINE",
"204 701 OFFCURVE",
"12 520 OFFCURVE",
"35 291 CURVE SMOOTH",
"52 121 OFFCURVE",
"191 0 OFFCURVE",
"385 0 CURVE",
"507 0 LINE",
"547 185 LINE",
"404 183 LINE",
"331 183 OFFCURVE",
"281 238 OFFCURVE",
"273 315 CURVE SMOOTH",
"262 425 OFFCURVE",
"338 514 OFFCURVE",
"437 514 CURVE",
"591 514 LINE",
"629 701 LINE"
);
},
{
closed = 1;
nodes = (
"579 701 LINE",
"438 0 LINE",
"1040 0 LINE",
"1076 176 LINE",
"706 176 LINE",
"723 263 LINE",
"1051 263 LINE",
"1086 439 LINE",
"758 439 LINE",
"775 525 LINE",
"1136 525 LINE",
"1172 701 LINE"
);
}
);
};
layerId = "5DA6E103-6A94-47F2-987D-4952DB8EA68E";
paths = (
{
closed = 1;
nodes = (
"456 701 LINE",
"218 701 OFFCURVE",
"33 539 OFFCURVE",
"33 328 CURVE SMOOTH",
"33 132 OFFCURVE",
"184 0 OFFCURVE",
"385 0 CURVE",
"507 0 LINE",
"547 185 LINE",
"404 183 LINE",
"325 183 OFFCURVE",
"272 248 OFFCURVE",
"272 336 CURVE SMOOTH",
"272 436 OFFCURVE",
"344 514 OFFCURVE",
"437 514 CURVE",
"591 514 LINE",
"629 701 LINE"
);
},
{
closed = 1;
nodes = (
"579 701 LINE",
"438 0 LINE",
"1040 0 LINE",
"1076 176 LINE",
"706 176 LINE",
"723 263 LINE",
"1051 263 LINE",
"1086 439 LINE",
"758 439 LINE",
"775 525 LINE",
"1136 525 LINE",
"1172 701 LINE"
);
}
);
width = 1133;
},
{
anchors = (
{
name = bottom;
position = "{725, 0}";
},
{
name = ogonek;
position = "{995, 10}";
},
{
name = top;
position = "{643, 700}";
}
);
background = {
paths = (
{
closed = 0;
nodes = (
"461 700 LINE",
"227 700 OFFCURVE",
"33 516 OFFCURVE",
"55 294 CURVE SMOOTH",
"71 126 OFFCURVE",
"208 0 OFFCURVE",
"391 0 CURVE"
);
},
{
closed = 0;
nodes = (
"402 100 LINE",
"279 100 OFFCURVE",
"187 188 OFFCURVE",
"175 307 CURVE SMOOTH",
"159 468 OFFCURVE",
"293 599 OFFCURVE",
"452 599 CURVE"
);
}
);
};
layerId = "1C84A7F3-C40A-4DC1-B8B4-102D183C348F";
paths = (
{
closed = 1;
nodes = (
"461 700 LINE",
"239 700 OFFCURVE",
"53 535 OFFCURVE",
"53 328 CURVE SMOOTH",
"53 142 OFFCURVE",
"197 0 OFFCURVE",
"391 0 CURVE",
"520 0 LINE",
"541 100 LINE",
"402 100 LINE",
"270 100 OFFCURVE",
"174 201 OFFCURVE",
"174 333 CURVE SMOOTH",
"174 482 OFFCURVE",
"302 599 OFFCURVE",
"452 599 CURVE",
"632 599 LINE",
"653 700 LINE"
);
},
{
closed = 1;
nodes = (
"625 700 LINE",
"485 0 LINE",
"997 0 LINE",
"1017 101 LINE",
"623 101 LINE",
"663 302 LINE",
"1005 302 LINE",
"1025 402 LINE",
"683 402 LINE",
"723 599 LINE",
"1105 599 LINE",
"1125 700 LINE"
);
}
);
width = 1102;
}
);
leftKerningGroup = O;
leftMetricsKey = O;
rightKerningGroup = E;
rightMetricsKey = E;
unicode = 0152;
},
{
color = 1;
glyphname = P;
layers = (
{
layerId = UUID0;
paths = (
{
closed = 1;
nodes = (
"216 699 LINE",
"76 0 LINE",
"96 0 LINE",
"144 240 LINE",
"361 240 LINE SMOOTH",
"560 240 OFFCURVE",
"680 349 OFFCURVE",
"680 517 CURVE SMOOTH",
"680 632 OFFCURVE",
"600 699 OFFCURVE",
"453 699 CURVE SMOOTH"
);
},
{
closed = 1;
nodes = (
"585 679 OFFCURVE",
"660 618 OFFCURVE",
"660 512 CURVE SMOOTH",
"660 358 OFFCURVE",
"548 260 OFFCURVE",
"365 260 CURVE SMOOTH",
"148 260 LINE",
"232 679 LINE",
"449 679 LINE SMOOTH"
);
}
);
width = 675;
},
{
layerId = "5DA6E103-6A94-47F2-987D-4952DB8EA68E";
paths = (
{
closed = 1;
nodes = (
"135 701 LINE",
"-5 0 LINE",
"227 0 LINE",
"263 182 LINE",
"360 182 LINE SMOOTH",
"575 182 OFFCURVE",
"707 309 OFFCURVE",
"707 500 CURVE SMOOTH",
"707 628 OFFCURVE",
"621 701 OFFCURVE",
"464 701 CURVE SMOOTH"
);
},
{
closed = 1;
nodes = (
"459 525 OFFCURVE",
"482 502 OFFCURVE",
"482 462 CURVE SMOOTH",
"482 400 OFFCURVE",
"444 358 OFFCURVE",
"384 358 CURVE SMOOTH",
"299 358 LINE",
"332 525 LINE",
"417 525 LINE SMOOTH"
);
}
);
width = 699;
},
{
layerId = "1C84A7F3-C40A-4DC1-B8B4-102D183C348F";
paths = (
{
closed = 1;
nodes = (
"179 700 LINE",
"39 0 LINE",
"157 0 LINE",
"199 213 LINE",
"361 213 LINE SMOOTH",
"567 213 OFFCURVE",
"693 331 OFFCURVE",
"693 509 CURVE SMOOTH",
"693 630 OFFCURVE",
"610 700 OFFCURVE",
"458 700 CURVE SMOOTH"
);
},
{
closed = 1;
nodes = (
"526 599 OFFCURVE",
"578 562 OFFCURVE",
"578 488 CURVE SMOOTH",
"578 375 OFFCURVE",
"503 314 OFFCURVE",
"376 314 CURVE SMOOTH",
"219 314 LINE",
"276 599 LINE",
"433 599 LINE SMOOTH"
);
}
);
width = 686;
}
);
leftKerningGroup = H;
rightKerningGroup = P;
unicode = 0050;
},
{
color = 1;
glyphname = Thorn;
layers = (
{
layerId = UUID0;
paths = (
{
closed = 1;
nodes = (
"204 587 LINE",
"202 567 LINE",
"396 567 LINE SMOOTH",
"559 567 OFFCURVE",
"638 513 OFFCURVE",
"638 406 CURVE SMOOTH",
"638 249 OFFCURVE",
"535 162 OFFCURVE",
"315 162 CURVE SMOOTH",
"123 162 LINE",
"119 142 LINE",
"311 142 LINE SMOOTH",
"547 142 OFFCURVE",
"659 239 OFFCURVE",
"659 411 CURVE SMOOTH",
"659 528 OFFCURVE",
"573 587 OFFCURVE",
"400 587 CURVE SMOOTH"
);
},
{
closed = 1;
nodes = (
"216 699 LINE",
"76 0 LINE",
"96 0 LINE",
"236 699 LINE"
);
}
);
width = 675;
},
{
layerId = "5DA6E103-6A94-47F2-987D-4952DB8EA68E";
paths = (
{
closed = 1;
nodes = (
"306 615 LINE",
"303 439 LINE",
"405 439 LINE SMOOTH",
"439 439 OFFCURVE",
"459 415 OFFCURVE",
"459 378 CURVE SMOOTH",
"459 321 OFFCURVE",
"422 278 OFFCURVE",
"373 278 CURVE SMOOTH",
"271 278 LINE",
"235 102 LINE",
"347 102 LINE SMOOTH",
"554 102 OFFCURVE",
"702 231 OFFCURVE",
"702 410 CURVE SMOOTH",
"702 535 OFFCURVE",
"608 615 OFFCURVE",
"450 615 CURVE SMOOTH"
);
},
{
closed = 1;
nodes = (
"135 701 LINE",
"-5 0 LINE",
"227 0 LINE",
"367 701 LINE"
);
}
);
width = 711;
},
{
layerId = "1C84A7F3-C40A-4DC1-B8B4-102D183C348F";
paths = (
{
closed = 1;
nodes = (
"252 600 LINE",
"249 508 LINE",
"401 508 LINE SMOOTH",
"504 508 OFFCURVE",
"556 468 OFFCURVE",
"556 393 CURVE SMOOTH",
"556 282 OFFCURVE",
"483 216 OFFCURVE",
"342 216 CURVE SMOOTH",
"192 216 LINE",
"173 124 LINE",
"328 124 LINE SMOOTH",
"550 124 OFFCURVE",
"679 235 OFFCURVE",
"679 411 CURVE SMOOTH",
"679 531 OFFCURVE",
"590 600 OFFCURVE",
"424 600 CURVE SMOOTH"
);
},
{
closed = 1;
nodes = (
"179 700 LINE",
"39 0 LINE",
"157 0 LINE",
"297 700 LINE"
);
}
);
width = 692;
}
);
leftKerningGroup = H;
leftMetricsKey = H;
rightKerningGroup = Thorn;
rightMetricsKey = P;
unicode = 00DE;
},
{
color = 0;
glyphname = Q;
layers = (
{
components = (
{
name = O;
}
);
layerId = UUID0;
paths = (
{
closed = 1;
nodes = (
"429 3 LINE",
"508 -82 OFFCURVE",
"579 -124 OFFCURVE",
"648 -124 CURVE SMOOTH",
"701 -124 OFFCURVE",
"754 -99 OFFCURVE",
"808 -48 CURVE",
"794 -34 LINE",
"744 -81 OFFCURVE",
"696 -105 OFFCURVE",
"648 -105 CURVE SMOOTH",
"585 -105 OFFCURVE",
"520 -65 OFFCURVE",
"443 17 CURVE"
);
}
);
width = 826;
},
{
background = {
paths = (
{
closed = 1;
nodes = (
"370 -2 LINE",
"405 -108 OFFCURVE",
"493 -177 OFFCURVE",
"601 -177 CURVE SMOOTH",
"674 -177 OFFCURVE",
"761 -146 OFFCURVE",
"815 -99 CURVE",
"738 38 LINE",
"698 9 OFFCURVE",
"654 -10 OFFCURVE",
"626 -10 CURVE SMOOTH",
"592 -10 OFFCURVE",
"564 18 OFFCURVE",
"550 55 CURVE"
);
}
);
};
components = (
{
name = O;
}
);
layerId = "5DA6E103-6A94-47F2-987D-4952DB8EA68E";
paths = (
{
closed = 1;
nodes = (
"369 -2 LINE",
"384 -108 OFFCURVE",
"458 -177 OFFCURVE",
"566 -177 CURVE SMOOTH",
"639 -177 OFFCURVE",
"732 -146 OFFCURVE",
"796 -99 CURVE",
"745 38 LINE",
"693 9 OFFCURVE",
"654 -10 OFFCURVE",
"613 -10 CURVE SMOOTH",
"581 -10 OFFCURVE",
"555 18 OFFCURVE",
"561 55 CURVE"
);
}
);
width = 810;
},
{
components = (
{
name = O;
}
);
layerId = "1C84A7F3-C40A-4DC1-B8B4-102D183C348F";
paths = (
{
closed = 1;
nodes = (
"401 0 LINE",
"457 -96 OFFCURVE",
"537 -152 OFFCURVE",
"627 -152 CURVE SMOOTH",
"692 -152 OFFCURVE",
"763 -124 OFFCURVE",
"817 -75 CURVE",
"770 4 LINE",
"724 -33 OFFCURVE",
"678 -55 OFFCURVE",
"641 -55 CURVE SMOOTH",
"593 -55 OFFCURVE",
"547 -21 OFFCURVE",
"503 37 CURVE"
);
}
);
width = 819;
}
);
leftKerningGroup = O;
rightKerningGroup = O;
unicode = 0051;
},
{
color = 0;
glyphname = Q.ss01;
layers = (
{
components = (
{
name = O;
}
);
layerId = UUID0;
paths = (
{
closed = 1;
nodes = (
"343 -135 LINE",
"363 -135 LINE",
"435 224 LINE",
"415 224 LINE"
);
}
);
width = 822;
},
{
background = {
paths = (
{
closed = 1;
nodes = (
"260 -116 LINE",
"400 -116 LINE",
"486 314 LINE",
"346 314 LINE"
);
}
);
};
components = (
{
name = O;
}
);
layerId = "5DA6E103-6A94-47F2-987D-4952DB8EA68E";
paths = (
{
closed = 1;
nodes = (
"260 -116 LINE",
"400 -116 LINE",
"486 314 LINE",
"346 314 LINE"
);
}
);
width = 807;
},
{
components = (
{
name = O;
}
);
layerId = "1C84A7F3-C40A-4DC1-B8B4-102D183C348F";
paths = (
{
closed = 1;
nodes = (
"300 -126 LINE",
"401 -126 LINE",
"478 266 LINE",
"378 266 LINE"
);
}
);
width = 816;
}
);
leftKerningGroup = O;
leftMetricsKey = O;
rightKerningGroup = O;
rightMetricsKey = O;
},
{
color = 1;
glyphname = R;
layers = (
{
anchors = (
{
name = bottom;
position = "{309, 0}";
},
{
name = top;
position = "{429, 699}";
}
);
layerId = UUID0;
paths = (
{
closed = 1;
nodes = (
"216 699 LINE",
"76 0 LINE",
"96 0 LINE",
"144 240 LINE",
"361 240 LINE SMOOTH",
"560 240 OFFCURVE",
"680 349 OFFCURVE",
"680 517 CURVE SMOOTH",
"680 632 OFFCURVE",
"600 699 OFFCURVE",
"453 699 CURVE SMOOTH"
);
},
{
closed = 1;
nodes = (
"421 254 LINE",
"555 0 LINE",
"580 0 LINE",
"446 254 LINE"
);
},
{
closed = 1;
nodes = (
"585 679 OFFCURVE",
"660 618 OFFCURVE",
"660 512 CURVE SMOOTH",
"660 358 OFFCURVE",
"548 260 OFFCURVE",
"365 260 CURVE SMOOTH",
"148 260 LINE",
"232 679 LINE",
"449 679 LINE SMOOTH"
);
}
);
width = 725;
},
{
anchors = (
{
name = bottom;
position = "{304, 0}";
},
{
name = top;
position = "{437, 701}";
}
);
layerId = "5DA6E103-6A94-47F2-987D-4952DB8EA68E";
paths = (
{
closed = 1;
nodes = (
"135 701 LINE",
"-5 0 LINE",
"227 0 LINE",
"263 182 LINE",
"370 182 LINE SMOOTH",
"593 182 OFFCURVE",
"729 308 OFFCURVE",
"729 499 CURVE SMOOTH",
"729 627 OFFCURVE",
"639 701 OFFCURVE",
"474 701 CURVE SMOOTH"
);
},
{
closed = 1;
nodes = (
"328 265 LINE",
"398 0 LINE",
"660 0 LINE",
"552 265 LINE"
);
},
{
closed = 1;
nodes = (
"481 525 OFFCURVE",
"504 502 OFFCURVE",
"504 462 CURVE SMOOTH",
"504 400 OFFCURVE",
"466 358 OFFCURVE",
"406 358 CURVE SMOOTH",
"299 358 LINE",
"332 525 LINE",
"439 525 LINE SMOOTH"
);
}
);
width = 725;
},
{
anchors = (
{
name = bottom;
position = "{307, 0}";
},
{
name = top;
position = "{432, 700}";
}
);
layerId = "1C84A7F3-C40A-4DC1-B8B4-102D183C348F";
paths = (
{
closed = 1;
nodes = (
"179 700 LINE",
"39 0 LINE",
"157 0 LINE",
"199 213 LINE",
"366 213 LINE SMOOTH",
"576 213 OFFCURVE",
"703 330 OFFCURVE",
"703 508 CURVE SMOOTH",
"703 630 OFFCURVE",
"618 700 OFFCURVE",
"463 700 CURVE SMOOTH"
);
},
{
closed = 1;
nodes = (
"378 259 LINE",
"483 0 LINE",
"617 0 LINE",
"495 259 LINE"
);
},
{
closed = 1;
nodes = (
"536 599 OFFCURVE",
"588 562 OFFCURVE",
"588 488 CURVE SMOOTH",
"588 375 OFFCURVE",
"514 314 OFFCURVE",
"386 314 CURVE SMOOTH",
"219 314 LINE",
"276 599 LINE",
"443 599 LINE SMOOTH"
);
}
);
width = 723;
}
);
leftKerningGroup = H;
rightKerningGroup = R;
unicode = 0052;
},
{
color = 1;
glyphname = S;
layers = (
{
anchors = (
{
name = bottom;
position = "{257, 0}";
},
{
name = top;
position = "{336, 699}";
}
);
layerId = UUID0;
paths = (
{
closed = 1;
nodes = (
"213 702 OFFCURVE",
"118 641 OFFCURVE",
"109 546 CURVE",
"84 289 OFFCURVE",
"502 411 OFFCURVE",
"476 168 CURVE",
"467 76 OFFCURVE",
"375 17 OFFCURVE",
"242 17 CURVE",
"157 17 OFFCURVE",
"72 53 OFFCURVE",
"24 110 CURVE",
"8 95 LINE",
"61 36 OFFCURVE",
"151 -3 OFFCURVE",
"240 -3 CURVE",
"385 -3 OFFCURVE",
"486 64 OFFCURVE",
"496 168 CURVE",
"525 431 OFFCURVE",
"106 310 OFFCURVE",
"130 546 CURVE",
"138 629 OFFCURVE",
"224 682 OFFCURVE",
"348 682 CURVE",
"410 682 OFFCURVE",
"479 664 OFFCURVE",
"521 635 CURVE",
"533 651 LINE",
"487 682 OFFCURVE",
"415 702 OFFCURVE",
"350 702 CURVE"
);
}
);
width = 591;
},
{
anchors = (
{
name = bottom;
position = "{301, 0}";
},
{
name = top;
position = "{394, 701}";
}
);
layerId = "5DA6E103-6A94-47F2-987D-4952DB8EA68E";
paths = (
{
closed = 1;
nodes = (
"193 710 OFFCURVE",
"62 614 OFFCURVE",
"62 463 CURVE SMOOTH",
"62 242 OFFCURVE",
"393 292 OFFCURVE",
"393 208 CURVE SMOOTH",
"393 181 OFFCURVE",
"369 169 OFFCURVE",
"333 169 CURVE SMOOTH",
"262 169 OFFCURVE",
"143 218 OFFCURVE",
"77 278 CURVE",
"-26 104 LINE",
"60 33 OFFCURVE",
"192 -8 OFFCURVE",
"314 -8 CURVE SMOOTH",
"481 -8 OFFCURVE",
"632 67 OFFCURVE",
"632 237 CURVE SMOOTH",
"632 466 OFFCURVE",
"302 420 OFFCURVE",
"302 502 CURVE SMOOTH",
"302 524 OFFCURVE",
"321 533 OFFCURVE",
"348 533 CURVE SMOOTH",
"409 533 OFFCURVE",
"514 490 OFFCURVE",
"581 451 CURVE",
"683 627 LINE",
"609 677 OFFCURVE",
"497 710 OFFCURVE",
"386 710 CURVE SMOOTH"
);
}
);
width = 650;
},
{
anchors = (
{
name = bottom;
position = "{273, 0}";
},
{
name = top;
position = "{356, 700}";
}
);
layerId = "1C84A7F3-C40A-4DC1-B8B4-102D183C348F";
paths = (
{
closed = 1;
nodes = (
"202 705 OFFCURVE",
"92 630 OFFCURVE",
"80 512 CURVE",
"55 263 OFFCURVE",
"437 352 OFFCURVE",
"421 191 CURVE",
"416 135 OFFCURVE",
"364 102 OFFCURVE",
"282 102 CURVE",
"207 102 OFFCURVE",
"120 138 OFFCURVE",
"55 204 CURVE",
"-6 107 LINE",
"60 42 OFFCURVE",
"159 -4 OFFCURVE",
"269 -4 CURVE",
"423 -4 OFFCURVE",
"541 74 OFFCURVE",
"553 197 CURVE",
"579 448 OFFCURVE",
"198 365 OFFCURVE",
"213 522 CURVE",
"218 571 OFFCURVE",
"266 598 OFFCURVE",
"335 598 CURVE",
"388 598 OFFCURVE",
"462 581 OFFCURVE",
"533 534 CURVE",
"592 633 LINE",
"531 676 OFFCURVE",
"445 705 OFFCURVE",
"354 705 CURVE"
);
}
);
width = 614;
}
);
leftKerningGroup = S;
rightKerningGroup = S;
unicode = 0053;
},
{
glyphname = Germandbls;
layers = (
{
background = {
paths = (
{
closed = 1;
nodes = (
"60 0 LINE",
"80 0 LINE",
"169 456 LINE SMOOTH",
"197 601 OFFCURVE",
"307 679 OFFCURVE",
"453 679 CURVE SMOOTH",
"540 679 OFFCURVE",
"598 657 OFFCURVE",
"639 627 CURVE",
"643 637 LINE",
"391 385 LINE",
"387 365 LINE",
"392 365 LINE",
"521 365 OFFCURVE",
"589 313 OFFCURVE",
"589 230 CURVE SMOOTH",
"589 104 OFFCURVE",
"475 20 OFFCURVE",
"334 20 CURVE SMOOTH",
"249 20 LINE",
"245 0 LINE",
"330 0 LINE SMOOTH",
"482 0 OFFCURVE",
"610 93 OFFCURVE",
"610 233 CURVE SMOOTH",
"610 319 OFFCURVE",
"545 385 OFFCURVE",
"397 385 CURVE",
"404 375 LINE",
"650 620 LINE",
"653 640 LINE",
"614 670 OFFCURVE",
"552 699 OFFCURVE",
"457 699 CURVE SMOOTH",
"299 699 OFFCURVE",
"179 613 OFFCURVE",
"149 456 CURVE SMOOTH"
);
}
);
};
layerId = UUID0;
paths = (
{
closed = 1;
nodes = (
"60 0 LINE",
"80 0 LINE",
"170 459 LINE SMOOTH",
"198 604 OFFCURVE",
"308 682 OFFCURVE",
"454 682 CURVE SMOOTH",
"541 682 OFFCURVE",
"599 660 OFFCURVE",
"640 630 CURVE",
"644 640 LINE",
"391 385 LINE",
"387 365 LINE",
"392 365 LINE",
"521 365 OFFCURVE",
"589 313 OFFCURVE",
"589 230 CURVE SMOOTH",
"589 104 OFFCURVE",
"475 20 OFFCURVE",
"334 20 CURVE SMOOTH",
"249 20 LINE",
"245 0 LINE",
"330 0 LINE SMOOTH",
"482 0 OFFCURVE",
"610 93 OFFCURVE",
"610 233 CURVE SMOOTH",
"610 319 OFFCURVE",
"545 385 OFFCURVE",
"397 385 CURVE",
"404 375 LINE",
"651 623 LINE",
"654 643 LINE",
"615 673 OFFCURVE",
"553 702 OFFCURVE",
"458 702 CURVE SMOOTH",
"300 702 OFFCURVE",
"181 616 OFFCURVE",
"150 459 CURVE SMOOTH"
);
}
);
width = 691;
},
{
background = {
paths = (
{
closed = 1;
nodes = (
"28 0 LINE",
"146 0 LINE",
"228 425 LINE SMOOTH",
"250 537 OFFCURVE",
"327 603 OFFCURVE",
"436 603 CURVE SMOOTH",
"515 603 OFFCURVE",
"559 577 OFFCURVE",
"590 544 CURVE",
"604 612 LINE",
"388 410 LINE",
"369 310 LINE",
"414 310 LINE SMOOTH",
"481 310 OFFCURVE",
"518 281 OFFCURVE",
"518 229 CURVE SMOOTH",
"518 154 OFFCURVE",
"460 100 OFFCURVE",
"373 100 CURVE SMOOTH",
"292 100 LINE",
"273 0 LINE",
"354 0 LINE SMOOTH",
"516 0 OFFCURVE",
"640 98 OFFCURVE",
"640 249 CURVE SMOOTH",
"640 349 OFFCURVE",
"566 410 OFFCURVE",
"434 410 CURVE",
"447 340 LINE",
"650 530 LINE",
"668 625 LINE",
"626 665 OFFCURVE",
"558 703 OFFCURVE",
"452 703 CURVE SMOOTH",
"271 703 OFFCURVE",
"144 600 OFFCURVE",
"110 425 CURVE SMOOTH"
);
}
);
};
layerId = "1C84A7F3-C40A-4DC1-B8B4-102D183C348F";
paths = (
{
closed = 1;
nodes = (
"28 0 LINE",
"146 0 LINE",
"229 429 LINE SMOOTH",
"251 541 OFFCURVE",
"328 607 OFFCURVE",
"437 607 CURVE SMOOTH",
"516 607 OFFCURVE",
"560 581 OFFCURVE",
"591 548 CURVE",
"605 616 LINE",
"388 410 LINE",
"369 310 LINE",
"414 310 LINE SMOOTH",
"481 310 OFFCURVE",
"518 281 OFFCURVE",
"518 229 CURVE SMOOTH",
"518 154 OFFCURVE",
"460 100 OFFCURVE",
"373 100 CURVE SMOOTH",
"292 100 LINE",
"273 0 LINE",
"354 0 LINE SMOOTH",
"516 0 OFFCURVE",
"640 98 OFFCURVE",
"640 249 CURVE SMOOTH",
"640 349 OFFCURVE",
"566 410 OFFCURVE",
"434 410 CURVE",
"447 340 LINE",
"651 534 LINE",
"669 629 LINE",
"627 669 OFFCURVE",
"559 707 OFFCURVE",
"453 707 CURVE SMOOTH",
"272 707 OFFCURVE",
"145 604 OFFCURVE",
"111 429 CURVE SMOOTH"
);
}
);
width = 696;
},
{
background = {
paths = (
{
closed = 1;
nodes = (
"-13 0 LINE",
"218 0 LINE",
"289 365 LINE SMOOTH",
"308 464 OFFCURVE",
"376 523 OFFCURVE",
"472 523 CURVE SMOOTH",
"542 523 OFFCURVE",
"580 497 OFFCURVE",
"607 464 CURVE",
"616 612 LINE",
"410 410 LINE",
"387 290 LINE",
"403 290 LINE SMOOTH",
"458 290 OFFCURVE",
"485 268 OFFCURVE",
"478 231 CURVE SMOOTH",
"471 193 OFFCURVE",
"433 170 OFFCURVE",
"379 170 CURVE SMOOTH",
"338 170 LINE",
"305 0 LINE",
"387 0 LINE SMOOTH",
"579 0 OFFCURVE",
"690 84 OFFCURVE",
"714 208 CURVE SMOOTH",
"738 332 OFFCURVE",
"659 410 OFFCURVE",
"507 410 CURVE",
"546 320 LINE",
"702 478 LINE",
"733 637 LINE",
"672 680 OFFCURVE",
"588 707 OFFCURVE",
"487 707 CURVE SMOOTH",
"259 707 OFFCURVE",
"99 573 OFFCURVE",
"54 345 CURVE SMOOTH"
);
}
);
};
layerId = "5DA6E103-6A94-47F2-987D-4952DB8EA68E";
paths = (
{
closed = 1;
nodes = (
"-13 0 LINE",
"218 0 LINE",
"290 369 LINE SMOOTH",
"309 468 OFFCURVE",
"377 527 OFFCURVE",
"473 527 CURVE SMOOTH",
"543 527 OFFCURVE",
"581 501 OFFCURVE",
"608 468 CURVE",
"616 612 LINE",
"410 410 LINE",
"387 290 LINE",
"403 290 LINE SMOOTH",
"458 290 OFFCURVE",
"485 268 OFFCURVE",
"478 231 CURVE SMOOTH",
"471 193 OFFCURVE",
"433 170 OFFCURVE",
"379 170 CURVE SMOOTH",
"338 170 LINE",
"305 0 LINE",
"387 0 LINE SMOOTH",
"579 0 OFFCURVE",
"690 84 OFFCURVE",
"714 208 CURVE SMOOTH",
"738 332 OFFCURVE",
"659 410 OFFCURVE",
"507 410 CURVE",
"546 320 LINE",
"703 482 LINE",
"734 641 LINE",
"673 684 OFFCURVE",
"589 711 OFFCURVE",
"488 711 CURVE SMOOTH",
"260 711 OFFCURVE",
"99 577 OFFCURVE",
"55 349 CURVE SMOOTH"
);
}
);
width = 747;
}
);
leftMetricsKey = "=U";
rightMetricsKey = "=B";
unicode = 1E9E;
},
{
glyphname = Schwa;
layers = (
{
background = {
paths = (
{
closed = 1;
nodes = (
"587 0 OFFCURVE",
"767 174 OFFCURVE",
"767 381 CURVE SMOOTH",
"767 559 OFFCURVE",
"630 699 OFFCURVE",
"448 699 CURVE SMOOTH",
"341 699 OFFCURVE",
"241 653 OFFCURVE",
"168 580 CURVE",
"180 565 LINE",
"249 635 OFFCURVE",
"344 679 OFFCURVE",
"446 679 CURVE SMOOTH",
"627 679 OFFCURVE",
"762 531 OFFCURVE",
"746 350 CURVE",
"68 350 LINE",
"67 340 OFFCURVE",
"67 329 OFFCURVE",
"67 319 CURVE SMOOTH",
"67 141 OFFCURVE",
"204 0 OFFCURVE",
"386 0 CURVE SMOOTH"
);
},
{
closed = 1;
nodes = (
"214 20 OFFCURVE",
"82 158 OFFCURVE",
"87 330 CURVE",
"743 330 LINE",
"718 158 OFFCURVE",
"562 20 OFFCURVE",
"388 20 CURVE SMOOTH"
);
}
);
};
layerId = UUID0;
paths = (
{
closed = 1;
nodes = (
"630 699 OFFCURVE",
"767 559 OFFCURVE",
"767 381 CURVE SMOOTH",
"767 174 OFFCURVE",
"587 0 OFFCURVE",
"386 0 CURVE SMOOTH",
"204 0 OFFCURVE",
"67 141 OFFCURVE",
"67 319 CURVE SMOOTH",
"67 329 OFFCURVE",
"67 340 OFFCURVE",
"68 350 CURVE",
"756 350 LINE",
"753 330 LINE",
"87 330 LINE",
"82 158 OFFCURVE",
"214 20 OFFCURVE",
"388 20 CURVE SMOOTH",
"577 20 OFFCURVE",
"747 183 OFFCURVE",
"747 380 CURVE SMOOTH",
"747 546 OFFCURVE",
"617 679 OFFCURVE",
"446 679 CURVE SMOOTH",
"344 679 OFFCURVE",
"249 635 OFFCURVE",
"180 565 CURVE",
"168 580 LINE",
"241 653 OFFCURVE",
"341 699 OFFCURVE",
"448 699 CURVE SMOOTH"
);
}
);
width = 800;
},
{
background = {
paths = (
{
closed = 0;
nodes = (
"641 279 LINE",
"603 169 OFFCURVE",
"507 95 OFFCURVE",
"394 95 CURVE SMOOTH",
"275 95 OFFCURVE",
"193 169 OFFCURVE",
"176 279 CURVE",
"681 279 LINE",
"696 380 LINE",
"57 380 LINE",
"56 365 OFFCURVE",
"55 350 OFFCURVE",
"55 336 CURVE SMOOTH",
"55 134 OFFCURVE",
"184 -5 OFFCURVE",
"384 -5 CURVE SMOOTH",
"593 -5 OFFCURVE",
"771 167 OFFCURVE",
"771 382 CURVE SMOOTH",
"771 565 OFFCURVE",
"635 703 OFFCURVE",
"446 703 CURVE SMOOTH",
"320 703 OFFCURVE",
"226 655 OFFCURVE",
"149 578 CURVE",
"227 502 LINE",
"279 564 OFFCURVE",
"356 603 OFFCURVE",
"438 603 CURVE SMOOTH",
"560 603 OFFCURVE",
"653 507 OFFCURVE",
"656 380 CURVE"
);
}
);
};
layerId = "1C84A7F3-C40A-4DC1-B8B4-102D183C348F";
paths = (
{
closed = 1;
nodes = (
"635 703 OFFCURVE",
"771 565 OFFCURVE",
"771 382 CURVE SMOOTH",
"771 167 OFFCURVE",
"593 -5 OFFCURVE",
"384 -5 CURVE SMOOTH",
"184 -5 OFFCURVE",
"55 134 OFFCURVE",
"55 336 CURVE SMOOTH",
"55 350 OFFCURVE",
"56 365 OFFCURVE",
"57 380 CURVE",
"696 380 LINE",
"681 279 LINE",
"176 279 LINE",
"193 169 OFFCURVE",
"275 95 OFFCURVE",
"394 95 CURVE SMOOTH",
"525 95 OFFCURVE",
"656 201 OFFCURVE",
"656 380 CURVE SMOOTH",
"656 505 OFFCURVE",
"560 603 OFFCURVE",
"438 603 CURVE SMOOTH",
"356 603 OFFCURVE",
"279 564 OFFCURVE",
"227 502 CURVE",
"149 578 LINE",
"226 655 OFFCURVE",
"320 703 OFFCURVE",
"446 703 CURVE SMOOTH"
);
}
);
width = 789;
},
{
background = {
paths = (
{
closed = 0;
nodes = (
"529 271 LINE",
"506 218 OFFCURVE",
"461 183 OFFCURVE",
"399 183 CURVE SMOOTH",
"340 183 OFFCURVE",
"299 218 OFFCURVE",
"281 271 CURVE",
"539 271 LINE",
"557 397 LINE",
"40 397 LINE",
"39 380 OFFCURVE",
"38 363 OFFCURVE",
"38 347 CURVE SMOOTH",
"38 129 OFFCURVE",
"169 -10 OFFCURVE",
"380 -10 CURVE SMOOTH",
"608 -10 OFFCURVE",
"787 162 OFFCURVE",
"787 385 CURVE SMOOTH",
"787 574 OFFCURVE",
"647 708 OFFCURVE",
"442 708 CURVE SMOOTH",
"325 708 OFFCURVE",
"221 667 OFFCURVE",
"147 598 CURVE",
"291 433 LINE",
"322 483 OFFCURVE",
"374 515 OFFCURVE",
"429 515 CURVE SMOOTH",
"495 515 OFFCURVE",
"539 468 OFFCURVE",
"547 397 CURVE"
);
}
);
};
layerId = "5DA6E103-6A94-47F2-987D-4952DB8EA68E";
paths = (
{
closed = 1;
nodes = (
"647 708 OFFCURVE",
"787 574 OFFCURVE",
"787 385 CURVE SMOOTH",
"787 162 OFFCURVE",
"608 -10 OFFCURVE",
"380 -10 CURVE SMOOTH",
"169 -10 OFFCURVE",
"38 129 OFFCURVE",
"38 347 CURVE SMOOTH",
"38 363 OFFCURVE",
"39 380 OFFCURVE",
"40 397 CURVE",
"607 397 LINE",
"589 271 LINE",
"281 271 LINE",
"299 218 OFFCURVE",
"340 183 OFFCURVE",
"399 183 CURVE SMOOTH",
"495 183 OFFCURVE",
"549 269 OFFCURVE",
"549 368 CURVE SMOOTH",
"549 451 OFFCURVE",
"507 515 OFFCURVE",
"429 515 CURVE SMOOTH",
"374 515 OFFCURVE",
"322 483 OFFCURVE",
"291 433 CURVE",
"147 598 LINE",
"221 667 OFFCURVE",
"325 708 OFFCURVE",
"442 708 CURVE SMOOTH"
);
}
);
width = 788;
}
);
leftMetricsKey = "=C";
rightMetricsKey = "=O";
unicode = 018F;
},
{
glyphname = Schwa.ss01;
layers = (
{
background = {
paths = (
{
closed = 1;
nodes = (
"678 167 OFFCURVE",
"515 20 OFFCURVE",
"336 20 CURVE SMOOTH",
"215 20 OFFCURVE",
"113 88 OFFCURVE",
"64 189 CURVE",
"697 442 LINE",
"692 459 LINE",
"38 198 LINE",
"86 80 OFFCURVE",
"198 0 OFFCURVE",
"334 0 CURVE SMOOTH",
"526 0 OFFCURVE",
"697 158 OFFCURVE",
"714 350 CURVE SMOOTH",
"731 542 OFFCURVE",
"588 699 OFFCURVE",
"396 699 CURVE SMOOTH",
"289 699 OFFCURVE",
"188 653 OFFCURVE",
"116 580 CURVE",
"128 565 LINE",
"197 635 OFFCURVE",
"292 679 OFFCURVE",
"394 679 CURVE SMOOTH",
"577 679 OFFCURVE",
"710 529 OFFCURVE",
"694 350 CURVE SMOOTH"
);
}
);
};
layerId = UUID0;
paths = (
{
closed = 1;
nodes = (
"528 20 OFFCURVE",
"336 20 CURVE SMOOTH",
"215 20 OFFCURVE",
"113 88 OFFCURVE",
"64 189 CURVE",
"697 442 LINE",
"692 459 LINE",
"38 198 LINE",
"86 80 OFFCURVE",
"198 0 OFFCURVE",
"334 0 CURVE SMOOTH",
"535 0 OFFCURVE",
"715 174 OFFCURVE",
"715 381 CURVE SMOOTH",
"715 559 OFFCURVE",
"578 699 OFFCURVE",
"396 699 CURVE SMOOTH",
"289 699 OFFCURVE",
"188 653 OFFCURVE",
"116 580 CURVE",
"128 565 LINE",
"197 635 OFFCURVE",
"292 679 OFFCURVE",
"394 679 CURVE SMOOTH",
"567 679 OFFCURVE",
"695 545 OFFCURVE",
"695 379 CURVE SMOOTH",
"695 187 OFFCURVE"
);
}
);
width = 748;
},
{
background = {
paths = (
{
closed = 1;
nodes = (
"617 215 OFFCURVE",
"516 95 OFFCURVE",
"368 95 CURVE SMOOTH",
"263 95 OFFCURVE",
"202 151 OFFCURVE",
"173 206 CURVE",
"659 390 LINE",
"630 487 LINE",
"34 263 LINE",
"60 120 OFFCURVE",
"166 -5 OFFCURVE",
"358 -5 CURVE SMOOTH",
"558 -5 OFFCURVE",
"727 151 OFFCURVE",
"744 350 CURVE SMOOTH",
"761 549 OFFCURVE",
"620 703 OFFCURVE",
"420 703 CURVE SMOOTH",
"294 703 OFFCURVE",
"200 655 OFFCURVE",
"123 578 CURVE",
"201 502 LINE",
"253 564 OFFCURVE",
"330 603 OFFCURVE",
"412 603 CURVE SMOOTH",
"544 603 OFFCURVE",
"642 492 OFFCURVE",
"629 347 CURVE SMOOTH"
);
}
);
};
layerId = "1C84A7F3-C40A-4DC1-B8B4-102D183C348F";
paths = (
{
closed = 1;
nodes = (
"519 95 OFFCURVE",
"368 95 CURVE SMOOTH",
"263 95 OFFCURVE",
"202 151 OFFCURVE",
"173 206 CURVE",
"659 390 LINE",
"630 487 LINE",
"34 263 LINE",
"60 120 OFFCURVE",
"166 -5 OFFCURVE",
"358 -5 CURVE SMOOTH",
"567 -5 OFFCURVE",
"745 167 OFFCURVE",
"745 382 CURVE SMOOTH",
"745 565 OFFCURVE",
"609 703 OFFCURVE",
"420 703 CURVE SMOOTH",
"294 703 OFFCURVE",
"200 655 OFFCURVE",
"123 578 CURVE",
"201 502 LINE",
"253 564 OFFCURVE",
"330 603 OFFCURVE",
"412 603 CURVE SMOOTH",
"536 603 OFFCURVE",
"630 505 OFFCURVE",
"630 373 CURVE SMOOTH",
"630 224 OFFCURVE"
);
}
);
width = 763;
},
{
layerId = "5DA6E103-6A94-47F2-987D-4952DB8EA68E";
paths = (
{
closed = 1;
nodes = (
"465 183 OFFCURVE",
"367 183 CURVE SMOOTH",
"325 183 OFFCURVE",
"291 201 OFFCURVE",
"270 231 CURVE",
"576 348 LINE",
"537 465 LINE",
"13 265 LINE",
"35 129 OFFCURVE",
"132 -10 OFFCURVE",
"349 -10 CURVE SMOOTH",
"577 -10 OFFCURVE",
"756 163 OFFCURVE",
"756 385 CURVE SMOOTH",
"756 574 OFFCURVE",
"615 708 OFFCURVE",
"410 708 CURVE SMOOTH",
"293 708 OFFCURVE",
"189 667 OFFCURVE",
"115 598 CURVE",
"259 433 LINE",
"290 483 OFFCURVE",
"342 515 OFFCURVE",
"398 515 CURVE SMOOTH",
"465 515 OFFCURVE",
"517 463 OFFCURVE",
"517 370 CURVE SMOOTH",
"517 270 OFFCURVE"
);
}
);
width = 757;
}
);
leftMetricsKey = "=C";
rightMetricsKey = "=O";
},
{
color = 1;
glyphname = T;
layers = (
{
anchors = (
{
name = bottom;
position = "{210, 0}";
},
{
name = center;
position = "{281, 350}";
},
{
name = top;
position = "{356, 699}";
}
);
layerId = UUID0;
paths = (
{
closed = 1;
nodes = (
"101 699 LINE",
"97 679 LINE",
"337 679 LINE",
"201 0 LINE",
"221 0 LINE",
"357 679 LINE",
"597 679 LINE",
"601 699 LINE"
);
}
);
width = 526;
},
{
anchors = (
{
name = bottom;
position = "{265, 0}";
},
{
name = center;
position = "{327, 300}";
},
{
name = top;
position = "{423, 701}";
}
);
layerId = "5DA6E103-6A94-47F2-987D-4952DB8EA68E";
paths = (
{
closed = 1;
nodes = (
"91 701 LINE",
"54 518 LINE",
"253 518 LINE",
"149 0 LINE",
"381 0 LINE",
"485 518 LINE",
"685 518 LINE",
"722 701 LINE"
);
}
);
width = 642;
},
{
anchors = (
{
name = bottom;
position = "{236, 0}";
},
{
name = center;
position = "{299, 330}";
},
{
name = top;
position = "{384, 700}";
}
);
layerId = "1C84A7F3-C40A-4DC1-B8B4-102D183C348F";
paths = (
{
closed = 1;
nodes = (
"96 700 LINE",
"76 599 LINE",
"297 599 LINE",
"177 0 LINE",
"295 0 LINE",
"415 599 LINE",
"637 599 LINE",
"657 700 LINE"
);
}
);
width = 579;
}
);
leftKerningGroup = T;
rightKerningGroup = T;
unicode = 0054;
},
{
color = 1;
glyphname = T.ss01;
layers = (
{
anchors = (
{
name = bottom;
position = "{250, 0}";
},
{
name = center;
position = "{321, 350}";
},
{
name = top;
position = "{394, 699}";
}
);
layerId = UUID0;
paths = (
{
closed = 1;
nodes = (
"299 699 OFFCURVE",
"202 677 OFFCURVE",
"118 637 CURVE",
"125 620 LINE",
"207 658 OFFCURVE",
"302 679 OFFCURVE",
"388 679 CURVE SMOOTH",
"474 679 OFFCURVE",
"560 658 OFFCURVE",
"627 620 CURVE",
"637 636 LINE",
"567 677 OFFCURVE",
"480 699 OFFCURVE",
"388 699 CURVE SMOOTH"
);
},
{
closed = 1;
nodes = (
"378 686 LINE",
"241 0 LINE",
"261 0 LINE",
"398 686 LINE"
);
}
);
width = 604;
},
{
anchors = (
{
name = bottom;
position = "{296, 0}";
},
{
name = center;
position = "{352, 300}";
},
{
name = top;
position = "{442, 701}";
}
);
layerId = "5DA6E103-6A94-47F2-987D-4952DB8EA68E";
paths = (
{
closed = 1;
nodes = (
"315 711 OFFCURVE",
"190 681 OFFCURVE",
"81 627 CURVE",
"105 456 LINE",
"193 496 OFFCURVE",
"295 521 OFFCURVE",
"400 521 CURVE SMOOTH",
"504 521 OFFCURVE",
"595 497 OFFCURVE",
"671 456 CURVE",
"763 626 LINE",
"674 681 OFFCURVE",
"561 711 OFFCURVE",
"438 711 CURVE SMOOTH"
);
},
{
closed = 1;
nodes = (
"301 601 LINE",
"181 0 LINE",
"413 0 LINE",
"533 601 LINE"
);
}
);
width = 713;
},
{
anchors = (
{
name = bottom;
position = "{270, 0}";
},
{
name = center;
position = "{333, 330}";
},
{
name = top;
position = "{412, 700}";
}
);
layerId = "1C84A7F3-C40A-4DC1-B8B4-102D183C348F";
paths = (
{
closed = 1;
nodes = (
"304 705 OFFCURVE",
"195 679 OFFCURVE",
"100 632 CURVE",
"120 535 LINE",
"202 574 OFFCURVE",
"298 597 OFFCURVE",
"388 597 CURVE SMOOTH",
"479 597 OFFCURVE",
"565 575 OFFCURVE",
"633 535 CURVE",
"693 631 LINE",
"615 679 OFFCURVE",
"515 705 OFFCURVE",
"409 705 CURVE SMOOTH"
);
},
{
closed = 1;
nodes = (
"340 647 LINE",
"211 0 LINE",
"329 0 LINE",
"458 647 LINE"
);
}
);
width = 652;
}
);
leftKerningGroup = T;
rightKerningGroup = T;
},
{
color = 1;
glyphname = U;
layers = (
{
anchors = (
{
name = bottom;
position = "{335, 0}";
},
{
name = ogonek;
position = "{521, 0}";
},
{
name = top;
position = "{475, 699}";
},
{
name = topright;
position = "{742, 699}";
}
);
background = {
paths = (
{
closed = 1;
nodes = (
"217 699 LINE",
"197 699 LINE",
"116 284 LINE SMOOTH",
"81 103 OFFCURVE",
"162 0 OFFCURVE",
"338 0 CURVE SMOOTH",
"514 0 OFFCURVE",
"635 103 OFFCURVE",
"670 284 CURVE SMOOTH",
"751 699 LINE",
"731 699 LINE",
"650 284 LINE SMOOTH",
"617 116 OFFCURVE",
"505 20 OFFCURVE",
"342 20 CURVE SMOOTH",
"179 20 OFFCURVE",
"103 116 OFFCURVE",
"136 284 CURVE SMOOTH"
);
}
);
};
layerId = UUID0;
paths = (
{
closed = 1;
nodes = (
"732 699 LINE",
"649 284 LINE",
"615 116 OFFCURVE",
"512 20 OFFCURVE",
"349 20 CURVE",
"186 20 OFFCURVE",
"101 116 OFFCURVE",
"135 284 CURVE",
"218 699 LINE",
"198 699 LINE",
"115 284 LINE",
"79 103 OFFCURVE",
"169 0 OFFCURVE",
"345 0 CURVE",
"521 0 OFFCURVE",
"633 103 OFFCURVE",
"669 284 CURVE",
"752 699 LINE"
);
}
);
width = 774;
},
{
anchors = (
{
name = bottom;
position = "{322, 0}";
},
{
name = ogonek;
position = "{573, 0}";
},
{
name = top;
position = "{462, 701}";
},
{
name = topright;
position = "{749, 701}";
}
);
background = {
paths = (
{
closed = 1;
nodes = (
"356 701 LINE",
"124 701 LINE",
"46 297 LINE SMOOTH",
"10 111 OFFCURVE",
"121 -10 OFFCURVE",
"325 -10 CURVE SMOOTH",
"528 -10 OFFCURVE",
"683 111 OFFCURVE",
"719 297 CURVE SMOOTH",
"797 701 LINE",
"565 701 LINE",
"487 297 LINE SMOOTH",
"473 227 OFFCURVE",
"420 183 OFFCURVE",
"363 183 CURVE SMOOTH",
"305 183 OFFCURVE",
"265 228 OFFCURVE",
"278 297 CURVE SMOOTH"
);
}
);
};
layerId = "5DA6E103-6A94-47F2-987D-4952DB8EA68E";
paths = (
{
closed = 1;
nodes = (
"567 701 LINE",
"486 297 LINE SMOOTH",
"472 227 OFFCURVE",
"419 183 OFFCURVE",
"362 183 CURVE SMOOTH",
"304 183 OFFCURVE",
"263 228 OFFCURVE",
"277 297 CURVE SMOOTH",
"358 701 LINE",
"126 701 LINE",
"45 297 LINE SMOOTH",
"8 111 OFFCURVE",
"129 -10 OFFCURVE",
"333 -10 CURVE SMOOTH",
"536 -10 OFFCURVE",
"681 111 OFFCURVE",
"718 297 CURVE SMOOTH",
"799 701 LINE"
);
}
);
width = 754;
},
{
anchors = (
{
name = bottom;
position = "{329, 0}";
},
{
name = ogonek;
position = "{535, 0}";
},
{
name = top;
position = "{469, 700}";
},
{
name = topright;
position = "{744, 700}";
}
);
background = {
paths = (
{
closed = 1;
nodes = (
"281 700 LINE",
"163 700 LINE",
"84 290 LINE SMOOTH",
"49 107 OFFCURVE",
"143 -5 OFFCURVE",
"332 -5 CURVE SMOOTH",
"520 -5 OFFCURVE",
"656 107 OFFCURVE",
"692 290 CURVE SMOOTH",
"772 700 LINE",
"654 700 LINE",
"575 290 LINE SMOOTH",
"551 167 OFFCURVE",
"466 95 OFFCURVE",
"352 95 CURVE SMOOTH",
"237 95 OFFCURVE",
"177 168 OFFCURVE",
"201 290 CURVE SMOOTH"
);
}
);
};
layerId = "1C84A7F3-C40A-4DC1-B8B4-102D183C348F";
paths = (
{
closed = 1;
nodes = (
"656 700 LINE",
"574 290 LINE",
"549 167 OFFCURVE",
"464 95 OFFCURVE",
"350 95 CURVE",
"235 95 OFFCURVE",
"176 168 OFFCURVE",
"201 290 CURVE",
"282 700 LINE",
"165 700 LINE",
"83 290 LINE",
"46 107 OFFCURVE",
"150 -5 OFFCURVE",
"339 -5 CURVE",
"528 -5 OFFCURVE",
"655 107 OFFCURVE",
"692 290 CURVE",
"774 700 LINE"
);
}
);
width = 764;
}
);
leftKerningGroup = U;
rightKerningGroup = U;
unicode = 0055;
},
{
color = 1;
glyphname = Uogonek;
layers = (
{
background = {
paths = (
{
closed = 1;
nodes = (
"732 699 LINE",
"649 285 LINE",
"615 117 OFFCURVE",
"501 20 OFFCURVE",
"337 20 CURVE",
"175 20 OFFCURVE",
"101 115 OFFCURVE",
"135 283 CURVE",
"218 699 LINE",
"198 699 LINE",
"115 285 LINE",
"79 104 OFFCURVE",
"160 0 OFFCURVE",
"337 0 CURVE",
"512 0 OFFCURVE",
"632 102 OFFCURVE",
"669 283 CURVE",
"752 699 LINE"
);
},
{
closed = 1;
nodes = (
"417 24 LINE",
"347 -49 OFFCURVE",
"319 -92 OFFCURVE",
"311 -129 CURVE SMOOTH",
"303 -171 OFFCURVE",
"326 -199 OFFCURVE",
"363 -199 CURVE SMOOTH",
"389 -199 OFFCURVE",
"421 -182 OFFCURVE",
"444 -160 CURVE",
"431 -144 LINE",
"409 -164 OFFCURVE",
"386 -179 OFFCURVE",
"363 -179 CURVE SMOOTH",
"339 -179 OFFCURVE",
"324 -163 OFFCURVE",
"330 -133 CURVE SMOOTH",
"338 -96 OFFCURVE",
"361 -56 OFFCURVE",
"436 22 CURVE"
);
}
);
};
components = (
{
name = U;
},
{
name = ogonekcomb.cueve;
transform = "{1, 0, 0, 1, 382, 0}";
}
);
layerId = UUID0;
width = 774;
},
{
background = {
paths = (
{
closed = 1;
nodes = (
"567 701 LINE",
"486 297 LINE SMOOTH",
"472 227 OFFCURVE",
"419 183 OFFCURVE",
"362 183 CURVE SMOOTH",
"304 183 OFFCURVE",
"263 228 OFFCURVE",
"277 297 CURVE SMOOTH",
"358 701 LINE",
"126 701 LINE",
"45 297 LINE SMOOTH",
"8 111 OFFCURVE",
"119 -10 OFFCURVE",
"323 -10 CURVE SMOOTH",
"526 -10 OFFCURVE",
"681 111 OFFCURVE",
"718 297 CURVE SMOOTH",
"799 701 LINE"
);
},
{
closed = 1;
nodes = (
"376 24 LINE",
"331 -24 OFFCURVE",
"286 -78 OFFCURVE",
"286 -134 CURVE SMOOTH",
"286 -188 OFFCURVE",
"330 -204 OFFCURVE",
"367 -204 CURVE SMOOTH",
"416 -204 OFFCURVE",
"464 -179 OFFCURVE",
"502 -128 CURVE",
"460 -64 LINE",
"445 -83 OFFCURVE",
"430 -94 OFFCURVE",
"417 -94 CURVE SMOOTH",
"410 -94 OFFCURVE",
"405 -90 OFFCURVE",
"405 -82 CURVE SMOOTH",
"405 -63 OFFCURVE",
"439 -22 OFFCURVE",
"481 24 CURVE"
);
}
);
};
components = (
{
name = U;
},
{
name = ogonekcomb.cueve;
transform = "{1, 0, 0, 1, 326, 0}";
}
);
layerId = "5DA6E103-6A94-47F2-987D-4952DB8EA68E";
width = 754;
},
{
background = {
paths = (
{
closed = 1;
nodes = (
"656 700 LINE",
"574 290 LINE SMOOTH",
"549 167 OFFCURVE",
"464 95 OFFCURVE",
"350 95 CURVE SMOOTH",
"235 95 OFFCURVE",
"176 168 OFFCURVE",
"200 290 CURVE SMOOTH",
"282 700 LINE",
"165 700 LINE",
"83 290 LINE SMOOTH",
"46 107 OFFCURVE",
"140 -5 OFFCURVE",
"329 -5 CURVE SMOOTH",
"517 -5 OFFCURVE",
"655 107 OFFCURVE",
"692 290 CURVE SMOOTH",
"774 700 LINE"
);
},
{
closed = 1;
nodes = (
"380 13 LINE SMOOTH",
"321 -50 OFFCURVE",
"289 -95 OFFCURVE",
"289 -139 CURVE",
"289 -182 OFFCURVE",
"321 -201 OFFCURVE",
"355 -201 CURVE",
"392 -201 OFFCURVE",
"431 -180 OFFCURVE",
"461 -145 CURVE SMOOTH",
"435 -108 LINE SMOOTH",
"417 -127 OFFCURVE",
"398 -140 OFFCURVE",
"379 -140 CURVE",
"365 -140 OFFCURVE",
"356 -131 OFFCURVE",
"356 -115 CURVE",
"356 -88 OFFCURVE",
"381 -51 OFFCURVE",
"439 13 CURVE SMOOTH"
);
}
);
};
components = (
{
name = U;
},
{
name = ogonekcomb.cueve;
transform = "{1, 0, 0, 1, 344, 0}";
}
);
layerId = "1C84A7F3-C40A-4DC1-B8B4-102D183C348F";
width = 764;
}
);
leftKerningGroup = U;
rightKerningGroup = U;
unicode = 0172;
},
{
color = 1;
glyphname = V;
layers = (
{
layerId = UUID0;
paths = (
{
closed = 1;
nodes = (
"680 699 LINE",
"289 23 LINE",
"121 699 LINE",
"98 699 LINE",
"274 0 LINE",
"296 0 LINE",
"704 699 LINE"
);
}
);
width = 626;
},
{
layerId = "5DA6E103-6A94-47F2-987D-4952DB8EA68E";
paths = (
{
closed = 1;
nodes = (
"617 701 LINE",
"397 241 LINE",
"328 701 LINE",
"80 701 LINE",
"230 0 LINE",
"470 0 LINE",
"854 701 LINE"
);
}
);
width = 764;
},
{
layerId = "1C84A7F3-C40A-4DC1-B8B4-102D183C348F";
paths = (
{
closed = 1;
nodes = (
"651 700 LINE",
"338 124 LINE",
"217 700 LINE",
"90 700 LINE",
"253 0 LINE",
"376 0 LINE",
"774 700 LINE"
);
}
);
width = 690;
}
);
leftKerningGroup = V;
rightKerningGroup = V;
unicode = 0056;
},
{
color = 1;
glyphname = W;
layers = (
{
anchors = (
{
name = top;
position = "{482, 699}";
}
);
layerId = UUID0;
paths = (
{
closed = 1;
nodes = (
"1042 699 LINE",
"706 23 LINE",
"593 699 LINE",
"570 699 LINE",
"234 23 LINE",
"121 699 LINE",
"98 699 LINE",
"219 0 LINE",
"240 0 LINE",
"577 671 LINE",
"691 0 LINE",
"712 0 LINE",
"1065 699 LINE"
);
}
);
width = 987;
},
{
anchors = (
{
name = top;
position = "{591, 701}";
}
);
layerId = "5DA6E103-6A94-47F2-987D-4952DB8EA68E";
paths = (
{
closed = 1;
nodes = (
"974 701 LINE",
"794 241 LINE",
"764 701 LINE",
"538 700 LINE",
"358 241 LINE",
"328 701 LINE",
"80 701 LINE",
"191 0 LINE",
"430 0 LINE",
"600 419 LINE",
"627 0 LINE",
"866 0 LINE",
"1211 701 LINE"
);
}
);
width = 1121;
},
{
anchors = (
{
name = top;
position = "{610, 700}";
}
);
layerId = "1C84A7F3-C40A-4DC1-B8B4-102D183C348F";
paths = (
{
closed = 1;
nodes = (
"1011 700 LINE",
"747 124 LINE",
"672 700 LINE",
"556 699 LINE",
"292 124 LINE",
"217 700 LINE",
"90 700 LINE",
"207 0 LINE",
"328 0 LINE",
"588 555 LINE",
"662 0 LINE",
"784 0 LINE",
"1133 700 LINE"
);
}
);
width = 1036;
}
);
leftKerningGroup = V;
rightKerningGroup = V;
unicode = 0057;
},
{
color = 1;
glyphname = W.ss01;
layers = (
{
anchors = (
{
name = top;
position = "{689, 699}";
}
);
layerId = UUID0;
paths = (
{
closed = 1;
nodes = (
"1160 699 LINE",
"1067 235 LINE SMOOTH",
"1041 105 OFFCURVE",
"934 20 OFFCURVE",
"795 20 CURVE SMOOTH",
"655 20 OFFCURVE",
"581 103 OFFCURVE",
"607 233 CURVE SMOOTH",
"700 699 LINE",
"680 699 LINE",
"587 235 LINE SMOOTH",
"561 105 OFFCURVE",
"451 20 OFFCURVE",
"307 20 CURVE SMOOTH",
"170 20 OFFCURVE",
"99 103 OFFCURVE",
"125 233 CURVE SMOOTH",
"218 699 LINE",
"198 699 LINE",
"105 235 LINE SMOOTH",
"77 93 OFFCURVE",
"156 0 OFFCURVE",
"307 0 CURVE SMOOTH",
"427 0 OFFCURVE",
"534 60 OFFCURVE",
"581 155 CURVE",
"589 62 OFFCURVE",
"673 0 OFFCURVE",
"795 0 CURVE SMOOTH",
"944 0 OFFCURVE",
"1058 91 OFFCURVE",
"1087 233 CURVE SMOOTH",
"1180 699 LINE"
);
}
);
width = 1202;
},
{
anchors = (
{
name = top;
position = "{663, 701}";
}
);
layerId = "5DA6E103-6A94-47F2-987D-4952DB8EA68E";
paths = (
{
closed = 1;
nodes = (
"968 701 LINE",
"885 287 LINE SMOOTH",
"873 227 OFFCURVE",
"827 183 OFFCURVE",
"773 183 CURVE SMOOTH",
"719 183 OFFCURVE",
"684 227 OFFCURVE",
"696 287 CURVE SMOOTH",
"779 701 LINE",
"547 701 LINE",
"464 287 LINE SMOOTH",
"452 227 OFFCURVE",
"403 183 OFFCURVE",
"350 183 CURVE SMOOTH",
"296 183 OFFCURVE",
"263 227 OFFCURVE",
"275 287 CURVE SMOOTH",
"358 701 LINE",
"126 701 LINE",
"43 287 LINE SMOOTH",
"9 115 OFFCURVE",
"107 -10 OFFCURVE",
"274 -10 CURVE SMOOTH",
"379 -10 OFFCURVE",
"483 40 OFFCURVE",
"545 108 CURVE",
"582 40 OFFCURVE",
"668 -10 OFFCURVE",
"772 -10 CURVE SMOOTH",
"937 -10 OFFCURVE",
"1083 115 OFFCURVE",
"1117 287 CURVE SMOOTH",
"1200 701 LINE"
);
}
);
width = 1155;
},
{
anchors = (
{
name = top;
position = "{677, 700}";
}
);
layerId = "1C84A7F3-C40A-4DC1-B8B4-102D183C348F";
paths = (
{
closed = 1;
nodes = (
"1071 700 LINE",
"983 258 LINE SMOOTH",
"963 160 OFFCURVE",
"885 95 OFFCURVE",
"786 95 CURVE SMOOTH",
"685 95 OFFCURVE",
"628 160 OFFCURVE",
"648 258 CURVE SMOOTH",
"736 700 LINE",
"619 700 LINE",
"530 258 LINE SMOOTH",
"510 160 OFFCURVE",
"430 95 OFFCURVE",
"328 95 CURVE SMOOTH",
"229 95 OFFCURVE",
"175 160 OFFCURVE",
"195 258 CURVE SMOOTH",
"283 700 LINE",
"165 700 LINE",
"77 258 LINE SMOOTH",
"46 102 OFFCURVE",
"133 -5 OFFCURVE",
"291 -5 CURVE SMOOTH",
"404 -5 OFFCURVE",
"511 51 OFFCURVE",
"565 133 CURVE",
"586 51 OFFCURVE",
"670 -5 OFFCURVE",
"783 -5 CURVE SMOOTH",
"940 -5 OFFCURVE",
"1070 102 OFFCURVE",
"1101 258 CURVE SMOOTH",
"1189 700 LINE"
);
}
);
width = 1179;
}
);
leftKerningGroup = W.ss01;
leftMetricsKey = U;
rightKerningGroup = W.ss01;
rightMetricsKey = U;
},
{
color = 1;
glyphname = X;
layers = (
{
layerId = UUID0;
paths = (
{
closed = 1;
nodes = (
"606 699 LINE",
"322 379 LINE",
"145 699 LINE",
"121 699 LINE",
"307 362 LINE",
"-14 0 LINE",
"10 0 LINE",
"316 346 LINE",
"509 0 LINE",
"533 0 LINE",
"331 362 LINE",
"630 699 LINE"
);
}
);
width = 628;
},
{
layerId = "5DA6E103-6A94-47F2-987D-4952DB8EA68E";
paths = (
{
closed = 1;
nodes = (
"554 701 LINE",
"425 536 LINE",
"350 701 LINE",
"80 701 LINE",
"254 356 LINE",
"-51 0 LINE",
"220 0 LINE",
"366 181 LINE",
"454 0 LINE",
"732 0 LINE",
"544 367 LINE",
"827 701 LINE"
);
}
);
width = 782;
},
{
associatedMasterId = UUID0;
background = {
paths = (
{
closed = 0;
nodes = (
"551 699 LINE",
"47 0 LINE"
);
},
{
closed = 0;
nodes = (
"66 699 LINE",
"570 0 LINE"
);
}
);
};
layerId = "BC3F43BB-9F1F-4863-A9A9-2B20CB3BE0AF";
name = "Light Mar 13 12, 18:48";
paths = (
{
closed = 1;
nodes = (
"59 0 LINE",
"563 699 LINE",
"539 699 LINE",
"35 0 LINE"
);
},
{
closed = 1;
nodes = (
"582 0 LINE",
"78 699 LINE",
"54 699 LINE",
"558 0 LINE"
);
}
);
width = 617;
},
{
layerId = "1C84A7F3-C40A-4DC1-B8B4-102D183C348F";
paths = (
{
closed = 1;
nodes = (
"582 700 LINE",
"369 451 LINE",
"240 700 LINE",
"102 700 LINE",
"283 359 LINE",
"-30 0 LINE",
"108 0 LINE",
"340 270 LINE",
"484 0 LINE",
"626 0 LINE",
"430 364 LINE",
"721 700 LINE"
);
}
);
width = 700;
}
);
leftKerningGroup = X;
rightKerningGroup = X;
unicode = 0058;
},
{
color = 1;
glyphname = Y;
layers = (
{
anchors = (
{
name = bottom;
position = "{277, 0}";
},
{
name = top;
position = "{391, 699}";
},
{
name = topleft;
position = "{108, 699}";
}
);
layerId = UUID0;
paths = (
{
closed = 1;
nodes = (
"660 699 LINE",
"325 289 LINE",
"122 699 LINE",
"98 699 LINE",
"317 258 LINE",
"323 258 LINE",
"684 699 LINE"
);
},
{
closed = 1;
nodes = (
"314 277 LINE",
"267 0 LINE",
"287 0 LINE",
"334 277 LINE"
);
}
);
width = 606;
},
{
anchors = (
{
name = bottom;
position = "{335, 0}";
},
{
name = top;
position = "{445, 701}";
},
{
name = topleft;
position = "{105, 701}";
}
);
layerId = "5DA6E103-6A94-47F2-987D-4952DB8EA68E";
paths = (
{
closed = 1;
nodes = (
"583 701 LINE",
"402 431 LINE",
"306 701 LINE",
"75 701 LINE",
"320 20 LINE",
"348 20 LINE",
"814 701 LINE"
);
},
{
closed = 1;
nodes = (
"267 317 LINE",
"215 0 LINE",
"447 0 LINE",
"499 317 LINE"
);
}
);
width = 719;
},
{
anchors = (
{
name = bottom;
position = "{296, 0}";
},
{
name = top;
position = "{406, 700}";
},
{
name = topleft;
position = "{107, 700}";
}
);
layerId = "1C84A7F3-C40A-4DC1-B8B4-102D183C348F";
paths = (
{
closed = 1;
nodes = (
"603 700 LINE",
"350 354 LINE",
"208 700 LINE",
"88 700 LINE",
"308 148 LINE",
"325 148 LINE",
"723 700 LINE"
);
},
{
closed = 1;
nodes = (
"282 295 LINE",
"234 0 LINE",
"352 0 LINE",
"400 295 LINE"
);
}
);
width = 637;
}
);
leftKerningGroup = V;
rightKerningGroup = V;
unicode = 0059;
},
{
color = 1;
glyphname = Y.ss01;
layers = (
{
anchors = (
{
name = bottom;
position = "{315, -90}";
},
{
name = top;
position = "{455, 699}";
},
{
name = topleft;
position = "{108, 699}";
}
);
layerId = UUID0;
paths = (
{
closed = 1;
nodes = (
"492 163 OFFCURVE",
"627 277 OFFCURVE",
"659 433 CURVE",
"641 435 LINE",
"612 291 OFFCURVE",
"483 183 OFFCURVE",
"335 180 CURVE",
"207 180 OFFCURVE",
"134 278 OFFCURVE",
"161 413 CURVE",
"218 699 LINE SMOOTH",
"198 699 LINE",
"141 415 LINE",
"112 268 OFFCURVE",
"193 160 OFFCURVE",
"335 160 CURVE"
);
},
{
closed = 1;
nodes = (
"693 699 LINE",
"583 148 LINE",
"556 17 OFFCURVE",
"438 -80 OFFCURVE",
"303 -80 CURVE",
"208 -80 OFFCURVE",
"114 -35 OFFCURVE",
"80 27 CURVE",
"63 15 LINE",
"97 -51 OFFCURVE",
"198 -100 OFFCURVE",
"303 -100 CURVE",
"447 -100 OFFCURVE",
"573 3 OFFCURVE",
"601 146 CURVE",
"712 699 LINE"
);
}
);
width = 734;
},
{
anchors = (
{
name = bottom;
position = "{300, -110}";
},
{
name = top;
position = "{459, 701}";
},
{
name = topleft;
position = "{105, 701}";
}
);
background = {
paths = (
{
closed = 1;
nodes = (
"413 152 OFFCURVE",
"522 258 OFFCURVE",
"558 439 CURVE",
"511 457 LINE",
"499 397 OFFCURVE",
"442 350 OFFCURVE",
"374 350 CURVE SMOOTH",
"319 350 OFFCURVE",
"294 378 OFFCURVE",
"305 436 CURVE SMOOTH",
"358 701 LINE",
"126 701 LINE",
"72 432 LINE SMOOTH",
"40 268 OFFCURVE",
"119 152 OFFCURVE",
"269 152 CURVE SMOOTH"
);
},
{
closed = 1;
nodes = (
"560 701 LINE",
"462 211 LINE SMOOTH",
"448 139 OFFCURVE",
"373 83 OFFCURVE",
"280 83 CURVE",
"225 83 OFFCURVE",
"153 100 OFFCURVE",
"103 134 CURVE",
"-3 -12 LINE",
"63 -68 OFFCURVE",
"177 -110 OFFCURVE",
"298 -110 CURVE SMOOTH",
"500 -110 OFFCURVE",
"652 2 OFFCURVE",
"690 188 CURVE SMOOTH",
"792 701 LINE"
);
}
);
};
layerId = "5DA6E103-6A94-47F2-987D-4952DB8EA68E";
paths = (
{
closed = 1;
nodes = (
"413 152 OFFCURVE",
"522 258 OFFCURVE",
"558 439 CURVE",
"511 457 LINE",
"499 397 OFFCURVE",
"442 350 OFFCURVE",
"374 350 CURVE SMOOTH",
"319 350 OFFCURVE",
"294 378 OFFCURVE",
"305 436 CURVE SMOOTH",
"358 701 LINE",
"126 701 LINE",
"72 432 LINE SMOOTH",
"40 268 OFFCURVE",
"119 152 OFFCURVE",
"269 152 CURVE SMOOTH"
);
},
{
closed = 1;
nodes = (
"560 701 LINE",
"462 211 LINE SMOOTH",
"448 139 OFFCURVE",
"373 83 OFFCURVE",
"280 83 CURVE",
"225 83 OFFCURVE",
"153 100 OFFCURVE",
"103 134 CURVE",
"-3 -12 LINE",
"63 -68 OFFCURVE",
"177 -110 OFFCURVE",
"298 -110 CURVE SMOOTH",
"500 -110 OFFCURVE",
"652 2 OFFCURVE",
"690 188 CURVE SMOOTH",
"792 701 LINE"
);
}
);
width = 747;
},
{
anchors = (
{
name = bottom;
position = "{297, -90}";
},
{
name = top;
position = "{457, 700}";
},
{
name = topleft;
position = "{107, 700}";
}
);
layerId = "1C84A7F3-C40A-4DC1-B8B4-102D183C348F";
paths = (
{
closed = 1;
nodes = (
"474 158 OFFCURVE",
"599 276 OFFCURVE",
"635 455 CURVE",
"589 483 LINE",
"563 355 OFFCURVE",
"464 260 OFFCURVE",
"353 259 CURVE",
"259 258 OFFCURVE",
"208 324 OFFCURVE",
"228 424 CURVE",
"282 700 LINE SMOOTH",
"165 700 LINE",
"110 423 LINE",
"79 268 OFFCURVE",
"166 156 OFFCURVE",
"323 156 CURVE"
);
},
{
closed = 1;
nodes = (
"631 700 LINE",
"527 177 LINE",
"507 73 OFFCURVE",
"408 -5 OFFCURVE",
"292 -5 CURVE",
"220 -5 OFFCURVE",
"141 31 OFFCURVE",
"102 85 CURVE",
"35 13 LINE",
"82 -55 OFFCURVE",
"188 -105 OFFCURVE",
"300 -105 CURVE",
"471 -105 OFFCURVE",
"610 3 OFFCURVE",
"642 166 CURVE",
"749 700 LINE"
);
}
);
width = 739;
}
);
leftKerningGroup = Y.ss01;
leftMetricsKey = U;
rightKerningGroup = Y.ss01;
rightMetricsKey = J;
},
{
color = 1;
glyphname = Z;
layers = (
{
anchors = (
{
name = bottom;
position = "{278, 0}";
},
{
name = top;
position = "{400, 699}";
}
);
layerId = UUID0;
paths = (
{
closed = 1;
nodes = (
"140 699 LINE",
"136 679 LINE",
"645 679 LINE",
"14 25 LINE",
"10 0 LINE",
"556 0 LINE",
"560 20 LINE",
"34 20 LINE",
"665 674 LINE",
"669 699 LINE"
);
}
);
width = 660;
},
{
anchors = (
{
name = bottom;
position = "{313, 0}";
},
{
name = top;
position = "{433, 701}";
}
);
layerId = "5DA6E103-6A94-47F2-987D-4952DB8EA68E";
paths = (
{
closed = 1;
nodes = (
"105 701 LINE",
"76 523 LINE",
"391 523 LINE",
"1 145 LINE",
"-23 0 LINE",
"620 0 LINE",
"650 178 LINE",
"316 178 LINE",
"705 556 LINE",
"729 701 LINE"
);
}
);
width = 695;
},
{
anchors = (
{
name = bottom;
position = "{316, 0}";
},
{
name = top;
position = "{416, 700}";
}
);
layerId = "1C84A7F3-C40A-4DC1-B8B4-102D183C348F";
paths = (
{
closed = 1;
nodes = (
"124 700 LINE",
"108 599 LINE",
"522 599 LINE",
"9 80 LINE",
"-4 0 LINE",
"587 0 LINE",
"603 101 LINE",
"172 101 LINE",
"684 620 LINE",
"697 700 LINE"
);
}
);
width = 678;
}
);
leftKerningGroup = Z;
rightKerningGroup = Z;
unicode = 005A;
},
{
color = 0;
glyphname = Z.ss01;
layers = (
{
anchors = (
{
name = bottom;
position = "{278, 0}";
},
{
name = top;
position = "{400, 699}";
}
);
components = (
{
name = Z;
}
);
layerId = UUID0;
paths = (
{
closed = 1;
nodes = (
"553 339 LINE",
"557 359 LINE",
"345 359 LINE",
"341 339 LINE"
);
},
{
closed = 1;
nodes = (
"345 342 LINE",
"349 362 LINE",
"138 362 LINE",
"134 342 LINE"
);
}
);
width = 660;
},
{
anchors = (
{
name = bottom;
position = "{313, 0}";
},
{
name = top;
position = "{433, 701}";
}
);
background = {
paths = (
{
closed = 1;
nodes = (
"122 701 LINE",
"87 523 LINE",
"402 523 LINE",
"-1 145 LINE",
"-30 0 LINE",
"613 0 LINE",
"649 178 LINE",
"315 178 LINE",
"717 556 LINE",
"746 701 LINE"
);
}
);
};
components = (
{
name = Z;
}
);
layerId = "5DA6E103-6A94-47F2-987D-4952DB8EA68E";
paths = (
{
closed = 1;
nodes = (
"610 277 LINE",
"638 416 LINE",
"363 416 LINE",
"335 277 LINE"
);
},
{
closed = 1;
nodes = (
"369 297 LINE",
"397 436 LINE",
"105 436 LINE",
"77 297 LINE"
);
}
);
width = 695;
},
{
anchors = (
{
name = bottom;
position = "{316, 0}";
},
{
name = top;
position = "{416, 700}";
}
);
background = {
paths = (
{
closed = 1;
nodes = (
"349 390 LINE",
"331 299 LINE",
"554 299 LINE",
"572 390 LINE"
);
},
{
closed = 1;
nodes = (
"133 395 LINE",
"115 304 LINE",
"336 304 LINE",
"354 395 LINE"
);
},
{
closed = 1;
nodes = (
"138 700 LINE",
"118 599 LINE",
"532 599 LINE",
"1 80 LINE",
"-14 0 LINE",
"576 0 LINE",
"596 101 LINE",
"165 101 LINE",
"695 620 LINE",
"711 700 LINE"
);
}
);
};
components = (
{
name = Z;
}
);
layerId = "1C84A7F3-C40A-4DC1-B8B4-102D183C348F";
paths = (
{
closed = 1;
nodes = (
"554 299 LINE",
"572 390 LINE",
"349 390 LINE",
"331 299 LINE"
);
},
{
closed = 1;
nodes = (
"336 304 LINE",
"354 395 LINE",
"133 395 LINE",
"115 304 LINE"
);
}
);
width = 678;
}
);
leftKerningGroup = Z.ss01;
leftMetricsKey = Z;
rightKerningGroup = Z.ss01;
rightMetricsKey = Z;
},
{
glyphname = uniA78B;
layers = (
{
background = {
paths = (
{
closed = 1;
nodes = (
"73 316 LINE",
"178 316 LINE",
"267 700 LINE",
"149 700 LINE"
);
}
);
};
layerId = "1C84A7F3-C40A-4DC1-B8B4-102D183C348F";
paths = (
{
closed = 1;
nodes = (
"70 302 LINE",
"175 302 LINE",
"267 700 LINE",
"149 700 LINE"
);
}
);
width = 265;
},
{
background = {
paths = (
{
closed = 1;
nodes = (
"173 699 LINE",
"33 0 LINE",
"53 0 LINE",
"193 699 LINE"
);
}
);
};
layerId = UUID0;
paths = (
{
closed = 1;
nodes = (
"94 298 LINE",
"114 298 LINE",
"193 699 LINE",
"173 699 LINE"
);
}
);
width = 211;
},
{
background = {
paths = (
{
closed = 1;
nodes = (
"140 701 LINE",
"0 0 LINE",
"232 0 LINE",
"372 701 LINE"
);
}
);
};
layerId = "5DA6E103-6A94-47F2-987D-4952DB8EA68E";
paths = (
{
closed = 1;
nodes = (
"60 296 LINE",
"262 296 LINE",
"372 701 LINE",
"140 701 LINE"
);
}
);
width = 342;
}
);
leftKerningGroup = superior;
leftMetricsKey = "=i";
rightKerningGroup = superior;
rightMetricsKey = "=i";
unicode = A78B;
},
{
color = 1;
glyphname = a;
layers = (
{
anchors = (
{
name = bottom;
position = "{284, 0}";
},
{
name = ogonek;
position = "{509, 0}";
},
{
name = top;
position = "{371, 517}";
}
);
background = {
paths = (
{
closed = 1;
nodes = (
"438 -2 OFFCURVE",
"561 128 OFFCURVE",
"561 293 CURVE SMOOTH",
"561 426 OFFCURVE",
"466 519 OFFCURVE",
"330 519 CURVE SMOOTH",
"175 519 OFFCURVE",
"51 388 OFFCURVE",
"51 224 CURVE SMOOTH",
"51 91 OFFCURVE",
"146 -2 OFFCURVE",
"282 -2 CURVE SMOOTH"
);
},
{
closed = 1;
nodes = (
"158 18 OFFCURVE",
"71 103 OFFCURVE",
"71 227 CURVE SMOOTH",
"71 378 OFFCURVE",
"186 499 OFFCURVE",
"328 499 CURVE SMOOTH",
"454 499 OFFCURVE",
"541 414 OFFCURVE",
"541 290 CURVE SMOOTH",
"541 139 OFFCURVE",
"427 18 OFFCURVE",
"284 18 CURVE SMOOTH"
);
},
{
closed = 1;
nodes = (
"509 0 LINE",
"612 517 LINE",
"592 517 LINE",
"489 0 LINE"
);
}
);
};
layerId = UUID0;
paths = (
{
closed = 1;
nodes = (
"377 -2 OFFCURVE",
"463 46 OFFCURVE",
"515 128 CURVE",
"489 0 LINE",
"509 0 LINE",
"612 517 LINE",
"592 517 LINE",
"557 340 LINE",
"537 448 OFFCURVE",
"448 519 OFFCURVE",
"330 519 CURVE SMOOTH",
"175 519 OFFCURVE",
"51 388 OFFCURVE",
"51 224 CURVE SMOOTH",
"51 91 OFFCURVE",
"146 -2 OFFCURVE",
"282 -2 CURVE SMOOTH"
);
},
{
closed = 1;
nodes = (
"158 18 OFFCURVE",
"71 103 OFFCURVE",
"71 227 CURVE SMOOTH",
"71 378 OFFCURVE",
"186 499 OFFCURVE",
"328 499 CURVE SMOOTH",
"454 499 OFFCURVE",
"541 414 OFFCURVE",
"541 290 CURVE SMOOTH",
"541 139 OFFCURVE",
"427 18 OFFCURVE",
"284 18 CURVE SMOOTH"
);
}
);
width = 671;
},
{
anchors = (
{
name = bottom;
position = "{290, 0}";
},
{
name = ogonek;
position = "{539, 0}";
},
{
name = top;
position = "{390, 547}";
}
);
background = {
paths = (
{
closed = 1;
nodes = (
"361 -7 OFFCURVE",
"482 151 OFFCURVE",
"482 339 CURVE SMOOTH",
"482 477 OFFCURVE",
"414 556 OFFCURVE",
"296 556 CURVE SMOOTH",
"138 556 OFFCURVE",
"14 413 OFFCURVE",
"14 230 CURVE SMOOTH",
"14 90 OFFCURVE",
"97 -7 OFFCURVE",
"216 -7 CURVE SMOOTH"
);
},
{
closed = 1;
nodes = (
"266 161 OFFCURVE",
"241 192 OFFCURVE",
"241 245 CURVE SMOOTH",
"241 315 OFFCURVE",
"285 372 OFFCURVE",
"339 372 CURVE SMOOTH",
"382 372 OFFCURVE",
"409 340 OFFCURVE",
"409 289 CURVE SMOOTH",
"409 219 OFFCURVE",
"363 161 OFFCURVE",
"308 161 CURVE SMOOTH"
);
},
{
closed = 1;
nodes = (
"580 0 LINE",
"689 547 LINE",
"464 547 LINE",
"355 0 LINE"
);
}
);
};
layerId = "5DA6E103-6A94-47F2-987D-4952DB8EA68E";
paths = (
{
closed = 1;
nodes = (
"271 -8 OFFCURVE",
"323 15 OFFCURVE",
"366 54 CURVE",
"355 0 LINE",
"580 0 LINE",
"689 547 LINE",
"464 547 LINE",
"450 475 LINE",
"419 527 OFFCURVE",
"366 555 OFFCURVE",
"296 555 CURVE SMOOTH",
"138 555 OFFCURVE",
"14 412 OFFCURVE",
"14 229 CURVE SMOOTH",
"14 89 OFFCURVE",
"97 -8 OFFCURVE",
"216 -8 CURVE SMOOTH"
);
},
{
closed = 1;
nodes = (
"266 160 OFFCURVE",
"241 191 OFFCURVE",
"241 244 CURVE SMOOTH",
"241 314 OFFCURVE",
"285 371 OFFCURVE",
"339 371 CURVE SMOOTH",
"382 371 OFFCURVE",
"409 339 OFFCURVE",
"409 288 CURVE SMOOTH",
"409 218 OFFCURVE",
"363 160 OFFCURVE",
"308 160 CURVE SMOOTH"
);
}
);
width = 690;
},
{
anchors = (
{
name = bottom;
position = "{287, 0}";
},
{
name = ogonek;
position = "{542, 0}";
},
{
name = top;
position = "{371, 531}";
}
);
background = {
paths = (
{
closed = 1;
nodes = (
"412 -3 OFFCURVE",
"528 132 OFFCURVE",
"528 313 CURVE SMOOTH",
"528 457 OFFCURVE",
"455 538 OFFCURVE",
"325 538 CURVE SMOOTH",
"160 538 OFFCURVE",
"35 407 OFFCURVE",
"35 236 CURVE SMOOTH",
"35 93 OFFCURVE",
"124 -3 OFFCURVE",
"256 -3 CURVE SMOOTH"
);
},
{
closed = 1;
nodes = (
"209 86 OFFCURVE",
"151 148 OFFCURVE",
"151 241 CURVE SMOOTH",
"151 352 OFFCURVE",
"235 443 OFFCURVE",
"339 443 CURVE SMOOTH",
"425 443 OFFCURVE",
"481 381 OFFCURVE",
"481 288 CURVE SMOOTH",
"481 176 OFFCURVE",
"399 86 OFFCURVE",
"295 86 CURVE SMOOTH"
);
},
{
closed = 1;
nodes = (
"542 0 LINE",
"648 531 LINE",
"534 531 LINE",
"428 0 LINE"
);
}
);
};
layerId = "1C84A7F3-C40A-4DC1-B8B4-102D183C348F";
paths = (
{
closed = 1;
nodes = (
"331 -5 OFFCURVE",
"396 26 OFFCURVE",
"444 78 CURVE",
"428 0 LINE",
"542 0 LINE",
"648 531 LINE",
"534 531 LINE",
"511 416 LINE",
"483 494 OFFCURVE",
"419 536 OFFCURVE",
"325 536 CURVE SMOOTH",
"160 536 OFFCURVE",
"35 405 OFFCURVE",
"35 234 CURVE SMOOTH",
"35 91 OFFCURVE",
"124 -5 OFFCURVE",
"256 -5 CURVE SMOOTH"
);
},
{
closed = 1;
nodes = (
"209 84 OFFCURVE",
"151 146 OFFCURVE",
"151 239 CURVE SMOOTH",
"151 350 OFFCURVE",
"235 441 OFFCURVE",
"339 441 CURVE SMOOTH",
"425 441 OFFCURVE",
"481 379 OFFCURVE",
"481 286 CURVE SMOOTH",
"481 174 OFFCURVE",
"399 84 OFFCURVE",
"295 84 CURVE SMOOTH"
);
}
);
width = 680;
},
{
anchors = (
{
name = ogonek;
position = "{644, 10}";
},
{
name = top;
position = "{446, 547}";
}
);
associatedMasterId = "5DA6E103-6A94-47F2-987D-4952DB8EA68E";
background = {
paths = (
{
closed = 1;
nodes = (
"470 547 LINE",
"361 0 LINE",
"586 0 LINE",
"695 547 LINE"
);
},
{
closed = 1;
nodes = (
"171 555 OFFCURVE",
"62 455 OFFCURVE",
"30 295 CURVE SMOOTH",
"-6 113 OFFCURVE",
"75 -8 OFFCURVE",
"233 -8 CURVE SMOOTH",
"353 -8 OFFCURVE",
"448 95 OFFCURVE",
"481 258 CURVE",
"516 436 OFFCURVE",
"449 555 OFFCURVE",
"314 555 CURVE SMOOTH"
);
},
{
closed = 1;
nodes = (
"411 377 OFFCURVE",
"430 344 OFFCURVE",
"419 289 CURVE SMOOTH",
"404 216 OFFCURVE",
"355 165 OFFCURVE",
"300 165 CURVE SMOOTH",
"256 165 OFFCURVE",
"238 198 OFFCURVE",
"249 253 CURVE SMOOTH",
"263 326 OFFCURVE",
"312 377 OFFCURVE",
"368 377 CURVE SMOOTH"
);
}
);
};
layerId = "0C3ADC56-239E-43D1-A951-69A2FC944F28";
name = "Bold Italic Dec 21 15, 19:48";
paths = (
{
closed = 1;
nodes = (
"469 547 LINE",
"360 0 LINE",
"585 0 LINE",
"694 547 LINE"
);
},
{
closed = 1;
nodes = (
"146 555 OFFCURVE",
"15 412 OFFCURVE",
"15 213 CURVE SMOOTH",
"15 79 OFFCURVE",
"90 -8 OFFCURVE",
"217 -8 CURVE SMOOTH",
"343 -8 OFFCURVE",
"447 104 OFFCURVE",
"481 276 CURVE",
"515 445 OFFCURVE",
"453 555 OFFCURVE",
"324 555 CURVE SMOOTH"
);
},
{
closed = 1;
nodes = (
"392 377 OFFCURVE",
"415 345 OFFCURVE",
"415 298 CURVE SMOOTH",
"415 222 OFFCURVE",
"369 165 OFFCURVE",
"310 165 CURVE SMOOTH",
"269 165 OFFCURVE",
"246 197 OFFCURVE",
"246 244 CURVE SMOOTH",
"246 320 OFFCURVE",
"291 377 OFFCURVE",
"352 377 CURVE SMOOTH"
);
}
);
width = 685;
},
{
anchors = (
{
name = ogonek;
position = "{618, 10}";
},
{
name = top;
position = "{435, 517}";
}
);
associatedMasterId = UUID0;
layerId = "54AE8338-369C-4F96-8DAB-F141FC5B0DC2";
name = "Light Italic Dec 21 15, 20:09";
paths = (
{
closed = 1;
nodes = (
"487 -2 OFFCURVE",
"610 128 OFFCURVE",
"610 293 CURVE SMOOTH",
"610 426 OFFCURVE",
"515 519 OFFCURVE",
"379 519 CURVE SMOOTH",
"224 519 OFFCURVE",
"100 388 OFFCURVE",
"100 224 CURVE SMOOTH",
"100 91 OFFCURVE",
"195 -2 OFFCURVE",
"331 -2 CURVE SMOOTH"
);
},
{
closed = 1;
nodes = (
"207 18 OFFCURVE",
"120 103 OFFCURVE",
"120 227 CURVE SMOOTH",
"120 378 OFFCURVE",
"235 499 OFFCURVE",
"377 499 CURVE SMOOTH",
"503 499 OFFCURVE",
"590 414 OFFCURVE",
"590 290 CURVE SMOOTH",
"590 139 OFFCURVE",
"476 18 OFFCURVE",
"333 18 CURVE SMOOTH"
);
},
{
closed = 1;
nodes = (
"558 0 LINE",
"661 517 LINE",
"641 517 LINE",
"538 0 LINE"
);
}
);
width = 668;
},
{
anchors = (
{
name = ogonek;
position = "{583, 10}";
},
{
name = top;
position = "{393, 531}";
}
);
associatedMasterId = "1C84A7F3-C40A-4DC1-B8B4-102D183C348F";
layerId = "ACB04C52-9F38-4457-A8B0-FCEDAAD79B63";
name = "Regular Italic Dec 21 15, 20:10";
paths = (
{
closed = 1;
nodes = (
"417 -3 OFFCURVE",
"533 132 OFFCURVE",
"533 313 CURVE SMOOTH",
"533 457 OFFCURVE",
"460 538 OFFCURVE",
"330 538 CURVE SMOOTH",
"165 538 OFFCURVE",
"40 407 OFFCURVE",
"40 236 CURVE SMOOTH",
"40 93 OFFCURVE",
"129 -3 OFFCURVE",
"261 -3 CURVE SMOOTH"
);
},
{
closed = 1;
nodes = (
"214 86 OFFCURVE",
"156 148 OFFCURVE",
"156 241 CURVE SMOOTH",
"156 352 OFFCURVE",
"240 443 OFFCURVE",
"344 443 CURVE SMOOTH",
"430 443 OFFCURVE",
"486 381 OFFCURVE",
"486 288 CURVE SMOOTH",
"486 176 OFFCURVE",
"404 86 OFFCURVE",
"300 86 CURVE SMOOTH"
);
},
{
closed = 1;
nodes = (
"547 0 LINE",
"653 531 LINE",
"539 531 LINE",
"433 0 LINE"
);
}
);
width = 735;
},
{
anchors = (
{
name = ogonek;
position = "{644, 10}";
},
{
name = top;
position = "{446, 547}";
}
);
associatedMasterId = "5DA6E103-6A94-47F2-987D-4952DB8EA68E";
background = {
paths = (
{
closed = 1;
nodes = (
"366 -7 OFFCURVE",
"487 151 OFFCURVE",
"487 339 CURVE SMOOTH",
"487 477 OFFCURVE",
"419 556 OFFCURVE",
"301 556 CURVE SMOOTH",
"143 556 OFFCURVE",
"19 413 OFFCURVE",
"19 230 CURVE SMOOTH",
"19 90 OFFCURVE",
"102 -7 OFFCURVE",
"221 -7 CURVE SMOOTH"
);
},
{
closed = 1;
nodes = (
"271 161 OFFCURVE",
"246 192 OFFCURVE",
"246 245 CURVE SMOOTH",
"246 315 OFFCURVE",
"290 372 OFFCURVE",
"344 372 CURVE SMOOTH",
"387 372 OFFCURVE",
"414 340 OFFCURVE",
"414 289 CURVE SMOOTH",
"414 219 OFFCURVE",
"368 161 OFFCURVE",
"313 161 CURVE SMOOTH"
);
},
{
closed = 1;
nodes = (
"585 0 LINE",
"694 547 LINE",
"469 547 LINE",
"360 0 LINE"
);
}
);
};
layerId = "0CB1E0A7-E9B7-48DA-A068-DA16E300A57B";
name = "Bold Italic Dec 21 15, 20:10";
paths = (
{
closed = 1;
nodes = (
"366 -7 OFFCURVE",
"487 151 OFFCURVE",
"487 339 CURVE SMOOTH",
"487 477 OFFCURVE",
"419 556 OFFCURVE",
"301 556 CURVE SMOOTH",
"143 556 OFFCURVE",
"19 413 OFFCURVE",
"19 230 CURVE SMOOTH",
"19 90 OFFCURVE",
"102 -7 OFFCURVE",
"221 -7 CURVE SMOOTH"
);
},
{
closed = 1;
nodes = (
"271 161 OFFCURVE",
"246 192 OFFCURVE",
"246 245 CURVE SMOOTH",
"246 315 OFFCURVE",
"290 372 OFFCURVE",
"344 372 CURVE SMOOTH",
"387 372 OFFCURVE",
"414 340 OFFCURVE",
"414 289 CURVE SMOOTH",
"414 219 OFFCURVE",
"368 161 OFFCURVE",
"313 161 CURVE SMOOTH"
);
},
{
closed = 1;
nodes = (
"585 0 LINE",
"694 547 LINE",
"469 547 LINE",
"360 0 LINE"
);
}
);
width = 685;
}
);
leftKerningGroup = o;
leftMetricsKey = o;
rightKerningGroup = idotless;
rightMetricsKey = idotless;
unicode = 0061;
},
{
color = 1;
glyphname = a.ss01;
layers = (
{
anchors = (
{
name = bottom;
position = "{284, 0}";
},
{
name = ogonek;
position = "{657, 0}";
},
{
name = top;
position = "{371, 517}";
}
);
background = {
paths = (
{
closed = 1;
nodes = (
"377 -2 OFFCURVE",
"463 46 OFFCURVE",
"515 128 CURVE",
"489 0 LINE",
"509 0 LINE",
"612 517 LINE",
"592 517 LINE",
"557 340 LINE",
"537 448 OFFCURVE",
"448 519 OFFCURVE",
"330 519 CURVE SMOOTH",
"175 519 OFFCURVE",
"51 388 OFFCURVE",
"51 224 CURVE SMOOTH",
"51 91 OFFCURVE",
"146 -2 OFFCURVE",
"282 -2 CURVE SMOOTH"
);
},
{
closed = 1;
nodes = (
"158 18 OFFCURVE",
"71 103 OFFCURVE",
"71 227 CURVE SMOOTH",
"71 378 OFFCURVE",
"186 499 OFFCURVE",
"328 499 CURVE SMOOTH",
"454 499 OFFCURVE",
"541 414 OFFCURVE",
"541 290 CURVE SMOOTH",
"541 139 OFFCURVE",
"427 18 OFFCURVE",
"284 18 CURVE SMOOTH"
);
}
);
};
layerId = UUID0;
paths = (
{
closed = 1;
nodes = (
"377 -2 OFFCURVE",
"463 46 OFFCURVE",
"515 128 CURVE",
"507 88 LINE SMOOTH",
"495 30 OFFCURVE",
"514 0 OFFCURVE",
"564 0 CURVE SMOOTH",
"581 0 OFFCURVE",
"602 7 OFFCURVE",
"624 22 CURVE",
"629 47 LINE",
"604 29 OFFCURVE",
"583 20 OFFCURVE",
"564 20 CURVE SMOOTH",
"529 20 OFFCURVE",
"517 41 OFFCURVE",
"526 87 CURVE SMOOTH",
"612 517 LINE",
"592 517 LINE",
"557 340 LINE",
"537 448 OFFCURVE",
"448 519 OFFCURVE",
"330 519 CURVE SMOOTH",
"175 519 OFFCURVE",
"51 388 OFFCURVE",
"51 224 CURVE SMOOTH",
"51 91 OFFCURVE",
"146 -2 OFFCURVE",
"282 -2 CURVE SMOOTH"
);
},
{
closed = 1;
nodes = (
"158 18 OFFCURVE",
"71 103 OFFCURVE",
"71 227 CURVE SMOOTH",
"71 378 OFFCURVE",
"186 499 OFFCURVE",
"328 499 CURVE SMOOTH",
"454 499 OFFCURVE",
"541 414 OFFCURVE",
"541 290 CURVE SMOOTH",
"541 139 OFFCURVE",
"427 18 OFFCURVE",
"284 18 CURVE SMOOTH"
);
}
);
width = 690;
},
{
anchors = (
{
name = bottom;
position = "{290, 0}";
},
{
name = ogonek;
position = "{650, 0}";
},
{
name = top;
position = "{400, 547}";
}
);
background = {
paths = (
{
closed = 1;
nodes = (
"361 -7 OFFCURVE",
"482 151 OFFCURVE",
"482 339 CURVE SMOOTH",
"482 477 OFFCURVE",
"414 556 OFFCURVE",
"296 556 CURVE SMOOTH",
"138 556 OFFCURVE",
"14 413 OFFCURVE",
"14 230 CURVE SMOOTH",
"14 90 OFFCURVE",
"97 -7 OFFCURVE",
"216 -7 CURVE SMOOTH"
);
},
{
closed = 1;
nodes = (
"266 161 OFFCURVE",
"241 192 OFFCURVE",
"241 245 CURVE SMOOTH",
"241 315 OFFCURVE",
"285 372 OFFCURVE",
"339 372 CURVE SMOOTH",
"382 372 OFFCURVE",
"409 340 OFFCURVE",
"409 289 CURVE SMOOTH",
"409 219 OFFCURVE",
"363 161 OFFCURVE",
"308 161 CURVE SMOOTH"
);
},
{
closed = 1;
nodes = (
"580 0 LINE",
"689 547 LINE",
"464 547 LINE",
"355 0 LINE"
);
}
);
};
layerId = "5DA6E103-6A94-47F2-987D-4952DB8EA68E";
paths = (
{
closed = 1;
nodes = (
"289 -8 OFFCURVE",
"362 34 OFFCURVE",
"416 112 CURVE",
"420 102 LINE SMOOTH",
"451 25 OFFCURVE",
"505 -11 OFFCURVE",
"594 -11 CURVE SMOOTH",
"610 -11 OFFCURVE",
"627 -9 OFFCURVE",
"649 -6 CURVE",
"688 190 LINE",
"674 184 OFFCURVE",
"663 182 OFFCURVE",
"649 182 CURVE SMOOTH",
"624 182 OFFCURVE",
"618 193 OFFCURVE",
"625 223 CURVE",
"689 547 LINE",
"464 547 LINE",
"450 475 LINE",
"419 527 OFFCURVE",
"366 555 OFFCURVE",
"296 555 CURVE SMOOTH",
"138 555 OFFCURVE",
"14 412 OFFCURVE",
"14 229 CURVE SMOOTH",
"14 89 OFFCURVE",
"97 -8 OFFCURVE",
"216 -8 CURVE SMOOTH"
);
},
{
closed = 1;
nodes = (
"266 160 OFFCURVE",
"241 191 OFFCURVE",
"241 244 CURVE SMOOTH",
"241 314 OFFCURVE",
"285 371 OFFCURVE",
"339 371 CURVE SMOOTH",
"382 371 OFFCURVE",
"409 339 OFFCURVE",
"409 288 CURVE SMOOTH",
"409 218 OFFCURVE",
"363 160 OFFCURVE",
"308 160 CURVE SMOOTH"
);
}
);
width = 723;
},
{
anchors = (
{
name = bottom;
position = "{287, 0}";
},
{
name = ogonek;
position = "{645, 0}";
},
{
name = top;
position = "{371, 531}";
}
);
background = {
paths = (
{
closed = 1;
nodes = (
"331 -5 OFFCURVE",
"396 26 OFFCURVE",
"444 78 CURVE",
"428 0 LINE",
"542 0 LINE",
"648 531 LINE",
"534 531 LINE",
"511 416 LINE",
"483 494 OFFCURVE",
"419 536 OFFCURVE",
"325 536 CURVE SMOOTH",
"160 536 OFFCURVE",
"35 405 OFFCURVE",
"35 234 CURVE SMOOTH",
"35 91 OFFCURVE",
"124 -5 OFFCURVE",
"256 -5 CURVE SMOOTH"
);
},
{
closed = 1;
nodes = (
"209 84 OFFCURVE",
"151 146 OFFCURVE",
"151 239 CURVE SMOOTH",
"151 350 OFFCURVE",
"235 441 OFFCURVE",
"339 441 CURVE SMOOTH",
"425 441 OFFCURVE",
"481 379 OFFCURVE",
"481 286 CURVE SMOOTH",
"481 174 OFFCURVE",
"399 84 OFFCURVE",
"295 84 CURVE SMOOTH"
);
},
{
closed = 0;
nodes = (
"661 104 LINE",
"666 75 LINE SMOOTH",
"675 23 OFFCURVE",
"712 -5 OFFCURVE",
"765 -5 CURVE SMOOTH",
"788 -5 OFFCURVE",
"814 0 OFFCURVE",
"843 11 CURVE",
"862 109 LINE",
"837 99 OFFCURVE",
"817 94 OFFCURVE",
"802 94 CURVE SMOOTH",
"771 94 OFFCURVE",
"765 118 OFFCURVE",
"772 152 CURVE",
"848 531 LINE",
"733 531 LINE",
"675 243 LINE SMOOTH"
);
}
);
};
layerId = "1C84A7F3-C40A-4DC1-B8B4-102D183C348F";
paths = (
{
closed = 1;
nodes = (
"337 -5 OFFCURVE",
"409 31 OFFCURVE",
"464 100 CURVE",
"468 80 LINE SMOOTH",
"478 29 OFFCURVE",
"513 0 OFFCURVE",
"567 0 CURVE SMOOTH",
"594 0 OFFCURVE",
"620 5 OFFCURVE",
"645 16 CURVE",
"664 114 LINE",
"639 104 OFFCURVE",
"619 99 OFFCURVE",
"604 99 CURVE SMOOTH",
"576 99 OFFCURVE",
"566 119 OFFCURVE",
"574 157 CURVE SMOOTH",
"649 531 LINE",
"534 531 LINE",
"511 416 LINE",
"483 494 OFFCURVE",
"418 536 OFFCURVE",
"325 536 CURVE SMOOTH",
"160 536 OFFCURVE",
"35 405 OFFCURVE",
"35 234 CURVE SMOOTH",
"35 91 OFFCURVE",
"124 -5 OFFCURVE",
"256 -5 CURVE SMOOTH"
);
},
{
closed = 1;
nodes = (
"209 84 OFFCURVE",
"151 146 OFFCURVE",
"151 239 CURVE SMOOTH",
"151 350 OFFCURVE",
"235 441 OFFCURVE",
"339 441 CURVE SMOOTH",
"425 441 OFFCURVE",
"481 379 OFFCURVE",
"481 286 CURVE SMOOTH",
"481 174 OFFCURVE",
"399 84 OFFCURVE",
"295 84 CURVE SMOOTH"
);
}
);
width = 707;
},
{
anchors = (
{
name = ogonek;
position = "{644, 10}";
},
{
name = top;
position = "{446, 547}";
}
);
associatedMasterId = "5DA6E103-6A94-47F2-987D-4952DB8EA68E";
background = {
paths = (
{
closed = 1;
nodes = (
"470 547 LINE",
"361 0 LINE",
"586 0 LINE",
"695 547 LINE"
);
},
{
closed = 1;
nodes = (
"171 555 OFFCURVE",
"62 455 OFFCURVE",
"30 295 CURVE SMOOTH",
"-6 113 OFFCURVE",
"75 -8 OFFCURVE",
"233 -8 CURVE SMOOTH",
"353 -8 OFFCURVE",
"448 95 OFFCURVE",
"481 258 CURVE",
"516 436 OFFCURVE",
"449 555 OFFCURVE",
"314 555 CURVE SMOOTH"
);
},
{
closed = 1;
nodes = (
"411 377 OFFCURVE",
"430 344 OFFCURVE",
"419 289 CURVE SMOOTH",
"404 216 OFFCURVE",
"355 165 OFFCURVE",
"300 165 CURVE SMOOTH",
"256 165 OFFCURVE",
"238 198 OFFCURVE",
"249 253 CURVE SMOOTH",
"263 326 OFFCURVE",
"312 377 OFFCURVE",
"368 377 CURVE SMOOTH"
);
}
);
};
layerId = "0C3ADC56-239E-43D1-A951-69A2FC944F28";
name = "Bold Italic Dec 21 15, 19:48";
paths = (
{
closed = 1;
nodes = (
"469 547 LINE",
"360 0 LINE",
"585 0 LINE",
"694 547 LINE"
);
},
{
closed = 1;
nodes = (
"146 555 OFFCURVE",
"15 412 OFFCURVE",
"15 213 CURVE SMOOTH",
"15 79 OFFCURVE",
"90 -8 OFFCURVE",
"217 -8 CURVE SMOOTH",
"343 -8 OFFCURVE",
"447 104 OFFCURVE",
"481 276 CURVE",
"515 445 OFFCURVE",
"453 555 OFFCURVE",
"324 555 CURVE SMOOTH"
);
},
{
closed = 1;
nodes = (
"392 377 OFFCURVE",
"415 345 OFFCURVE",
"415 298 CURVE SMOOTH",
"415 222 OFFCURVE",
"369 165 OFFCURVE",
"310 165 CURVE SMOOTH",
"269 165 OFFCURVE",
"246 197 OFFCURVE",
"246 244 CURVE SMOOTH",
"246 320 OFFCURVE",
"291 377 OFFCURVE",
"352 377 CURVE SMOOTH"
);
}
);
width = 685;
},
{
anchors = (
{
name = ogonek;
position = "{618, 10}";
},
{
name = top;
position = "{435, 517}";
}
);
associatedMasterId = UUID0;
layerId = "54AE8338-369C-4F96-8DAB-F141FC5B0DC2";
name = "Light Italic Dec 21 15, 20:09";
paths = (
{
closed = 1;
nodes = (
"487 -2 OFFCURVE",
"610 128 OFFCURVE",
"610 293 CURVE SMOOTH",
"610 426 OFFCURVE",
"515 519 OFFCURVE",
"379 519 CURVE SMOOTH",
"224 519 OFFCURVE",
"100 388 OFFCURVE",
"100 224 CURVE SMOOTH",
"100 91 OFFCURVE",
"195 -2 OFFCURVE",
"331 -2 CURVE SMOOTH"
);
},
{
closed = 1;
nodes = (
"207 18 OFFCURVE",
"120 103 OFFCURVE",
"120 227 CURVE SMOOTH",
"120 378 OFFCURVE",
"235 499 OFFCURVE",
"377 499 CURVE SMOOTH",
"503 499 OFFCURVE",
"590 414 OFFCURVE",
"590 290 CURVE SMOOTH",
"590 139 OFFCURVE",
"476 18 OFFCURVE",
"333 18 CURVE SMOOTH"
);
},
{
closed = 1;
nodes = (
"558 0 LINE",
"661 517 LINE",
"641 517 LINE",
"538 0 LINE"
);
}
);
width = 668;
},
{
anchors = (
{
name = ogonek;
position = "{583, 10}";
},
{
name = top;
position = "{393, 531}";
}
);
associatedMasterId = "1C84A7F3-C40A-4DC1-B8B4-102D183C348F";
layerId = "ACB04C52-9F38-4457-A8B0-FCEDAAD79B63";
name = "Regular Italic Dec 21 15, 20:10";
paths = (
{
closed = 1;
nodes = (
"417 -3 OFFCURVE",
"533 132 OFFCURVE",
"533 313 CURVE SMOOTH",
"533 457 OFFCURVE",
"460 538 OFFCURVE",
"330 538 CURVE SMOOTH",
"165 538 OFFCURVE",
"40 407 OFFCURVE",
"40 236 CURVE SMOOTH",
"40 93 OFFCURVE",
"129 -3 OFFCURVE",
"261 -3 CURVE SMOOTH"
);
},
{
closed = 1;
nodes = (
"214 86 OFFCURVE",
"156 148 OFFCURVE",
"156 241 CURVE SMOOTH",
"156 352 OFFCURVE",
"240 443 OFFCURVE",
"344 443 CURVE SMOOTH",
"430 443 OFFCURVE",
"486 381 OFFCURVE",
"486 288 CURVE SMOOTH",
"486 176 OFFCURVE",
"404 86 OFFCURVE",
"300 86 CURVE SMOOTH"
);
},
{
closed = 1;
nodes = (
"547 0 LINE",
"653 531 LINE",
"539 531 LINE",
"433 0 LINE"
);
}
);
width = 735;
},
{
anchors = (
{
name = ogonek;
position = "{644, 10}";
},
{
name = top;
position = "{446, 547}";
}
);
associatedMasterId = "5DA6E103-6A94-47F2-987D-4952DB8EA68E";
background = {
paths = (
{
closed = 1;
nodes = (
"366 -7 OFFCURVE",
"487 151 OFFCURVE",
"487 339 CURVE SMOOTH",
"487 477 OFFCURVE",
"419 556 OFFCURVE",
"301 556 CURVE SMOOTH",
"143 556 OFFCURVE",
"19 413 OFFCURVE",
"19 230 CURVE SMOOTH",
"19 90 OFFCURVE",
"102 -7 OFFCURVE",
"221 -7 CURVE SMOOTH"
);
},
{
closed = 1;
nodes = (
"271 161 OFFCURVE",
"246 192 OFFCURVE",
"246 245 CURVE SMOOTH",
"246 315 OFFCURVE",
"290 372 OFFCURVE",
"344 372 CURVE SMOOTH",
"387 372 OFFCURVE",
"414 340 OFFCURVE",
"414 289 CURVE SMOOTH",
"414 219 OFFCURVE",
"368 161 OFFCURVE",
"313 161 CURVE SMOOTH"
);
},
{
closed = 1;
nodes = (
"585 0 LINE",
"694 547 LINE",
"469 547 LINE",
"360 0 LINE"
);
}
);
};
layerId = "0CB1E0A7-E9B7-48DA-A068-DA16E300A57B";
name = "Bold Italic Dec 21 15, 20:10";
paths = (
{
closed = 1;
nodes = (
"366 -7 OFFCURVE",
"487 151 OFFCURVE",
"487 339 CURVE SMOOTH",
"487 477 OFFCURVE",
"419 556 OFFCURVE",
"301 556 CURVE SMOOTH",
"143 556 OFFCURVE",
"19 413 OFFCURVE",
"19 230 CURVE SMOOTH",
"19 90 OFFCURVE",
"102 -7 OFFCURVE",
"221 -7 CURVE SMOOTH"
);
},
{
closed = 1;
nodes = (
"271 161 OFFCURVE",
"246 192 OFFCURVE",
"246 245 CURVE SMOOTH",
"246 315 OFFCURVE",
"290 372 OFFCURVE",
"344 372 CURVE SMOOTH",
"387 372 OFFCURVE",
"414 340 OFFCURVE",
"414 289 CURVE SMOOTH",
"414 219 OFFCURVE",
"368 161 OFFCURVE",
"313 161 CURVE SMOOTH"
);
},
{
closed = 1;
nodes = (
"585 0 LINE",
"694 547 LINE",
"469 547 LINE",
"360 0 LINE"
);
}
);
width = 685;
}
);
leftKerningGroup = o;
leftMetricsKey = o;
rightKerningGroup = idotless;
rightMetricsKey = "=|n.ss01";
},
{
color = 10;
glyphname = aogonek.ss01;
layers = (
{
components = (
{
name = a.ss01;
}
);
layerId = UUID0;
paths = (
{
closed = 1;
nodes = (
"536 -24 OFFCURVE",
"486 -77 OFFCURVE",
"482 -125 CURVE SMOOTH",
"478 -168 OFFCURVE",
"505 -194 OFFCURVE",
"548 -194 CURVE SMOOTH",
"571 -194 OFFCURVE",
"596 -187 OFFCURVE",
"620 -172 CURVE",
"612 -156 LINE",
"592 -168 OFFCURVE",
"570 -174 OFFCURVE",
"551 -174 CURVE SMOOTH",
"522 -174 OFFCURVE",
"500 -160 OFFCURVE",
"503 -125 CURVE SMOOTH",
"506 -85 OFFCURVE",
"551 -34 OFFCURVE",
"624 22 CURVE",
"615 37 LINE"
);
}
);
width = 690;
},
{
background = {
paths = (
{
closed = 1;
nodes = (
"445 -7 OFFCURVE",
"400 -72 OFFCURVE",
"395 -128 CURVE SMOOTH",
"390 -183 OFFCURVE",
"424 -224 OFFCURVE",
"506 -224 CURVE SMOOTH",
"550 -224 OFFCURVE",
"582 -212 OFFCURVE",
"612 -200 CURVE",
"590 -110 LINE",
"581 -114 OFFCURVE",
"571 -117 OFFCURVE",
"562 -117 CURVE SMOOTH",
"544 -117 OFFCURVE",
"537 -108 OFFCURVE",
"538 -94 CURVE SMOOTH",
"541 -63 OFFCURVE",
"598 -21 OFFCURVE",
"649 -6 CURVE",
"520 52 LINE"
);
}
);
};
components = (
{
name = a.ss01;
}
);
layerId = "5DA6E103-6A94-47F2-987D-4952DB8EA68E";
paths = (
{
closed = 1;
nodes = (
"449 2 OFFCURVE",
"400 -72 OFFCURVE",
"395 -128 CURVE SMOOTH",
"390 -183 OFFCURVE",
"424 -224 OFFCURVE",
"506 -224 CURVE SMOOTH",
"550 -224 OFFCURVE",
"582 -212 OFFCURVE",
"612 -200 CURVE",
"590 -110 LINE",
"581 -114 OFFCURVE",
"571 -117 OFFCURVE",
"562 -117 CURVE SMOOTH",
"544 -117 OFFCURVE",
"537 -108 OFFCURVE",
"538 -94 CURVE SMOOTH",
"541 -63 OFFCURVE",
"598 -21 OFFCURVE",
"649 -6 CURVE",
"530 52 LINE"
);
}
);
width = 723;
},
{
background = {
components = (
{
name = a.ss01;
}
);
paths = (
{
closed = 1;
nodes = (
"498 1 OFFCURVE",
"444 -61 OFFCURVE",
"440 -112 CURVE SMOOTH",
"436 -167 OFFCURVE",
"472 -197 OFFCURVE",
"529 -197 CURVE SMOOTH",
"554 -197 OFFCURVE",
"584 -191 OFFCURVE",
"615 -179 CURVE",
"597 -118 LINE",
"588 -121 OFFCURVE",
"575 -124 OFFCURVE",
"563 -124 CURVE SMOOTH",
"545 -124 OFFCURVE",
"530 -118 OFFCURVE",
"532 -99 CURVE SMOOTH",
"535 -71 OFFCURVE",
"573 -40 OFFCURVE",
"632 0 CURVE",
"551 39 LINE"
);
}
);
};
components = (
{
name = a.ss01;
}
);
layerId = "1C84A7F3-C40A-4DC1-B8B4-102D183C348F";
paths = (
{
closed = 1;
nodes = (
"508 11 OFFCURVE",
"445 -56 OFFCURVE",
"440 -112 CURVE SMOOTH",
"435 -167 OFFCURVE",
"472 -197 OFFCURVE",
"529 -197 CURVE SMOOTH",
"554 -197 OFFCURVE",
"584 -191 OFFCURVE",
"615 -179 CURVE",
"597 -118 LINE",
"588 -121 OFFCURVE",
"575 -124 OFFCURVE",
"563 -124 CURVE SMOOTH",
"545 -124 OFFCURVE",
"530 -118 OFFCURVE",
"532 -99 CURVE SMOOTH",
"535 -71 OFFCURVE",
"586 -24 OFFCURVE",
"645 16 CURVE",
"561 49 LINE"
);
}
);
width = 707;
}
);
leftKerningGroup = o;
rightKerningGroup = idotless;
},
{
color = 1;
glyphname = ae;
layers = (
{
anchors = (
{
name = top;
position = "{494, 517}";
}
);
background = {
paths = (
{
closed = 0;
nodes = (
"523 124 LINE"
);
},
{
closed = 1;
nodes = (
"216 517 OFFCURVE",
"152 487 OFFCURVE",
"88 441 CURVE",
"99 425 LINE",
"160 469 OFFCURVE",
"218 497 OFFCURVE",
"288 497 CURVE",
"397 497 OFFCURVE",
"446 440 OFFCURVE",
"438 345 CURVE",
"431 259 LINE",
"451 259 LINE",
"458 345 LINE",
"467 450 OFFCURVE",
"409 517 OFFCURVE",
"290 517 CURVE"
);
},
{
closed = 1;
nodes = (
"239 282 LINE",
"121 282 OFFCURVE",
"41 233 OFFCURVE",
"33 149 CURVE",
"24 63 OFFCURVE",
"87 0 OFFCURVE",
"187 0 CURVE",
"296 0 OFFCURVE",
"387 48 OFFCURVE",
"442 161 CURVE",
"440 199 LINE",
"381 65 OFFCURVE",
"297 20 OFFCURVE",
"189 20 CURVE",
"99 20 OFFCURVE",
"45 73 OFFCURVE",
"53 149 CURVE",
"60 221 OFFCURVE",
"127 262 OFFCURVE",
"237 262 CURVE",
"441 262 LINE",
"443 282 LINE"
);
},
{
closed = 1;
nodes = (
"443 259 LINE",
"921 259 LINE",
"936 409 OFFCURVE",
"850 517 OFFCURVE",
"707 517 CURVE SMOOTH",
"543 517 OFFCURVE",
"413 384 OFFCURVE",
"430 211 CURVE SMOOTH",
"442 87 OFFCURVE",
"531 0 OFFCURVE",
"655 0 CURVE SMOOTH",
"735 0 OFFCURVE",
"807 30 OFFCURVE",
"860 81 CURVE",
"847 95 LINE",
"799 47 OFFCURVE",
"732 20 OFFCURVE",
"657 20 CURVE SMOOTH",
"542 20 OFFCURVE",
"461 99 OFFCURVE",
"450 213 CURVE SMOOTH",
"434 375 OFFCURVE",
"552 497 OFFCURVE",
"705 497 CURVE SMOOTH",
"832 497 OFFCURVE",
"907 408 OFFCURVE",
"903 279 CURVE",
"445 279 LINE"
);
}
);
};
layerId = UUID0;
paths = (
{
closed = 1;
nodes = (
"302 0 OFFCURVE",
"383 54 OFFCURVE",
"436 160 CURVE",
"463 67 OFFCURVE",
"551 0 OFFCURVE",
"661 0 CURVE SMOOTH",
"738 0 OFFCURVE",
"811 29 OFFCURVE",
"864 81 CURVE",
"851 95 LINE",
"802 46 OFFCURVE",
"736 20 OFFCURVE",
"661 20 CURVE SMOOTH",
"540 20 OFFCURVE",
"440 120 OFFCURVE",
"450 232 CURVE SMOOTH",
"453 259 LINE",
"923 259 LINE",
"936 411 OFFCURVE",
"846 517 OFFCURVE",
"704 517 CURVE SMOOTH",
"598 517 OFFCURVE",
"504 457 OFFCURVE",
"458 359 CURVE",
"461 459 OFFCURVE",
"398 517 OFFCURVE",
"287 517 CURVE SMOOTH",
"222 517 OFFCURVE",
"159 493 OFFCURVE",
"88 441 CURVE",
"98 425 LINE",
"168 475 OFFCURVE",
"224 497 OFFCURVE",
"287 497 CURVE SMOOTH",
"392 497 OFFCURVE",
"446 443 OFFCURVE",
"438 345 CURVE SMOOTH",
"434 282 LINE",
"241 282 LINE SMOOTH",
"121 282 OFFCURVE",
"43 232 OFFCURVE",
"36 150 CURVE SMOOTH",
"28 62 OFFCURVE",
"93 0 OFFCURVE",
"193 0 CURVE SMOOTH"
);
},
{
closed = 1;
nodes = (
"105 20 OFFCURVE",
"49 72 OFFCURVE",
"56 148 CURVE SMOOTH",
"62 221 OFFCURVE",
"129 262 OFFCURVE",
"239 262 CURVE SMOOTH",
"433 262 LINE",
"426 184 LINE SMOOTH",
"372 68 OFFCURVE",
"304 20 OFFCURVE",
"193 20 CURVE SMOOTH"
);
},
{
closed = 1;
nodes = (
"475 408 OFFCURVE",
"576 497 OFFCURVE",
"704 497 CURVE SMOOTH",
"827 497 OFFCURVE",
"907 411 OFFCURVE",
"904 279 CURVE",
"455 279 LINE"
);
}
);
width = 971;
},
{
anchors = (
{
name = top;
position = "{516, 547}";
}
);
background = {
paths = (
{
closed = 1;
nodes = (
"293 -11 OFFCURVE",
"368 24 OFFCURVE",
"416 93 CURVE",
"454 32 OFFCURVE",
"525 -8 OFFCURVE",
"630 -8 CURVE SMOOTH",
"734 -8 OFFCURVE",
"820 25 OFFCURVE",
"884 89 CURVE",
"772 210 LINE",
"737 178 OFFCURVE",
"695 158 OFFCURVE",
"653 158 CURVE SMOOTH",
"614 158 OFFCURVE",
"583 174 OFFCURVE",
"574 213 CURVE SMOOTH",
"574 223 LINE",
"930 219 LINE",
"960 421 OFFCURVE",
"857 555 OFFCURVE",
"662 555 CURVE SMOOTH",
"604 555 OFFCURVE",
"552 542 OFFCURVE",
"506 512 CURVE",
"468 540 OFFCURVE",
"410 557 OFFCURVE",
"334 557 CURVE SMOOTH",
"256 557 OFFCURVE",
"158 539 OFFCURVE",
"61 505 CURVE",
"105 353 LINE",
"168 376 OFFCURVE",
"233 389 OFFCURVE",
"278 389 CURVE SMOOTH",
"326 389 OFFCURVE",
"351 374 OFFCURVE",
"353 342 CURVE SMOOTH",
"353 329 LINE",
"223 329 LINE SMOOTH",
"84 327 OFFCURVE",
"8 274 OFFCURVE",
"-1 170 CURVE SMOOTH",
"-11 62 OFFCURVE",
"62 -11 OFFCURVE",
"194 -11 CURVE SMOOTH"
);
},
{
closed = 1;
nodes = (
"223 133 OFFCURVE",
"208 147 OFFCURVE",
"210 173 CURVE SMOOTH",
"213 206 OFFCURVE",
"236 225 OFFCURVE",
"267 225 CURVE SMOOTH",
"344 225 LINE",
"338 178 LINE",
"316 151 OFFCURVE",
"284 133 OFFCURVE",
"252 133 CURVE SMOOTH"
);
},
{
closed = 1;
nodes = (
"591 369 OFFCURVE",
"620 405 OFFCURVE",
"662 405 CURVE SMOOTH",
"699 405 OFFCURVE",
"722 376 OFFCURVE",
"715 331 CURVE",
"578 323 LINE"
);
}
);
};
layerId = "5DA6E103-6A94-47F2-987D-4952DB8EA68E";
paths = (
{
closed = 1;
nodes = (
"293 -11 OFFCURVE",
"368 24 OFFCURVE",
"416 93 CURVE",
"454 32 OFFCURVE",
"525 -8 OFFCURVE",
"630 -8 CURVE SMOOTH",
"734 -8 OFFCURVE",
"820 25 OFFCURVE",
"884 89 CURVE",
"772 210 LINE",
"737 178 OFFCURVE",
"695 158 OFFCURVE",
"653 158 CURVE SMOOTH",
"614 158 OFFCURVE",
"574 173 OFFCURVE",
"574 213 CURVE SMOOTH",
"574 224 LINE",
"930 224 LINE",
"960 423 OFFCURVE",
"857 555 OFFCURVE",
"662 555 CURVE SMOOTH",
"604 555 OFFCURVE",
"552 542 OFFCURVE",
"506 512 CURVE",
"468 540 OFFCURVE",
"410 557 OFFCURVE",
"334 557 CURVE SMOOTH",
"256 557 OFFCURVE",
"158 539 OFFCURVE",
"61 505 CURVE",
"105 353 LINE",
"168 376 OFFCURVE",
"233 389 OFFCURVE",
"278 389 CURVE SMOOTH",
"326 389 OFFCURVE",
"353 374 OFFCURVE",
"353 342 CURVE SMOOTH",
"353 329 LINE",
"223 329 LINE SMOOTH",
"84 329 OFFCURVE",
"8 274 OFFCURVE",
"-1 170 CURVE SMOOTH",
"-11 62 OFFCURVE",
"62 -11 OFFCURVE",
"194 -11 CURVE SMOOTH"
);
},
{
closed = 1;
nodes = (
"223 133 OFFCURVE",
"208 147 OFFCURVE",
"210 173 CURVE SMOOTH",
"213 206 OFFCURVE",
"236 227 OFFCURVE",
"267 224 CURVE SMOOTH",
"344 224 LINE",
"338 178 LINE",
"316 151 OFFCURVE",
"284 133 OFFCURVE",
"252 133 CURVE SMOOTH"
);
},
{
closed = 1;
nodes = (
"592 371 OFFCURVE",
"620 405 OFFCURVE",
"662 405 CURVE SMOOTH",
"699 405 OFFCURVE",
"722 378 OFFCURVE",
"715 329 CURVE",
"580 329 LINE"
);
}
);
width = 955;
},
{
anchors = (
{
name = top;
position = "{497, 531}";
}
);
background = {
paths = (
{
closed = 0;
nodes = (
"490 124 LINE"
);
},
{
closed = 1;
nodes = (
"199 535 OFFCURVE",
"120 511 OFFCURVE",
"41 470 CURVE",
"62 392 LINE",
"124 427 OFFCURVE",
"186 447 OFFCURVE",
"243 447 CURVE",
"327 447 OFFCURVE",
"367 406 OFFCURVE",
"360 337 CURVE",
"343 155 LINE",
"458 180 LINE",
"474 349 LINE",
"485 465 OFFCURVE",
"414 535 OFFCURVE",
"276 535 CURVE"
);
},
{
closed = 1;
nodes = (
"195 304 LINE",
"68 303 OFFCURVE",
"-13 250 OFFCURVE",
"-22 155 CURVE",
"-32 61 OFFCURVE",
"34 -5 OFFCURVE",
"148 -5 CURVE",
"261 -5 OFFCURVE",
"349 45 OFFCURVE",
"399 145 CURVE",
"354 188 LINE",
"313 103 OFFCURVE",
"253 72 OFFCURVE",
"182 72 CURVE",
"119 72 OFFCURVE",
"81 109 OFFCURVE",
"87 164 CURVE",
"92 216 OFFCURVE",
"137 245 OFFCURVE",
"211 245 CURVE",
"366 245 LINE",
"372 304 LINE"
);
},
{
closed = 1;
nodes = (
"447 242 LINE",
"887 242 LINE",
"910 416 OFFCURVE",
"818 535 OFFCURVE",
"652 535 CURVE SMOOTH",
"474 535 OFFCURVE",
"350 395 OFFCURVE",
"368 210 CURVE SMOOTH",
"381 82 OFFCURVE",
"466 -4 OFFCURVE",
"601 -4 CURVE SMOOTH",
"693 -4 OFFCURVE",
"772 29 OFFCURVE",
"831 86 CURVE",
"775 147 LINE",
"732 106 OFFCURVE",
"677 84 OFFCURVE",
"619 84 CURVE SMOOTH",
"534 84 OFFCURVE",
"475 142 OFFCURVE",
"466 231 CURVE SMOOTH",
"454 355 OFFCURVE",
"534 455 OFFCURVE",
"645 455 CURVE SMOOTH",
"732 455 OFFCURVE",
"784 391 OFFCURVE",
"778 301 CURVE",
"453 301 LINE"
);
}
);
};
layerId = "1C84A7F3-C40A-4DC1-B8B4-102D183C348F";
paths = (
{
closed = 1;
nodes = (
"300 -5 OFFCURVE",
"380 37 OFFCURVE",
"430 124 CURVE",
"465 44 OFFCURVE",
"543 -4 OFFCURVE",
"647 -4 CURVE SMOOTH",
"735 -4 OFFCURVE",
"813 26 OFFCURVE",
"873 85 CURVE",
"814 148 LINE",
"772 107 OFFCURVE",
"716 84 OFFCURVE",
"657 84 CURVE SMOOTH",
"569 84 OFFCURVE",
"498 149 OFFCURVE",
"505 225 CURVE SMOOTH",
"506 243 LINE",
"926 243 LINE",
"947 416 OFFCURVE",
"850 535 OFFCURVE",
"685 535 CURVE SMOOTH",
"609 535 OFFCURVE",
"542 509 OFFCURVE",
"490 455 CURVE",
"459 505 OFFCURVE",
"396 535 OFFCURVE",
"309 535 CURVE SMOOTH",
"237 535 OFFCURVE",
"159 514 OFFCURVE",
"76 471 CURVE",
"101 391 LINE",
"164 427 OFFCURVE",
"227 447 OFFCURVE",
"283 447 CURVE SMOOTH",
"364 447 OFFCURVE",
"405 410 OFFCURVE",
"399 339 CURVE SMOOTH",
"396 303 LINE",
"232 303 LINE SMOOTH",
"103 303 OFFCURVE",
"27 251 OFFCURVE",
"19 159 CURVE SMOOTH",
"10 61 OFFCURVE",
"81 -5 OFFCURVE",
"194 -5 CURVE SMOOTH"
);
},
{
closed = 1;
nodes = (
"158 72 OFFCURVE",
"122 107 OFFCURVE",
"127 160 CURVE SMOOTH",
"132 214 OFFCURVE",
"178 245 OFFCURVE",
"252 243 CURVE SMOOTH",
"390 243 LINE",
"384 171 LINE",
"347 106 OFFCURVE",
"292 72 OFFCURVE",
"220 72 CURVE SMOOTH"
);
},
{
closed = 1;
nodes = (
"530 393 OFFCURVE",
"601 455 OFFCURVE",
"685 455 CURVE SMOOTH",
"769 455 OFFCURVE",
"822 396 OFFCURVE",
"817 303 CURVE",
"511 303 LINE"
);
}
);
width = 963;
}
);
leftKerningGroup = a;
leftMetricsKey = a;
rightKerningGroup = e;
rightMetricsKey = e;
unicode = 00E6;
},
{
color = 1;
glyphname = ae.ss01;
layers = (
{
anchors = (
{
name = top;
position = "{494, 517}";
}
);
background = {
paths = (
{
closed = 0;
nodes = (
"485 124 LINE"
);
},
{
closed = 1;
nodes = (
"200 282 LINE",
"81 282 OFFCURVE",
"1 233 OFFCURVE",
"-7 149 CURVE",
"-16 63 OFFCURVE",
"47 0 OFFCURVE",
"148 0 CURVE",
"257 0 OFFCURVE",
"349 48 OFFCURVE",
"404 161 CURVE",
"402 199 LINE",
"343 65 OFFCURVE",
"258 20 OFFCURVE",
"150 20 CURVE",
"59 20 OFFCURVE",
"5 73 OFFCURVE",
"13 149 CURVE",
"20 221 OFFCURVE",
"87 262 OFFCURVE",
"198 262 CURVE",
"403 262 LINE",
"405 282 LINE"
);
},
{
closed = 1;
nodes = (
"59 425 LINE",
"120 469 OFFCURVE",
"179 497 OFFCURVE",
"249 497 CURVE",
"359 497 OFFCURVE",
"408 440 OFFCURVE",
"400 345 CURVE",
"391 259 LINE",
"411 259 LINE",
"420 345 LINE",
"429 450 OFFCURVE",
"371 517 OFFCURVE",
"251 517 CURVE",
"177 517 OFFCURVE",
"112 487 OFFCURVE",
"48 441 CURVE"
);
},
{
closed = 1;
nodes = (
"763 50 OFFCURVE",
"697 20 OFFCURVE",
"622 20 CURVE SMOOTH",
"504 20 OFFCURVE",
"423 100 OFFCURVE",
"412 213 CURVE SMOOTH",
"396 374 OFFCURVE",
"513 497 OFFCURVE",
"667 497 CURVE SMOOTH",
"760 497 OFFCURVE",
"831 451 OFFCURVE",
"852 371 CURVE",
"398 193 LINE",
"403 175 LINE",
"877 360 LINE",
"858 457 OFFCURVE",
"776 517 OFFCURVE",
"670 517 CURVE SMOOTH",
"504 517 OFFCURVE",
"375 383 OFFCURVE",
"392 211 CURVE SMOOTH",
"404 88 OFFCURVE",
"493 0 OFFCURVE",
"619 0 CURVE SMOOTH",
"700 0 OFFCURVE",
"772 33 OFFCURVE",
"834 104 CURVE",
"818 115 LINE"
);
}
);
};
layerId = UUID0;
paths = (
{
closed = 1;
nodes = (
"301 0 OFFCURVE",
"383 53 OFFCURVE",
"436 160 CURVE",
"464 64 OFFCURVE",
"554 0 OFFCURVE",
"661 0 CURVE SMOOTH",
"738 0 OFFCURVE",
"811 29 OFFCURVE",
"864 81 CURVE",
"851 95 LINE",
"802 46 OFFCURVE",
"736 20 OFFCURVE",
"661 20 CURVE SMOOTH",
"538 20 OFFCURVE",
"445 113 OFFCURVE",
"454 241 CURVE",
"465 394 OFFCURVE",
"565 497 OFFCURVE",
"704 497 CURVE SMOOTH",
"794 497 OFFCURVE",
"860 451 OFFCURVE",
"888 369 CURVE",
"442 193 LINE",
"439 171 LINE",
"913 358 LINE",
"887 458 OFFCURVE",
"810 517 OFFCURVE",
"704 517 CURVE SMOOTH",
"598 517 OFFCURVE",
"504 457 OFFCURVE",
"458 359 CURVE",
"461 459 OFFCURVE",
"398 517 OFFCURVE",
"287 517 CURVE SMOOTH",
"222 517 OFFCURVE",
"159 493 OFFCURVE",
"88 441 CURVE",
"98 425 LINE",
"168 475 OFFCURVE",
"224 497 OFFCURVE",
"287 497 CURVE SMOOTH",
"392 497 OFFCURVE",
"446 443 OFFCURVE",
"439 345 CURVE SMOOTH",
"434 282 LINE",
"241 282 LINE SMOOTH",
"121 282 OFFCURVE",
"43 232 OFFCURVE",
"36 150 CURVE SMOOTH",
"28 62 OFFCURVE",
"93 0 OFFCURVE",
"193 0 CURVE SMOOTH"
);
},
{
closed = 1;
nodes = (
"105 20 OFFCURVE",
"49 72 OFFCURVE",
"56 148 CURVE SMOOTH",
"62 221 OFFCURVE",
"129 262 OFFCURVE",
"239 262 CURVE SMOOTH",
"432 262 LINE",
"425 184 LINE SMOOTH",
"372 68 OFFCURVE",
"304 20 OFFCURVE",
"193 20 CURVE SMOOTH"
);
}
);
width = 947;
},
{
anchors = (
{
name = top;
position = "{516, 547}";
}
);
background = {
paths = (
{
closed = 0;
nodes = (
"505 124 LINE"
);
},
{
closed = 1;
nodes = (
"197 329 LINE SMOOTH",
"34 329 OFFCURVE",
"-47 254 OFFCURVE",
"-35 131 CURVE SMOOTH",
"-26 45 OFFCURVE",
"40 -11 OFFCURVE",
"156 -11 CURVE SMOOTH",
"273 -11 OFFCURVE",
"359 41 OFFCURVE",
"403 127 CURVE",
"309 175 LINE",
"287 148 OFFCURVE",
"256 133 OFFCURVE",
"226 133 CURVE SMOOTH",
"197 133 OFFCURVE",
"181 147 OFFCURVE",
"178 171 CURVE SMOOTH",
"175 205 OFFCURVE",
"195 225 OFFCURVE",
"233 225 CURVE SMOOTH",
"333 225 LINE",
"344 329 LINE"
);
},
{
closed = 1;
nodes = (
"71 354 LINE",
"136 377 OFFCURVE",
"202 389 OFFCURVE",
"244 389 CURVE SMOOTH",
"301 389 OFFCURVE",
"328 366 OFFCURVE",
"324 327 CURVE",
"306 140 LINE",
"521 87 LINE",
"548 354 LINE SMOOTH",
"561 483 OFFCURVE",
"474 557 OFFCURVE",
"314 557 CURVE SMOOTH",
"233 557 OFFCURVE",
"134 538 OFFCURVE",
"36 504 CURVE"
);
},
{
closed = 1;
nodes = (
"708 179 OFFCURVE",
"664 158 OFFCURVE",
"625 158 CURVE SMOOTH",
"578 158 OFFCURVE",
"547 192 OFFCURVE",
"541 251 CURVE SMOOTH",
"533 335 OFFCURVE",
"568 405 OFFCURVE",
"631 405 CURVE SMOOTH",
"663 405 OFFCURVE",
"690 386 OFFCURVE",
"691 339 CURVE",
"507 307 LINE",
"496 197 LINE",
"898 273 LINE",
"915 444 OFFCURVE",
"824 555 OFFCURVE",
"651 555 CURVE SMOOTH",
"444 555 OFFCURVE",
"331 408 OFFCURVE",
"350 214 CURVE SMOOTH",
"364 78 OFFCURVE",
"452 -8 OFFCURVE",
"596 -8 CURVE SMOOTH",
"692 -8 OFFCURVE",
"789 27 OFFCURVE",
"864 104 CURVE",
"750 216 LINE"
);
}
);
};
layerId = "5DA6E103-6A94-47F2-987D-4952DB8EA68E";
paths = (
{
closed = 1;
nodes = (
"292 -11 OFFCURVE",
"370 23 OFFCURVE",
"420 96 CURVE",
"461 31 OFFCURVE",
"535 -8 OFFCURVE",
"636 -8 CURVE SMOOTH",
"736 -8 OFFCURVE",
"830 29 OFFCURVE",
"899 101 CURVE",
"779 219 LINE",
"738 181 OFFCURVE",
"693 158 OFFCURVE",
"652 158 CURVE SMOOTH",
"589 158 OFFCURVE",
"566 221 OFFCURVE",
"572 281 CURVE SMOOTH",
"577 344 OFFCURVE",
"611 405 OFFCURVE",
"666 405 CURVE SMOOTH",
"700 405 OFFCURVE",
"721 384 OFFCURVE",
"721 343 CURVE",
"560 311 LINE",
"567 204 LINE",
"929 269 LINE",
"944 443 OFFCURVE",
"846 555 OFFCURVE",
"673 555 CURVE SMOOTH",
"613 555 OFFCURVE",
"558 542 OFFCURVE",
"509 512 CURVE",
"470 540 OFFCURVE",
"412 557 OFFCURVE",
"335 557 CURVE SMOOTH",
"257 557 OFFCURVE",
"158 539 OFFCURVE",
"61 505 CURVE",
"105 353 LINE",
"164 374 OFFCURVE",
"230 389 OFFCURVE",
"279 389 CURVE SMOOTH",
"325 389 OFFCURVE",
"354 374 OFFCURVE",
"355 342 CURVE SMOOTH",
"355 329 LINE",
"224 329 LINE SMOOTH",
"85 327 OFFCURVE",
"8 273 OFFCURVE",
"-1 172 CURVE SMOOTH",
"-11 59 OFFCURVE",
"64 -11 OFFCURVE",
"197 -11 CURVE SMOOTH"
);
},
{
closed = 1;
nodes = (
"223 133 OFFCURVE",
"208 147 OFFCURVE",
"210 173 CURVE SMOOTH",
"213 206 OFFCURVE",
"236 225 OFFCURVE",
"268 225 CURVE SMOOTH",
"346 225 LINE",
"340 178 LINE",
"319 152 OFFCURVE",
"287 133 OFFCURVE",
"253 133 CURVE SMOOTH"
);
}
);
width = 948;
},
{
anchors = (
{
name = top;
position = "{497, 531}";
}
);
background = {
paths = (
{
closed = 0;
nodes = (
"486 124 LINE"
);
},
{
closed = 1;
nodes = (
"194 319 LINE",
"67 318 OFFCURVE",
"-12 256 OFFCURVE",
"-22 160 CURVE",
"-31 67 OFFCURVE",
"34 -5 OFFCURVE",
"149 -5 CURVE",
"265 -5 OFFCURVE",
"355 45 OFFCURVE",
"406 145 CURVE",
"346 198 LINE",
"338 132 OFFCURVE",
"267 83 OFFCURVE",
"182 83 CURVE",
"118 83 OFFCURVE",
"82 115 OFFCURVE",
"87 164 CURVE",
"92 216 OFFCURVE",
"129 237 OFFCURVE",
"204 237 CURVE",
"363 237 LINE",
"371 319 LINE"
);
},
{
closed = 1;
nodes = (
"80 392 LINE",
"136 428 OFFCURVE",
"191 447 OFFCURVE",
"241 447 CURVE",
"326 447 OFFCURVE",
"364 406 OFFCURVE",
"358 336 CURVE",
"341 152 LINE",
"454 152 LINE",
"472 349 LINE",
"483 465 OFFCURVE",
"413 535 OFFCURVE",
"276 535 CURVE",
"174 535 OFFCURVE",
"119 511 OFFCURVE",
"40 466 CURVE"
);
},
{
closed = 1;
nodes = (
"744 110 OFFCURVE",
"689 83 OFFCURVE",
"630 83 CURVE SMOOTH",
"545 83 OFFCURVE",
"486 143 OFFCURVE",
"477 232 CURVE SMOOTH",
"464 364 OFFCURVE",
"538 446 OFFCURVE",
"655 446 CURVE SMOOTH",
"719 446 OFFCURVE",
"762 420 OFFCURVE",
"780 359 CURVE",
"457 261 LINE",
"452 176 LINE",
"886 306 LINE",
"892 449 OFFCURVE",
"803 537 OFFCURVE",
"658 535 CURVE SMOOTH",
"468 532 OFFCURVE",
"345 392 OFFCURVE",
"363 215 CURVE SMOOTH",
"376 84 OFFCURVE",
"471 -4 OFFCURVE",
"613 -4 CURVE SMOOTH",
"706 -4 OFFCURVE",
"787 31 OFFCURVE",
"855 104 CURVE",
"793 161 LINE"
);
}
);
};
layerId = "1C84A7F3-C40A-4DC1-B8B4-102D183C348F";
paths = (
{
closed = 1;
nodes = (
"299 -5 OFFCURVE",
"379 35 OFFCURVE",
"431 116 CURVE",
"472 41 OFFCURVE",
"554 -4 OFFCURVE",
"658 -4 CURVE SMOOTH",
"752 -4 OFFCURVE",
"831 30 OFFCURVE",
"896 102 CURVE",
"831 163 LINE",
"784 111 OFFCURVE",
"727 83 OFFCURVE",
"667 83 CURVE SMOOTH",
"568 83 OFFCURVE",
"507 158 OFFCURVE",
"516 265 CURVE SMOOTH",
"526 380 OFFCURVE",
"592 446 OFFCURVE",
"694 446 CURVE SMOOTH",
"759 446 OFFCURVE",
"800 419 OFFCURVE",
"819 361 CURVE",
"501 263 LINE",
"510 181 LINE",
"924 304 LINE",
"927 445 OFFCURVE",
"838 535 OFFCURVE",
"695 535 CURVE SMOOTH",
"612 535 OFFCURVE",
"540 509 OFFCURVE",
"487 456 CURVE",
"456 506 OFFCURVE",
"393 535 OFFCURVE",
"308 535 CURVE SMOOTH",
"220 535 OFFCURVE",
"166 520 OFFCURVE",
"75 467 CURVE",
"118 391 LINE",
"173 427 OFFCURVE",
"229 447 OFFCURVE",
"280 447 CURVE SMOOTH",
"361 447 OFFCURVE",
"401 410 OFFCURVE",
"396 338 CURVE SMOOTH",
"394 319 LINE",
"230 319 LINE SMOOTH",
"106 318 OFFCURVE",
"27 260 OFFCURVE",
"18 164 CURVE SMOOTH",
"10 65 OFFCURVE",
"83 -5 OFFCURVE",
"194 -5 CURVE SMOOTH"
);
},
{
closed = 1;
nodes = (
"157 83 OFFCURVE",
"122 112 OFFCURVE",
"126 160 CURVE SMOOTH",
"131 213 OFFCURVE",
"168 237 OFFCURVE",
"245 237 CURVE SMOOTH",
"388 237 LINE",
"383 187 LINE",
"368 128 OFFCURVE",
"298 83 OFFCURVE",
"219 83 CURVE SMOOTH"
);
}
);
width = 962;
}
);
leftKerningGroup = ae.ss01;
leftMetricsKey = a;
rightKerningGroup = ae.ss01;
rightMetricsKey = e;
},
{
color = 1;
glyphname = b;
layers = (
{
anchors = (
{
name = bottom;
position = "{286, 0}";
},
{
name = top;
position = "{390, 517}";
}
);
background = {
paths = (
{
closed = 1;
nodes = (
"212 742 LINE",
"64 0 LINE",
"84 0 LINE",
"232 742 LINE"
);
},
{
closed = 1;
nodes = (
"238 519 OFFCURVE",
"115 389 OFFCURVE",
"115 224 CURVE SMOOTH",
"115 91 OFFCURVE",
"210 -2 OFFCURVE",
"346 -2 CURVE SMOOTH",
"501 -2 OFFCURVE",
"625 129 OFFCURVE",
"625 293 CURVE SMOOTH",
"625 426 OFFCURVE",
"530 519 OFFCURVE",
"394 519 CURVE SMOOTH"
);
},
{
closed = 1;
nodes = (
"518 499 OFFCURVE",
"605 414 OFFCURVE",
"605 290 CURVE SMOOTH",
"605 139 OFFCURVE",
"490 18 OFFCURVE",
"348 18 CURVE SMOOTH",
"222 18 OFFCURVE",
"135 103 OFFCURVE",
"135 227 CURVE SMOOTH",
"135 378 OFFCURVE",
"249 499 OFFCURVE",
"392 499 CURVE SMOOTH"
);
}
);
};
layerId = UUID0;
paths = (
{
closed = 1;
nodes = (
"299 519 OFFCURVE",
"213 471 OFFCURVE",
"161 389 CURVE",
"232 742 LINE",
"212 742 LINE",
"64 0 LINE",
"84 0 LINE",
"119 177 LINE",
"139 69 OFFCURVE",
"228 -2 OFFCURVE",
"346 -2 CURVE SMOOTH",
"501 -2 OFFCURVE",
"625 129 OFFCURVE",
"625 293 CURVE SMOOTH",
"625 426 OFFCURVE",
"530 519 OFFCURVE",
"394 519 CURVE SMOOTH"
);
},
{
closed = 1;
nodes = (
"518 499 OFFCURVE",
"605 414 OFFCURVE",
"605 290 CURVE SMOOTH",
"605 139 OFFCURVE",
"490 18 OFFCURVE",
"348 18 CURVE SMOOTH",
"222 18 OFFCURVE",
"135 103 OFFCURVE",
"135 227 CURVE SMOOTH",
"135 378 OFFCURVE",
"249 499 OFFCURVE",
"392 499 CURVE SMOOTH"
);
}
);
width = 676;
},
{
anchors = (
{
name = bottom;
position = "{293, 0}";
},
{
name = top;
position = "{403, 547}";
}
);
background = {
paths = (
{
closed = 1;
nodes = (
"154 742 LINE",
"7 0 LINE",
"232 0 LINE",
"379 742 LINE"
);
},
{
closed = 1;
nodes = (
"335 556 OFFCURVE",
"214 398 OFFCURVE",
"214 210 CURVE SMOOTH",
"214 72 OFFCURVE",
"282 -7 OFFCURVE",
"400 -7 CURVE SMOOTH",
"558 -7 OFFCURVE",
"682 136 OFFCURVE",
"682 319 CURVE SMOOTH",
"682 459 OFFCURVE",
"599 556 OFFCURVE",
"480 556 CURVE SMOOTH"
);
},
{
closed = 1;
nodes = (
"430 388 OFFCURVE",
"455 357 OFFCURVE",
"455 304 CURVE SMOOTH",
"455 234 OFFCURVE",
"411 177 OFFCURVE",
"357 177 CURVE SMOOTH",
"314 177 OFFCURVE",
"287 209 OFFCURVE",
"287 260 CURVE SMOOTH",
"287 330 OFFCURVE",
"333 388 OFFCURVE",
"388 388 CURVE SMOOTH"
);
}
);
};
layerId = "5DA6E103-6A94-47F2-987D-4952DB8EA68E";
paths = (
{
closed = 1;
nodes = (
"425 555 OFFCURVE",
"373 532 OFFCURVE",
"330 493 CURVE",
"379 742 LINE",
"154 742 LINE",
"7 0 LINE",
"232 0 LINE",
"246 72 LINE",
"277 20 OFFCURVE",
"330 -8 OFFCURVE",
"400 -8 CURVE SMOOTH",
"558 -8 OFFCURVE",
"682 135 OFFCURVE",
"682 318 CURVE SMOOTH",
"682 458 OFFCURVE",
"599 555 OFFCURVE",
"480 555 CURVE SMOOTH"
);
},
{
closed = 1;
nodes = (
"430 387 OFFCURVE",
"455 356 OFFCURVE",
"455 303 CURVE SMOOTH",
"455 233 OFFCURVE",
"411 176 OFFCURVE",
"357 176 CURVE SMOOTH",
"314 176 OFFCURVE",
"287 208 OFFCURVE",
"287 259 CURVE SMOOTH",
"287 329 OFFCURVE",
"333 387 OFFCURVE",
"388 387 CURVE SMOOTH"
);
}
);
width = 696;
},
{
anchors = (
{
name = bottom;
position = "{290, 0}";
},
{
name = top;
position = "{396, 531}";
}
);
background = {
paths = (
{
closed = 1;
nodes = (
"185 742 LINE",
"37 0 LINE",
"152 0 LINE",
"300 742 LINE"
);
},
{
closed = 1;
nodes = (
"268 538 OFFCURVE",
"158 398 OFFCURVE",
"158 207 CURVE SMOOTH",
"158 74 OFFCURVE",
"236 -3 OFFCURVE",
"372 -3 CURVE SMOOTH",
"529 -3 OFFCURVE",
"651 133 OFFCURVE",
"651 308 CURVE SMOOTH",
"651 447 OFFCURVE",
"558 538 OFFCURVE",
"418 538 CURVE SMOOTH"
);
},
{
closed = 1;
nodes = (
"476 449 OFFCURVE",
"535 389 OFFCURVE",
"535 297 CURVE SMOOTH",
"535 185 OFFCURVE",
"452 92 OFFCURVE",
"351 92 CURVE SMOOTH",
"263 92 OFFCURVE",
"205 152 OFFCURVE",
"205 243 CURVE SMOOTH",
"205 357 OFFCURVE",
"286 449 OFFCURVE",
"386 449 CURVE SMOOTH"
);
}
);
};
layerId = "1C84A7F3-C40A-4DC1-B8B4-102D183C348F";
paths = (
{
closed = 1;
nodes = (
"354 534 OFFCURVE",
"289 503 OFFCURVE",
"241 451 CURVE",
"299 742 LINE",
"185 742 LINE",
"37 0 LINE",
"151 0 LINE",
"174 113 LINE",
"202 35 OFFCURVE",
"266 -7 OFFCURVE",
"360 -7 CURVE SMOOTH",
"525 -7 OFFCURVE",
"650 124 OFFCURVE",
"650 295 CURVE SMOOTH",
"650 438 OFFCURVE",
"561 534 OFFCURVE",
"429 534 CURVE SMOOTH"
);
},
{
closed = 1;
nodes = (
"476 445 OFFCURVE",
"534 383 OFFCURVE",
"534 290 CURVE SMOOTH",
"534 179 OFFCURVE",
"450 88 OFFCURVE",
"346 88 CURVE SMOOTH",
"260 88 OFFCURVE",
"204 150 OFFCURVE",
"204 243 CURVE SMOOTH",
"204 355 OFFCURVE",
"286 445 OFFCURVE",
"390 445 CURVE SMOOTH"
);
}
);
width = 686;
}
);
leftKerningGroup = h;
rightKerningGroup = o;
unicode = 0062;
},
{
color = 1;
glyphname = c;
layers = (
{
anchors = (
{
name = bottom;
position = "{267, 0}";
},
{
name = top;
position = "{327, 517}";
}
);
background = {
paths = (
{
closed = 1;
nodes = (
"329 0 OFFCURVE",
"401 29 OFFCURVE",
"456 80 CURVE",
"444 96 LINE",
"393 48 OFFCURVE",
"326 20 OFFCURVE",
"254 20 CURVE SMOOTH",
"121 20 OFFCURVE",
"43 117 OFFCURVE",
"71 257 CURVE SMOOTH",
"100 398 OFFCURVE",
"218 497 OFFCURVE",
"353 497 CURVE SMOOTH",
"417 497 OFFCURVE",
"468 474 OFFCURVE",
"503 435 CURVE",
"517 447 LINE",
"480 490 OFFCURVE",
"423 517 OFFCURVE",
"353 517 CURVE SMOOTH",
"210 517 OFFCURVE",
"83 410 OFFCURVE",
"53 261 CURVE SMOOTH",
"23 109 OFFCURVE",
"109 0 OFFCURVE",
"254 0 CURVE SMOOTH"
);
}
);
};
layerId = UUID0;
paths = (
{
closed = 1;
nodes = (
"356 0 OFFCURVE",
"425 30 OFFCURVE",
"475 81 CURVE",
"463 95 LINE",
"417 47 OFFCURVE",
"353 20 OFFCURVE",
"282 20 CURVE SMOOTH",
"157 20 OFFCURVE",
"72 108 OFFCURVE",
"72 235 CURVE SMOOTH",
"72 388 OFFCURVE",
"185 497 OFFCURVE",
"329 497 CURVE SMOOTH",
"394 497 OFFCURVE",
"447 473 OFFCURVE",
"486 434 CURVE",
"500 448 LINE",
"459 491 OFFCURVE",
"400 517 OFFCURVE",
"331 517 CURVE SMOOTH",
"177 517 OFFCURVE",
"53 397 OFFCURVE",
"53 234 CURVE SMOOTH",
"53 97 OFFCURVE",
"146 0 OFFCURVE",
"280 0 CURVE SMOOTH"
);
}
);
width = 577;
},
{
anchors = (
{
name = bottom;
position = "{254, 0}";
},
{
name = top;
position = "{344, 547}";
}
);
background = {
paths = (
{
closed = 1;
nodes = (
"411 -8 OFFCURVE",
"502 45 OFFCURVE",
"556 140 CURVE",
"381 233 LINE",
"362 191 OFFCURVE",
"334 170 OFFCURVE",
"300 170 CURVE SMOOTH",
"264 170 OFFCURVE",
"242 195 OFFCURVE",
"242 238 CURVE SMOOTH",
"242 308 OFFCURVE",
"286 369 OFFCURVE",
"338 369 CURVE SMOOTH",
"368 369 OFFCURVE",
"387 354 OFFCURVE",
"395 324 CURVE",
"579 393 LINE",
"551 492 OFFCURVE",
"451 553 OFFCURVE",
"320 553 CURVE SMOOTH",
"143 553 OFFCURVE",
"16 421 OFFCURVE",
"16 238 CURVE SMOOTH",
"16 89 OFFCURVE",
"129 -8 OFFCURVE",
"302 -8 CURVE SMOOTH"
);
}
);
};
layerId = "5DA6E103-6A94-47F2-987D-4952DB8EA68E";
paths = (
{
closed = 1;
nodes = (
"402 -8 OFFCURVE",
"504 48 OFFCURVE",
"553 145 CURVE",
"380 229 LINE",
"364 188 OFFCURVE",
"339 170 OFFCURVE",
"307 170 CURVE SMOOTH",
"267 170 OFFCURVE",
"244 204 OFFCURVE",
"244 257 CURVE SMOOTH",
"244 326 OFFCURVE",
"278 373 OFFCURVE",
"327 373 CURVE SMOOTH",
"359 373 OFFCURVE",
"381 354 OFFCURVE",
"392 321 CURVE",
"578 397 LINE",
"543 497 OFFCURVE",
"454 555 OFFCURVE",
"335 555 CURVE SMOOTH",
"146 555 OFFCURVE",
"16 429 OFFCURVE",
"16 242 CURVE SMOOTH",
"16 90 OFFCURVE",
"116 -8 OFFCURVE",
"277 -8 CURVE SMOOTH"
);
}
);
width = 577;
},
{
anchors = (
{
name = bottom;
position = "{249, 0}";
},
{
name = top;
position = "{345, 531}";
}
);
background = {
paths = (
{
closed = 1;
nodes = (
"353 -4 OFFCURVE",
"438 31 OFFCURVE",
"498 91 CURVE",
"446 154 LINE",
"402 111 OFFCURVE",
"343 89 OFFCURVE",
"277 89 CURVE SMOOTH",
"198 89 OFFCURVE",
"149 146 OFFCURVE",
"149 229 CURVE SMOOTH",
"149 349 OFFCURVE",
"239 440 OFFCURVE",
"347 440 CURVE SMOOTH",
"410 440 OFFCURVE",
"457 417 OFFCURVE",
"487 379 CURVE",
"564 453 LINE",
"525 505 OFFCURVE",
"456 535 OFFCURVE",
"361 535 CURVE SMOOTH",
"179 535 OFFCURVE",
"32 398 OFFCURVE",
"32 213 CURVE SMOOTH",
"32 84 OFFCURVE",
"116 -4 OFFCURVE",
"252 -4 CURVE SMOOTH"
);
}
);
};
layerId = "1C84A7F3-C40A-4DC1-B8B4-102D183C348F";
paths = (
{
closed = 1;
nodes = (
"380 -4 OFFCURVE",
"460 31 OFFCURVE",
"514 91 CURVE",
"456 154 LINE",
"417 111 OFFCURVE",
"360 89 OFFCURVE",
"293 89 CURVE SMOOTH",
"208 89 OFFCURVE",
"151 153 OFFCURVE",
"151 246 CURVE SMOOTH",
"151 360 OFFCURVE",
"228 440 OFFCURVE",
"328 440 CURVE SMOOTH",
"392 440 OFFCURVE",
"441 417 OFFCURVE",
"474 379 CURVE",
"544 453 LINE",
"500 505 OFFCURVE",
"428 535 OFFCURVE",
"333 535 CURVE SMOOTH",
"163 535 OFFCURVE",
"36 412 OFFCURVE",
"36 238 CURVE SMOOTH",
"36 94 OFFCURVE",
"132 -4 OFFCURVE",
"278 -4 CURVE SMOOTH"
);
}
);
width = 584;
}
);
leftKerningGroup = o;
rightKerningGroup = c;
unicode = 0063;
},
{
color = 1;
glyphname = d;
layers = (
{
anchors = (
{
name = bottom;
position = "{304, 0}";
},
{
name = center;
position = "{579, 609}";
},
{
name = topright;
position = "{777, 742}";
}
);
background = {
paths = (
{
closed = 0;
nodes = (
"420 264 LINE"
);
},
{
closed = 1;
nodes = (
"213 519 OFFCURVE",
"85 410 OFFCURVE",
"55 260 CURVE SMOOTH",
"25 109 OFFCURVE",
"111 -2 OFFCURVE",
"258 -2 CURVE SMOOTH",
"403 -2 OFFCURVE",
"530 107 OFFCURVE",
"560 256 CURVE",
"591 408 OFFCURVE",
"505 519 OFFCURVE",
"358 519 CURVE SMOOTH"
);
},
{
closed = 1;
nodes = (
"492 499 OFFCURVE",
"569 398 OFFCURVE",
"541 260 CURVE SMOOTH",
"513 120 OFFCURVE",
"394 18 OFFCURVE",
"258 18 CURVE SMOOTH",
"124 18 OFFCURVE",
"47 118 OFFCURVE",
"74 256 CURVE SMOOTH",
"102 396 OFFCURVE",
"222 499 OFFCURVE",
"358 499 CURVE SMOOTH"
);
},
{
closed = 1;
nodes = (
"637 742 LINE",
"489 0 LINE",
"509 0 LINE",
"657 742 LINE"
);
}
);
};
layerId = UUID0;
paths = (
{
closed = 1;
nodes = (
"377 -2 OFFCURVE",
"463 46 OFFCURVE",
"515 128 CURVE",
"489 0 LINE",
"509 0 LINE",
"657 742 LINE",
"637 742 LINE",
"557 340 LINE",
"537 448 OFFCURVE",
"448 519 OFFCURVE",
"330 519 CURVE SMOOTH",
"175 519 OFFCURVE",
"51 388 OFFCURVE",
"51 224 CURVE SMOOTH",
"51 91 OFFCURVE",
"146 -2 OFFCURVE",
"282 -2 CURVE SMOOTH"
);
},
{
closed = 1;
nodes = (
"158 18 OFFCURVE",
"71 103 OFFCURVE",
"71 227 CURVE SMOOTH",
"71 378 OFFCURVE",
"186 499 OFFCURVE",
"328 499 CURVE SMOOTH",
"454 499 OFFCURVE",
"541 414 OFFCURVE",
"541 290 CURVE SMOOTH",
"541 139 OFFCURVE",
"427 18 OFFCURVE",
"284 18 CURVE SMOOTH"
);
}
);
width = 676;
},
{
anchors = (
{
name = bottom;
position = "{290, 0}";
},
{
name = center;
position = "{584, 630}";
},
{
name = topright;
position = "{808, 742}";
}
);
background = {
paths = (
{
closed = 1;
nodes = (
"271 -8 OFFCURVE",
"323 15 OFFCURVE",
"366 54 CURVE",
"355 0 LINE",
"580 0 LINE",
"689 547 LINE",
"464 547 LINE",
"450 475 LINE",
"419 527 OFFCURVE",
"366 555 OFFCURVE",
"296 555 CURVE SMOOTH",
"138 555 OFFCURVE",
"14 412 OFFCURVE",
"14 229 CURVE SMOOTH",
"14 89 OFFCURVE",
"97 -8 OFFCURVE",
"216 -8 CURVE SMOOTH"
);
},
{
closed = 1;
nodes = (
"266 160 OFFCURVE",
"241 191 OFFCURVE",
"241 244 CURVE SMOOTH",
"241 314 OFFCURVE",
"285 371 OFFCURVE",
"339 371 CURVE SMOOTH",
"382 371 OFFCURVE",
"409 339 OFFCURVE",
"409 288 CURVE SMOOTH",
"409 218 OFFCURVE",
"363 160 OFFCURVE",
"308 160 CURVE SMOOTH"
);
}
);
};
layerId = "5DA6E103-6A94-47F2-987D-4952DB8EA68E";
paths = (
{
closed = 1;
nodes = (
"271 -8 OFFCURVE",
"323 15 OFFCURVE",
"366 54 CURVE",
"355 0 LINE",
"580 0 LINE",
"728 742 LINE",
"503 742 LINE",
"450 475 LINE",
"419 527 OFFCURVE",
"366 555 OFFCURVE",
"296 555 CURVE SMOOTH",
"138 555 OFFCURVE",
"14 412 OFFCURVE",
"14 229 CURVE SMOOTH",
"14 89 OFFCURVE",
"97 -8 OFFCURVE",
"216 -8 CURVE SMOOTH"
);
},
{
closed = 1;
nodes = (
"266 160 OFFCURVE",
"241 191 OFFCURVE",
"241 244 CURVE SMOOTH",
"241 314 OFFCURVE",
"285 371 OFFCURVE",
"339 371 CURVE SMOOTH",
"382 371 OFFCURVE",
"409 339 OFFCURVE",
"409 288 CURVE SMOOTH",
"409 218 OFFCURVE",
"363 160 OFFCURVE",
"308 160 CURVE SMOOTH"
);
}
);
width = 695;
},
{
anchors = (
{
name = bottom;
position = "{287, 0}";
},
{
name = center;
position = "{579, 615}";
},
{
name = topright;
position = "{790, 742}";
}
);
background = {
paths = (
{
closed = 0;
nodes = (
"426 264 LINE"
);
},
{
closed = 1;
nodes = (
"170 536 OFFCURVE",
"31 398 OFFCURVE",
"31 211 CURVE SMOOTH",
"31 83 OFFCURVE",
"108 -5 OFFCURVE",
"239 -5 CURVE SMOOTH",
"385 -5 OFFCURVE",
"489 97 OFFCURVE",
"522 266 CURVE",
"556 434 OFFCURVE",
"492 536 OFFCURVE",
"345 536 CURVE SMOOTH"
);
},
{
closed = 1;
nodes = (
"434 443 OFFCURVE",
"484 384 OFFCURVE",
"484 300 CURVE SMOOTH",
"484 179 OFFCURVE",
"392 86 OFFCURVE",
"281 86 CURVE SMOOTH",
"198 86 OFFCURVE",
"148 145 OFFCURVE",
"148 229 CURVE SMOOTH",
"148 347 OFFCURVE",
"240 443 OFFCURVE",
"352 443 CURVE SMOOTH"
);
},
{
closed = 1;
nodes = (
"575 742 LINE",
"427 0 LINE",
"542 0 LINE",
"690 742 LINE"
);
}
);
};
layerId = "1C84A7F3-C40A-4DC1-B8B4-102D183C348F";
paths = (
{
closed = 1;
nodes = (
"331 -5 OFFCURVE",
"396 26 OFFCURVE",
"444 78 CURVE",
"428 0 LINE",
"542 0 LINE",
"690 742 LINE",
"576 742 LINE",
"511 416 LINE",
"483 494 OFFCURVE",
"419 536 OFFCURVE",
"325 536 CURVE SMOOTH",
"160 536 OFFCURVE",
"35 405 OFFCURVE",
"35 234 CURVE SMOOTH",
"35 91 OFFCURVE",
"124 -5 OFFCURVE",
"256 -5 CURVE SMOOTH"
);
},
{
closed = 1;
nodes = (
"209 84 OFFCURVE",
"151 146 OFFCURVE",
"151 239 CURVE SMOOTH",
"151 350 OFFCURVE",
"235 441 OFFCURVE",
"339 441 CURVE SMOOTH",
"425 441 OFFCURVE",
"481 379 OFFCURVE",
"481 286 CURVE SMOOTH",
"481 174 OFFCURVE",
"399 84 OFFCURVE",
"295 84 CURVE SMOOTH"
);
}
);
width = 685;
}
);
leftKerningGroup = o;
leftMetricsKey = "=o";
rightKerningGroup = l;
rightMetricsKey = "=l";
unicode = 0064;
},
{
color = 1;
glyphname = d.ss01;
layers = (
{
anchors = (
{
name = bottom;
position = "{304, 0}";
},
{
name = center;
position = "{569, 609}";
},
{
name = topright;
position = "{717, 742}";
}
);
background = {
paths = (
{
closed = 1;
nodes = (
"377 -2 OFFCURVE",
"463 46 OFFCURVE",
"515 128 CURVE",
"507 89 LINE SMOOTH",
"495 29 OFFCURVE",
"516 0 OFFCURVE",
"564 0 CURVE SMOOTH",
"586 0 OFFCURVE",
"614 12 OFFCURVE",
"642 36 CURVE",
"630 52 LINE",
"607 32 OFFCURVE",
"584 20 OFFCURVE",
"564 20 CURVE SMOOTH",
"530 20 OFFCURVE",
"517 40 OFFCURVE",
"526 87 CURVE SMOOTH",
"657 742 LINE",
"637 742 LINE",
"557 340 LINE",
"537 448 OFFCURVE",
"448 519 OFFCURVE",
"330 519 CURVE SMOOTH",
"175 519 OFFCURVE",
"51 388 OFFCURVE",
"51 224 CURVE SMOOTH",
"51 91 OFFCURVE",
"146 -2 OFFCURVE",
"282 -2 CURVE SMOOTH"
);
},
{
closed = 1;
nodes = (
"158 18 OFFCURVE",
"71 103 OFFCURVE",
"71 227 CURVE SMOOTH",
"71 378 OFFCURVE",
"186 499 OFFCURVE",
"328 499 CURVE SMOOTH",
"454 499 OFFCURVE",
"541 414 OFFCURVE",
"541 290 CURVE SMOOTH",
"541 139 OFFCURVE",
"427 18 OFFCURVE",
"284 18 CURVE SMOOTH"
);
}
);
};
layerId = UUID0;
paths = (
{
closed = 1;
nodes = (
"637 742 LINE",
"557 340 LINE",
"537 448 OFFCURVE",
"448 519 OFFCURVE",
"330 519 CURVE SMOOTH",
"175 519 OFFCURVE",
"51 388 OFFCURVE",
"51 224 CURVE SMOOTH",
"51 91 OFFCURVE",
"146 -2 OFFCURVE",
"282 -2 CURVE SMOOTH",
"377 -2 OFFCURVE",
"463 46 OFFCURVE",
"515 128 CURVE",
"507 89 LINE SMOOTH",
"495 29 OFFCURVE",
"516 0 OFFCURVE",
"564 0 CURVE SMOOTH",
"581 0 OFFCURVE",
"602 7 OFFCURVE",
"624 22 CURVE",
"629 47 LINE",
"605 30 OFFCURVE",
"584 20 OFFCURVE",
"564 20 CURVE SMOOTH",
"530 20 OFFCURVE",
"517 40 OFFCURVE",
"526 87 CURVE SMOOTH",
"657 742 LINE"
);
},
{
closed = 1;
nodes = (
"541 139 OFFCURVE",
"427 18 OFFCURVE",
"284 18 CURVE SMOOTH",
"158 18 OFFCURVE",
"71 103 OFFCURVE",
"71 227 CURVE SMOOTH",
"71 378 OFFCURVE",
"186 499 OFFCURVE",
"328 499 CURVE SMOOTH",
"454 499 OFFCURVE",
"541 414 OFFCURVE",
"541 290 CURVE SMOOTH"
);
}
);
width = 682;
},
{
anchors = (
{
name = bottom;
position = "{320, 0}";
},
{
name = center;
position = "{593, 630}";
},
{
name = topright;
position = "{768, 742}";
}
);
background = {
paths = (
{
closed = 1;
nodes = (
"285 -8 OFFCURVE",
"362 30 OFFCURVE",
"419 101 CURVE",
"427 84 LINE SMOOTH",
"455 25 OFFCURVE",
"512 -11 OFFCURVE",
"594 -11 CURVE SMOOTH",
"628 -11 OFFCURVE",
"664 -5 OFFCURVE",
"696 5 CURVE",
"709 199 LINE",
"691 191 OFFCURVE",
"671 182 OFFCURVE",
"649 182 CURVE SMOOTH",
"624 182 OFFCURVE",
"618 193 OFFCURVE",
"625 223 CURVE SMOOTH",
"728 742 LINE",
"503 742 LINE",
"450 475 LINE",
"419 527 OFFCURVE",
"366 555 OFFCURVE",
"296 555 CURVE SMOOTH",
"138 555 OFFCURVE",
"14 412 OFFCURVE",
"14 229 CURVE SMOOTH",
"14 89 OFFCURVE",
"97 -8 OFFCURVE",
"216 -8 CURVE SMOOTH"
);
},
{
closed = 1;
nodes = (
"266 160 OFFCURVE",
"241 191 OFFCURVE",
"241 244 CURVE SMOOTH",
"241 314 OFFCURVE",
"285 371 OFFCURVE",
"339 371 CURVE SMOOTH",
"382 371 OFFCURVE",
"409 339 OFFCURVE",
"409 288 CURVE SMOOTH",
"409 218 OFFCURVE",
"363 160 OFFCURVE",
"308 160 CURVE SMOOTH"
);
}
);
};
layerId = "5DA6E103-6A94-47F2-987D-4952DB8EA68E";
paths = (
{
closed = 1;
nodes = (
"503 742 LINE",
"450 475 LINE",
"419 527 OFFCURVE",
"366 555 OFFCURVE",
"296 555 CURVE SMOOTH",
"138 555 OFFCURVE",
"14 412 OFFCURVE",
"14 229 CURVE SMOOTH",
"14 89 OFFCURVE",
"97 -8 OFFCURVE",
"216 -8 CURVE SMOOTH",
"285 -8 OFFCURVE",
"363 30 OFFCURVE",
"420 101 CURVE",
"427 84 LINE SMOOTH",
"452 24 OFFCURVE",
"512 -11 OFFCURVE",
"594 -11 CURVE SMOOTH",
"612 -11 OFFCURVE",
"631 -9 OFFCURVE",
"649 -6 CURVE",
"688 190 LINE",
"676 186 OFFCURVE",
"663 182 OFFCURVE",
"649 182 CURVE SMOOTH",
"624 182 OFFCURVE",
"619 193 OFFCURVE",
"625 223 CURVE SMOOTH",
"728 742 LINE"
);
},
{
closed = 1;
nodes = (
"409 218 OFFCURVE",
"363 160 OFFCURVE",
"308 160 CURVE SMOOTH",
"266 160 OFFCURVE",
"241 191 OFFCURVE",
"241 244 CURVE SMOOTH",
"241 314 OFFCURVE",
"285 371 OFFCURVE",
"339 371 CURVE SMOOTH",
"382 371 OFFCURVE",
"409 339 OFFCURVE",
"409 288 CURVE SMOOTH"
);
}
);
width = 714;
},
{
anchors = (
{
name = bottom;
position = "{327, 0}";
},
{
name = center;
position = "{579, 615}";
},
{
name = topright;
position = "{739, 742}";
}
);
background = {
paths = (
{
closed = 1;
nodes = (
"331 -5 OFFCURVE",
"406 28 OFFCURVE",
"459 90 CURVE",
"463 75 LINE SMOOTH",
"477 23 OFFCURVE",
"510 -5 OFFCURVE",
"565 -5 CURVE SMOOTH",
"595 -5 OFFCURVE",
"631 5 OFFCURVE",
"666 22 CURVE",
"662 113 LINE",
"634 99 OFFCURVE",
"618 94 OFFCURVE",
"602 94 CURVE SMOOTH",
"574 94 OFFCURVE",
"564 112 OFFCURVE",
"571 152 CURVE SMOOTH",
"689 742 LINE",
"575 742 LINE",
"510 416 LINE",
"482 494 OFFCURVE",
"417 536 OFFCURVE",
"324 536 CURVE SMOOTH",
"159 536 OFFCURVE",
"34 405 OFFCURVE",
"34 234 CURVE SMOOTH",
"34 91 OFFCURVE",
"123 -5 OFFCURVE",
"255 -5 CURVE SMOOTH"
);
},
{
closed = 1;
nodes = (
"208 84 OFFCURVE",
"150 146 OFFCURVE",
"150 239 CURVE SMOOTH",
"150 350 OFFCURVE",
"234 441 OFFCURVE",
"338 441 CURVE SMOOTH",
"424 441 OFFCURVE",
"480 379 OFFCURVE",
"480 286 CURVE SMOOTH",
"480 174 OFFCURVE",
"398 84 OFFCURVE",
"294 84 CURVE SMOOTH"
);
}
);
};
layerId = "1C84A7F3-C40A-4DC1-B8B4-102D183C348F";
paths = (
{
closed = 1;
nodes = (
"575 742 LINE",
"511 416 LINE",
"483 494 OFFCURVE",
"418 536 OFFCURVE",
"325 536 CURVE SMOOTH",
"160 536 OFFCURVE",
"35 405 OFFCURVE",
"35 234 CURVE SMOOTH",
"35 83 OFFCURVE",
"137 -6 OFFCURVE",
"256 -6 CURVE SMOOTH",
"325 -6 OFFCURVE",
"399 24 OFFCURVE",
"463 90 CURVE",
"466 75 LINE SMOOTH",
"476 23 OFFCURVE",
"512 -5 OFFCURVE",
"565 -5 CURVE SMOOTH",
"588 -5 OFFCURVE",
"614 0 OFFCURVE",
"643 11 CURVE",
"662 109 LINE",
"637 99 OFFCURVE",
"617 94 OFFCURVE",
"602 94 CURVE SMOOTH",
"571 94 OFFCURVE",
"565 118 OFFCURVE",
"572 152 CURVE SMOOTH",
"689 742 LINE"
);
},
{
closed = 1;
nodes = (
"481 174 OFFCURVE",
"399 84 OFFCURVE",
"295 84 CURVE SMOOTH",
"209 84 OFFCURVE",
"151 146 OFFCURVE",
"151 239 CURVE SMOOTH",
"151 350 OFFCURVE",
"235 441 OFFCURVE",
"339 441 CURVE SMOOTH",
"425 441 OFFCURVE",
"481 379 OFFCURVE",
"481 286 CURVE SMOOTH"
);
}
);
width = 709;
}
);
leftKerningGroup = o;
leftMetricsKey = "=d";
rightKerningGroup = l;
},
{
color = 1;
glyphname = eth;
layers = (
{
background = {
paths = (
{
closed = 1;
nodes = (
"139 671 LINE",
"276 606 OFFCURVE",
"378 504 OFFCURVE",
"398 408 CURVE",
"366 430 OFFCURVE",
"305 450 OFFCURVE",
"241 450 CURVE SMOOTH",
"97 450 OFFCURVE",
"2 349 OFFCURVE",
"2 209 CURVE SMOOTH",
"2 77 OFFCURVE",
"104 -8 OFFCURVE",
"270 -8 CURVE SMOOTH",
"474 -8 OFFCURVE",
"609 137 OFFCURVE",
"609 339 CURVE SMOOTH",
"609 519 OFFCURVE",
"490 678 OFFCURVE",
"297 752 CURVE"
);
},
{
closed = 1;
nodes = (
"340 301 OFFCURVE",
"362 278 OFFCURVE",
"358 245 CURVE SMOOTH",
"352 203 OFFCURVE",
"319 175 OFFCURVE",
"274 175 CURVE SMOOTH",
"240 175 OFFCURVE",
"218 194 OFFCURVE",
"218 223 CURVE SMOOTH",
"218 264 OFFCURVE",
"250 301 OFFCURVE",
"300 301 CURVE SMOOTH"
);
},
{
closed = 1;
nodes = (
"138 562 LINE",
"158 462 LINE",
"637 603 LINE",
"617 705 LINE"
);
}
);
};
layerId = "5DA6E103-6A94-47F2-987D-4952DB8EA68E";
paths = (
{
closed = 1;
nodes = (
"139 671 LINE",
"276 606 OFFCURVE",
"378 504 OFFCURVE",
"398 408 CURVE",
"366 430 OFFCURVE",
"305 450 OFFCURVE",
"241 450 CURVE SMOOTH",
"97 450 OFFCURVE",
"2 349 OFFCURVE",
"2 209 CURVE SMOOTH",
"2 77 OFFCURVE",
"104 -8 OFFCURVE",
"270 -8 CURVE SMOOTH",
"474 -8 OFFCURVE",
"609 137 OFFCURVE",
"609 339 CURVE SMOOTH",
"609 519 OFFCURVE",
"490 678 OFFCURVE",
"297 752 CURVE"
);
},
{
closed = 1;
nodes = (
"340 301 OFFCURVE",
"359 278 OFFCURVE",
"359 251 CURVE SMOOTH",
"359 216 OFFCURVE",
"327 175 OFFCURVE",
"274 175 CURVE SMOOTH",
"240 175 OFFCURVE",
"218 194 OFFCURVE",
"218 223 CURVE SMOOTH",
"218 264 OFFCURVE",
"250 301 OFFCURVE",
"300 301 CURVE SMOOTH"
);
},
{
closed = 1;
nodes = (
"138 562 LINE",
"158 462 LINE",
"637 603 LINE",
"617 705 LINE"
);
}
);
width = 619;
},
{
background = {
paths = (
{
closed = 1;
nodes = (
"219 727 LINE",
"371 631 OFFCURVE",
"481 466 OFFCURVE",
"501 308 CURVE",
"478 386 OFFCURVE",
"399 437 OFFCURVE",
"299 437 CURVE SMOOTH",
"154 437 OFFCURVE",
"53 337 OFFCURVE",
"53 193 CURVE SMOOTH",
"53 74 OFFCURVE",
"132 1 OFFCURVE",
"260 1 CURVE SMOOTH",
"415 1 OFFCURVE",
"516 108 OFFCURVE",
"516 274 CURVE SMOOTH",
"516 448 OFFCURVE",
"408 628 OFFCURVE",
"233 744 CURVE"
);
},
{
closed = 1;
nodes = (
"418 417 OFFCURVE",
"493 350 OFFCURVE",
"493 243 CURVE SMOOTH",
"493 111 OFFCURVE",
"401 21 OFFCURVE",
"264 21 CURVE SMOOTH",
"147 21 OFFCURVE",
"74 89 OFFCURVE",
"74 196 CURVE SMOOTH",
"74 328 OFFCURVE",
"164 417 OFFCURVE",
"298 417 CURVE SMOOTH"
);
},
{
closed = 1;
nodes = (
"207 604 LINE",
"209 585 LINE",
"481 650 LINE",
"479 671 LINE"
);
}
);
};
layerId = UUID0;
paths = (
{
closed = 1;
nodes = (
"219 727 LINE",
"370 632 OFFCURVE",
"481 467 OFFCURVE",
"501 308 CURVE",
"478 386 OFFCURVE",
"399 437 OFFCURVE",
"299 437 CURVE SMOOTH",
"154 437 OFFCURVE",
"53 337 OFFCURVE",
"53 193 CURVE SMOOTH",
"53 76 OFFCURVE",
"135 1 OFFCURVE",
"265 1 CURVE SMOOTH",
"422 1 OFFCURVE",
"516 103 OFFCURVE",
"516 274 CURVE SMOOTH",
"516 448 OFFCURVE",
"408 628 OFFCURVE",
"233 744 CURVE"
);
},
{
closed = 1;
nodes = (
"418 417 OFFCURVE",
"493 350 OFFCURVE",
"493 243 CURVE SMOOTH",
"493 111 OFFCURVE",
"401 21 OFFCURVE",
"264 21 CURVE SMOOTH",
"147 21 OFFCURVE",
"74 89 OFFCURVE",
"74 196 CURVE SMOOTH",
"74 328 OFFCURVE",
"164 417 OFFCURVE",
"298 417 CURVE SMOOTH"
);
},
{
closed = 1;
nodes = (
"207 604 LINE",
"209 585 LINE",
"481 650 LINE",
"479 671 LINE"
);
}
);
width = 571;
},
{
background = {
paths = (
{
closed = 1;
nodes = (
"182 701 LINE",
"326 620 OFFCURVE",
"434 485 OFFCURVE",
"454 354 CURVE",
"428 404 OFFCURVE",
"362 441 OFFCURVE",
"284 444 CURVE SMOOTH",
"148 448 OFFCURVE",
"49 368 OFFCURVE",
"32 238 CURVE SMOOTH",
"13 97 OFFCURVE",
"100 2 OFFCURVE",
"250 -4 CURVE SMOOTH",
"414 -9 OFFCURVE",
"534 90 OFFCURVE",
"555 249 CURVE SMOOTH",
"582 444 OFFCURVE",
"465 639 OFFCURVE",
"262 748 CURVE"
);
},
{
closed = 1;
nodes = (
"393 361 OFFCURVE",
"441 307 OFFCURVE",
"430 225 CURVE",
"419 142 OFFCURVE",
"352 89 OFFCURVE",
"262 92 CURVE SMOOTH",
"178 95 OFFCURVE",
"130 149 OFFCURVE",
"141 231 CURVE SMOOTH",
"153 314 OFFCURVE",
"218 367 OFFCURVE",
"306 364 CURVE SMOOTH"
);
},
{
closed = 1;
nodes = (
"175 584 LINE",
"185 528 LINE",
"553 628 LINE",
"542 687 LINE"
);
}
);
};
layerId = "1C84A7F3-C40A-4DC1-B8B4-102D183C348F";
paths = (
{
closed = 1;
nodes = (
"182 701 LINE",
"327 619 OFFCURVE",
"434 483 OFFCURVE",
"454 354 CURVE",
"426 408 OFFCURVE",
"354 444 OFFCURVE",
"274 444 CURVE SMOOTH",
"129 444 OFFCURVE",
"29 345 OFFCURVE",
"29 200 CURVE SMOOTH",
"29 75 OFFCURVE",
"120 -4 OFFCURVE",
"262 -4 CURVE SMOOTH",
"440 -4 OFFCURVE",
"559 119 OFFCURVE",
"559 305 CURVE SMOOTH",
"559 480 OFFCURVE",
"446 649 OFFCURVE",
"262 748 CURVE"
);
},
{
closed = 1;
nodes = (
"381 364 OFFCURVE",
"431 319 OFFCURVE",
"431 247 CURVE SMOOTH",
"431 156 OFFCURVE",
"365 92 OFFCURVE",
"269 92 CURVE SMOOTH",
"189 92 OFFCURVE",
"139 137 OFFCURVE",
"139 208 CURVE SMOOTH",
"139 298 OFFCURVE",
"207 364 OFFCURVE",
"299 364 CURVE SMOOTH"
);
},
{
closed = 1;
nodes = (
"175 584 LINE",
"185 528 LINE",
"553 628 LINE",
"542 687 LINE"
);
}
);
width = 593;
}
);
leftKerningGroup = o;
rightKerningGroup = O;
rightMetricsKey = O;
unicode = 00F0;
},
{
color = 0;
glyphname = dcroat;
layers = (
{
background = {
components = (
{
name = d;
}
);
paths = (
{
closed = 1;
nodes = (
"379 599 LINE",
"708 599 LINE",
"712 619 LINE",
"383 619 LINE"
);
}
);
};
components = (
{
name = d;
}
);
layerId = UUID0;
paths = (
{
closed = 1;
nodes = (
"379 599 LINE",
"708 599 LINE",
"712 619 LINE",
"383 619 LINE"
);
}
);
width = 676;
},
{
background = {
paths = (
{
closed = 1;
nodes = (
"345 581 LINE",
"743 581 LINE",
"762 679 LINE",
"365 679 LINE"
);
}
);
};
components = (
{
name = d;
}
);
layerId = "5DA6E103-6A94-47F2-987D-4952DB8EA68E";
paths = (
{
closed = 1;
nodes = (
"351 581 LINE",
"756 581 LINE",
"775 679 LINE",
"371 679 LINE"
);
}
);
width = 695;
},
{
background = {
paths = (
{
closed = 1;
nodes = (
"374 581 LINE",
"727 581 LINE",
"741 647 LINE",
"388 647 LINE"
);
}
);
};
components = (
{
name = d;
}
);
layerId = "1C84A7F3-C40A-4DC1-B8B4-102D183C348F";
paths = (
{
closed = 1;
nodes = (
"374 581 LINE",
"727 581 LINE",
"741 647 LINE",
"388 647 LINE"
);
}
);
width = 685;
}
);
leftKerningGroup = o;
rightKerningGroup = l;
unicode = 0111;
},
{
color = 0;
glyphname = dcroat.ss01;
layers = (
{
background = {
components = (
{
name = d.ss01;
}
);
paths = (
{
closed = 1;
nodes = (
"389 599 LINE",
"715 599 LINE",
"719 619 LINE",
"393 619 LINE"
);
}
);
};
components = (
{
name = d.ss01;
}
);
layerId = UUID0;
paths = (
{
closed = 1;
nodes = (
"379 599 LINE",
"708 599 LINE",
"712 619 LINE",
"383 619 LINE"
);
}
);
width = 682;
},
{
background = {
components = (
{
name = d.ss01;
}
);
paths = (
{
closed = 1;
nodes = (
"351 581 LINE",
"756 581 LINE",
"775 679 LINE",
"371 679 LINE"
);
}
);
};
components = (
{
name = d.ss01;
}
);
layerId = "5DA6E103-6A94-47F2-987D-4952DB8EA68E";
paths = (
{
closed = 1;
nodes = (
"351 581 LINE",
"756 581 LINE",
"775 679 LINE",
"371 679 LINE"
);
}
);
width = 714;
},
{
background = {
paths = (
{
closed = 1;
nodes = (
"374 581 LINE",
"720 581 LINE",
"734 647 LINE",
"388 647 LINE"
);
}
);
};
components = (
{
name = d.ss01;
}
);
layerId = "1C84A7F3-C40A-4DC1-B8B4-102D183C348F";
paths = (
{
closed = 1;
nodes = (
"373 581 LINE",
"726 581 LINE",
"740 647 LINE",
"387 647 LINE"
);
}
);
width = 709;
}
);
leftKerningGroup = o;
rightKerningGroup = l;
},
